<svg xmlns="http://www.w3.org/2000/svg" width="64" height="64" viewBox="-2.4 0 379.6 216"><path fill="#008fbe" stroke="#0d1117" stroke-width="5" d="M0 0h372v216H0z"/><path fill="#fff" d="M210.75 73.78h15.86v6.31A21 21 0 0 1 243.44 72a20 20 0 0 1 17.64 10c5.66-8.09 14.24-10 20.22-10 8.25 0 15.53 3.88 19.42 10.68 1.29 2.27 3.56 7.28 3.56 17.15v42.07h-15.86v-37.54c0-7.6-.81-10.68-1.46-12.13-1-2.59-3.4-6-9.06-6a11.71 11.71 0 0 0-9.38 5c-2.75 3.88-3.07 9.71-3.07 15.53v35.14h-15.87v-37.54c0-7.6-.81-10.68-1.46-12.13-1-2.59-3.4-6-9.06-6a11.71 11.71 0 0 0-9.38 5c-2.75 3.88-3.07 9.71-3.07 15.53v35.14h-15.86Zm-54.9 0h15.86v6.15a27.5 27.5 0 0 1 6.63-5.66 18.3 18.3 0 0 1 9.71-2.27 23.5 23.5 0 0 1 12.46 3.24L194 89.64a14.36 14.36 0 0 0-8.09-2.43c-3.4 0-6.79.48-9.87 3.72-4.37 4.69-4.37 11.16-4.37 15.69v35.28h-15.81Zm-71.95 34.3c0 11.81 7.44 21.68 18.93 21.68 10 0 19.25-7.28 19.25-21.52 0-14.89-9.22-22-19.25-22-11.49 0-18.93 9.71-18.93 21.84m37.21-34.3H137v68.12h-15.88v-7.12a26.16 26.16 0 0 1-20.38 9.22c-21 0-33-17.47-33-36.24C67.74 85.59 82.95 72 100.91 72a24.83 24.83 0 0 1 20.23 9.71Z"/></svg>
