<svg xmlns="http://www.w3.org/2000/svg" viewBox="-4.5 0 207 300" width="43.2" height="64"><path d="M50 300c27.6 0 50-22.4 50-50v-50H50c-27.6 0-50 22.4-50 50s22.4 50 50 50z" style="fill:#0acf83;stroke:#0d1117;stroke-width:5px"/><path d="M0 150c0-27.6 22.4-50 50-50h50v100H50c-27.6 0-50-22.4-50-50z" style="fill:#a259ff;stroke:#0d1117;stroke-width:5px"/><path d="M0 50C0 22.4 22.4 0 50 0h50v100H50C22.4 100 0 77.6 0 50z" style="fill:#f24e1e;stroke:#0d1117;stroke-width:5px"/><path d="M100 0h50c27.6 0 50 22.4 50 50s-22.4 50-50 50h-50z" style="fill:#ff7262;stroke:#0d1117;stroke-width:5px"/><path d="M200 150c0 27.6-22.4 50-50 50s-50-22.4-50-50 22.4-50 50-50 50 22.4 50 50z" style="fill:#1abcfe;stroke:#0d1117;stroke-width:5px"/></svg>
