<svg xmlns="http://www.w3.org/2000/svg" viewBox="10.7 0 42.7 64" xml:space="preserve" width="42.7" height="64">
  <g/>
  <g/>
  <path fill="#19BCFE" d="M53.4 32a10.7 10.7 0 0 1-10.7 10.7A10.7 10.7 0 0 1 32 32a10.7 10.7 0 0 1 21.4 0z"/>
  <path fill="#09CF83" d="M21.3 64C27.2 64 32 59.2 32 53.3V42.6H21.3c-5.9 0-10.7 4.8-10.7 10.7S15.4 64 21.3 64z"/>
  <path fill="#A259FF" d="M21.3 42.7H32V21.3H21.3c-5.9 0-10.7 4.8-10.7 10.7s4.8 10.7 10.7 10.7z"/>
  <path fill="#F24E1E" d="M21.3 21.3H32V0H21.3c-5.9 0-10.6 4.8-10.6 10.7s4.7 10.6 10.6 10.6z"/>
  <path fill="#FF7262" d="M42.7 21.3H32V0h10.7c5.9 0 10.7 4.8 10.7 10.7s-4.8 10.6-10.7 10.6z"/>
</svg>
