<svg xmlns="http://www.w3.org/2000/svg" viewBox="477.2 671 45.5 64" xml:space="preserve" width="45.5" height="64">
  <path d="M489.3 732c0-.8-1.5-5.8-2.1-6.8-.6-1.1 0 2.3.7 4.3.7 1.6 1.4 3 1.4 2.5zm-1.4-.4c0-1.1-.1-1.7-.8-4-.5-1.6-.7-2.1-.8-2.8-.1-.6-.2-.7-.4-.4-.3.3-.2.8.3 2.7.3 1.1.4 1.5.5 2 .1.8.7 2.5 1.1 2.9.1 0 .1-.1.1-.4zm-2.1-8.1c.2-.5-.1-2.1-.7-4.2-.4-1.4-.5-2-.6-2.6-.1-.7-.5-1.3-.5-1-.1.2.5 3.5.8 4.3 0 .1.1.7.2 1.2.1 1.8.6 2.9.8 2.3zm22.4-5.1c3.9.1 5.6-4.3 2.7-7.1-2.1-2-6.2-1.4-7.5 1.1-1.4 2.7.8 6.2 3.8 6h1zm-17.6-5.5c-1.4 3.6 2.9 7.5 6.5 5.7 3.4-1.7 3.6-5.7.4-7.4-.2-.1-.5-.3-.6-.3-1-.6-2.4-.5-4.8.4-.8.3-.8.3-.4-.2" fill="#FFF"/>
  <path fill="#F3D71D" d="M499.568 734.894c-5.3-.2-9-.9-11.9-2.3-.4-.2-.4-.1-.8-1.7-.8-2.8-1.4-5.4-2.1-8.7-.3-1.7-.5-2.4-1.3-5.6-1.4-5.9-1.9-8.5-2.2-11.3-.1-.7.1-1.7.3-1.9.1-.2.1-.6 0-.6s-.1-.1-.1-.4c0-.3-.1-.4-.1-.5-.1-.1-.1-.2-.1-.3v-1.9.1c0 .6-.4-.5-.6-1.6-.6-3-1.6-5.9-1.4-4.1.1.6.2 1.3.7 2.8.5 1.8.7 3.1.6 3.5-.1.6-1.1-3.1-1.6-6.4-.1-.8-.3-2.1-.5-2.8-.3-1.6-.5-2.7-.8-4-.3-1.3-.3-1.5.1-2 .8-1.1 3.3-1.9 3.5-1.2.2.5-.4.8-1.8 1.1-1.3.3-1.4.5-.7 1.1.7.7 4.6 1.3 9.3 1.4 8.3.3 13.5.3 15 .2.4 0 .9-.1 1.1-.1.5 0 .5 0 .5-.1s0-.2.2-.3c.1-.1.2-.3.3-.4.3-.4.8-.5.9-.3.2.3 0 1-.4 1.2-.2.1-.1.1.3.2.2 0 .5 0 .6.1.4 0 .8-.1.6-.3-.4-.4.4-1.1 1.5-1.5.2-.1.3-.1.4-.1h.1c.1 0 .6-.3 1.1-.8.3-.3.6-.6.7-.6l.2-.2c.1-.2-.1-.1-.4.1-.2.1-.4.3-.5.3-.3.2-.8.5-1.4.9-.2.1-.4.3-.5.3s-.2.1-.2.1c-.1.1-.6.1-.8 0-.7-.2-.7-.8-.1-1.8.3-.4.9-1.4 1-1.4l.2-.2c.1-.2.2-.2.6-.5.3-.2.5-.2.5 0 0 .1-.2.5-.4.9-.5.8-.5.9-.5.9.1.1.6-.2.6-.4 0-.1.1-.2.2-.4.5-1 1.6-1.1 2.3-.2.2.2.2.3.2.1 0-.4.6-.8 1.4-.8.3 0 .3-.1.1-.2-.4-.1-.4-.2-.1-.5.3-.4.2-.5-.5-.2-.6.2-1.2.4-1.6.3h-.5c-.1 0-.2.1-.4.1h-.6c-.7-.1-.6-.7.2-2.2.1-.2.3-.5.3-.7l.7-1.4c.3-.6.6-1.3.7-1.5s.2-.5.3-.6.1-.2.1-.3c0 0 .1-.2.1-.3.4-.8 1.1-2.9 1-3.1v-.1s.2-.1.3-.2c.1-.1.3-.2.4-.2.1-.1.1-.1.1-.2-.1-.6 1-.2 2.3.8 2 1.5 3.7 4 5.2 7.4 1.3 3.1 1.7 8.3.8 12.1-.6 2.7-1 6.9-1.4 14.8-.3 5-.4 7.3-.7 9.5-.1.6-.1 1.5-.2 2-.2 2.5-.5 4.8-.9 7.8-.2 1-.2 1.3-.2 2.1 0 3.1-1.2 4.9-3.4 5.2-.2 0-.6.1-1 .2-2.6.8-5.5 1.2-9.3 1.4-3.2.4-4.1.4-5.6.4zm-10.8-4.7c-.6-2.3-.9-3.4-1.3-4.2-.4-.9-.5-1.1-.5-.6.2 2.1.8 4.1 1.8 5.9.5.9.5.9 0-1.1zm-1 1.5c.2-.6-.1-1.9-.9-4.2-.4-1.3-.8-2.5-.8-2.9 0-.3-.1-.3-.3-.2-.3.3-.2.8.4 2.9.2.6.3 1.2.4 1.4.3 1.3 1.1 3.5 1.2 3zm15.5-6.8c.8-.5.7-2.1-.2-2.7-.8-.5-1.2.5-.9 2.1.1.7.6.9 1.1.6zm-2.5-.1c.6-.3.8-1.4.4-2.2-.4-.9-1.1-.4-1.3.7 0 .2-.1.5-.1.7-.1.9.3 1.2 1 .8zm-15-1.6c.1-.8-.1-1.9-.8-4.3-.2-.7-.4-1.5-.5-1.9-.3-1.3-.6-1.9-.5-.7.1.6.6 3.2.7 3.6.1.2.2.9.2 1.4.2 1.3.3 1.8.6 2.1.2.1.2.1.3-.2zm10.5-4.4c3.5-.8 4.6-5.1 1.8-7.2-1.8-1.3-2.9-1.4-5.6-.5-.6.2-1.1.4-1.1.4-.2.1-.5.6-.5.7 0 .1-.1.4-.2.6-1.3 3.3 2 6.8 5.6 6zm-4.4-2.4c-1.4-.2-1.7-1.4-.6-2.4.8-.8 1.6-.8 2.3-.2 1.3 1.3.2 2.8-1.7 2.6zm17.3 1.8c2.4-.4 3.9-3.1 2.9-5.3-2.3-5.1-10.6-2.6-8.7 2.6.7 2.2 2.8 3.2 5.8 2.7zm-4.6-2.1c-1.1-.3-1.4-1.2-.8-2.4.7-1.4 2.2-1.4 3 0 .5.9.4 1.1-.4 1.1-.7-.1-.9 0-.6.2.2.2.5.4.6.5.1.5-1.1.8-1.8.6zm-11.2-18.8c.2 0 .3-.1.5-.3.2-.1.4-.3.6-.4 1.4-1 1.9-1.4 2.4-1.9.2-.2.7-.6 1.1-1 .5-.4.9-.8 1-.9l.4-.4c.4-.3 1.1-1 1.6-1.4.6-.6 1.9-1.9 1.9-2 0-.1-.4-.2-.9-.2s-.5 0-.5-.1 0-.1-1.3-.2c-10.7-.2-17.8-.6-21.7-1.1-.5-.1-.5-.1-.5 0s.4.5.7.6c.4.2.4.3 0 .3-.4.1-.4 0-.2.8.6 3.3 1.5 4 3.3 2.8 1.1-.7 7.8-1.4 12.3-1.3h1.5c.2 0 .5-.1.6-.1.1 0 .3-.1.3-.1s.1-.1.2-.1.2 0 .3-.1c.5-.2 4.2-.3 4.2-.1l-.6.6c-.1.1-.6.5-1.2.9-.8.6-1.4 1-1.6 1.3l-.6.6c-1.3 1.4-2.6 2.3-3.7 2.6-.2 0-.2.1-.3.2-.1.2-.3.5-.3.6-.1.1-.1.2.1.1.1.4.2.3.4.3zm2.1-.4h.9c1 0 1.8 0 1.8-.1h-.1c-.2 0-.3-.2-.1-.5.2-.3.3-.5 1.8-2.1.6-.6 1.2-1.2 1.3-1.4.9-1.1 1.6-2.1 1.5-2.2 0 0-.7.6-.8.8 0 .1-.2.3-.4.5-.4.4-.4.4-1.1 1.3-.3.3-.5.6-.6.7l-.4.4c-.4.5-1.2 1.2-1.5 1.4-.8.6-1.9 1.2-2.3 1.1-.1 0-.4.1-.4.1.1 0 .4.1.4 0zm10.5-.2c.1-.1.1-.1.7-.1.8 0 1.3-.2 1-.4-.1 0-.1-.1-.1-.2 0-.4-.3-.6-.4-.5-.4.6-.5.6-.7.7-1.4.7-2.2-.9-1.5-2.9.6-1.7.6-1.9.8-2.6.1-.3 0-1-.1-1-.2 0-1.2 3.1-1.6 5.1-.2.9-.2.9-.4 1-.8.5-1.2.3-.9-.7.1-.3.3-1 .5-1.3 0-.1.1-.2.1-.2s0-.1.1-.2c.6-1.4.7-1.9.5-1.9-.6-.2-1.3.3-1.7.9 0 .1-.1.2-.2.3-.1.2-.4.6-.7 1.4-.5 1-.6 1.2-1 1.6-.4.5-.8.7-1.4.8-.4.1-.4.1 0 .1 1.2.3 6.9.2 7 .1zm-5.1-.2c-.2-.1-.3-.5-.2-.8.2-.5.5-1 1.5-2.3.2-.3.5-.6.6-.8.5-.8.6.6.1 1.7-.5 1.2-1.4 2.2-1.8 2.2h-.2zm12-.2c.3 0 .5-.1.5-.1s.2-.1.4-.1h.5c.1 0 .2-.2.1-.2h-.3c-.2.1-.4.1-.9.1-.6.1-2.1 0-2.5-.1-.2 0-.2 0-.2-.3-.1-.5-.3-.7-.7-.6-.3.1-.3.2-.1.3.2.1.4.2.4.3 0 .1-.3.4-.4.4h-.1s-.6.2-.8.3c-.5.1 0 .1 1.7.1 1.2 0 2.2-.1 2.4-.1zm3-2.5c.2 0 .5-.3.5-.5 0-.1-.1-.2-.2-.1-.1 0-.4.1-.5.1h-.3c-.7.1-2.6-.5-3.5-1.1-.1-.1-.2-.1-.2-.1s-.5-.3-.6-.4c-.5-.4.4-.5 1.6-.1.7.3.8.3 1 .4.3.2.3.2.7.3.7.3.8.2.2-.2-.9-.6-1.8-1-2.2-.9-.4.1-1.2-.1-2.1-.5-1.5-.8-2-.9-1.5-.4.7.7 1.5 1.5 2.1 1.9.3.3.8.6.9.6 0 0 .2.1.3.2.3.2 1.1.5 1.4.6.4.1.7.2.9.2.1 0 .3 0 .3.1-.1 0 .9 0 1.2-.1zm-5.4-6.7h.4c.2 0 .9-.2 1.3-.3.2 0 .8-.1 1.4-.2 2.4-.3 3.1-.6 3.6-1.4.3-.3.3-.4 0-.8-.5-.9 0-1.2 1.1-.6.4.2.4.2.4 0s0-.2-.3-.3c-1.3-.3-1.9-1.2-1.2-2 .1-.1.1-.3-.1-.9-.1-.3-.1-.3-.3-.1-.1.1-.2.2-.4.2-.2.1-.2.1 0 .3.6.6-.2 1.4-1.6 1.5-.9.1-1 .1-.6.2.7.2.8.6.2.9-.5.3-.5.3.2.1 1.1-.2 1.9-.2 2 .1.3.8-.3 1.7-1.4 2.1-.3.1-.4.2-1 .3-.3.1-1.1.2-1.1.2h-.1s-.2.1-.4.1c-1.2.1-1.8.2-3.1.4-.7.1-.8.1-.8.2 0 0 .9.1 1.1.1.5 0 .6 0 .7-.1zm3.9-6.4c.2-.1.6-.4.8-.6.9-.6 1.5-1.2 1.7-1.7 0-.1.1-.3.1-.3.1-.1-.1-.6-.2-.5-.3.5-.5.7-.9 1.1-.7.7-.9.9-1 .9-.1.1-.9.9-.9 1.1-.1.3-.1.3.4 0zm-32.4 3.3s.1-.2.2-.3c.2-.3.3-.5.3-.6 0-.2-.1-.2 1-.4 2.4-.5 3.5-.7 5.3-.7 9.8-.2 12.7-.3 15.9-.5.8-.1.8-.1 1 .3.5.7-.9 1.2-2.9 1.1h-2.1c-1.8 0-1.8 0-2.7-.2-1.4-.3-1.8-.3-2.2.1-.2.2-.1.2-.6 0-1.1-.4-2.5-.4-4.8-.1-.8.1-1.7.2-2 .3-1.7.1-3.3.4-5.3 1-.9.2-1.1.2-1.1 0z"/>
  <path fill="#D5AD2D" d="M499.568 734.894c-5.3-.2-9-.9-11.9-2.3-.4-.2-.4-.1-.8-1.7-.8-2.8-1.4-5.4-2.1-8.7-.3-1.7-.5-2.4-1.3-5.6-1.4-5.9-1.9-8.5-2.2-11.3-.1-.7.1-1.7.3-1.9.1-.2.1-.6 0-.6s-.1-.1-.1-.4c0-.3-.1-.4-.1-.5-.1-.1-.1-.2-.1-.3v-1.9.1c0 .6-.4-.5-.6-1.6-.6-3-1.6-5.9-1.4-4.1.1.6.2 1.3.7 2.8.5 1.8.7 3.1.6 3.5-.1.6-1.1-3.1-1.6-6.4-.1-.8-.3-2.1-.5-2.8-.3-1.6-.5-2.7-.8-4-.3-1.3-.3-1.5.1-2 .8-1.1 3.3-1.9 3.5-1.2.2.5-.4.8-1.8 1.1-1.3.3-1.4.5-.7 1.1.7.7 4.6 1.3 9.3 1.4 8.3.3 13.5.3 15 .2.4 0 .9-.1 1.1-.1.5 0 .5 0 .5-.1s0-.2.2-.3c.1-.1.2-.3.3-.4.3-.4.8-.5 1-.3.1.2.1.2-.1.1-.2-.3-.6-.2-.9.3-.1.1-.2.3-.3.4-.3.4 0 .7.5.5.4-.1.7-.5.7-.9v-.1c.1.1-.2.7-.5.9-.2.1-.1.1.3.2.2 0 .5 0 .6.1.4 0 .8-.1.6-.3-.4-.4.4-1.1 1.5-1.5.2-.1.3-.1.4-.1h.1c.1 0 .6-.3 1-.8.5-.5.7-.7.8-.6 0 0-.1.1-.1.2-.7.5-.7.7-.1.4 1-.5 1.4-.6 1.1-.3-.4.4-1.8 1.1-1.9.9 0 0-.1 0-.3.1-.1.1-.5.2-.7.3-.9.3-1.1.4-1.6.9-1.6 1.5 6.9.9 11.5-.8.8-.3.9-.4.9-1-.1-.9-1.9-2-2.4-1.5-.1.1-.2.1-.1 0 .2-.2.7-.2 1.3.1.4.2.4.2.4 0s-.1-.2-.3-.3c-.1 0-.5-.2-.4-.2 0 0 .2 0 .3.1 1 .3 1.3-.2.9-1.2 0-.1-.2-.6-.3-1.1-.6-2.6-2-5.3-2.5-5.3-.1 0-.1 0-.4-.9-.4-1.5-.7-2-1.2-2.4-1.2-.7-1.5-1.9-.3-1.4 2.5 1 5 4.1 6.8 8.4 1.3 3.1 1.7 8.3.8 12.1-.6 2.7-1 6.9-1.4 14.8-.3 5-.4 7.3-.7 9.5-.1.6-.1 1.5-.2 2-.2 2.5-.5 4.8-.9 7.8-.2 1-.2 1.3-.2 2.1 0 3.1-1.2 4.9-3.4 5.2-.2 0-.6.1-1 .2-2.6.8-5.5 1.2-9.3 1.4h-5.6zm-10.8-4.7c-.6-2.3-.9-3.4-1.3-4.2-.4-.9-.5-1.1-.5-.6.2 2.1.8 4.1 1.8 5.9.5.9.5.9 0-1.1zm-1 1.5c.2-.6-.1-1.9-.9-4.2-.4-1.3-.8-2.5-.8-2.9 0-.3-.1-.3-.3-.2-.3.3-.2.8.4 2.9.2.6.3 1.2.4 1.4.3 1.3 1.1 3.5 1.2 3zm15.5-6.8c.8-.5.7-2.1-.2-2.7-.8-.5-1.2.5-.9 2.1.1.7.6.9 1.1.6zm-2.5-.1c.6-.3.8-1.4.4-2.2-.4-.9-1.1-.4-1.3.7 0 .2-.1.5-.1.7-.1.9.3 1.2 1 .8zm-15-1.6c.1-.8-.1-1.9-.8-4.3-.2-.7-.4-1.5-.5-1.9-.3-1.3-.6-1.9-.5-.7.1.6.6 3.2.7 3.6.1.2.2.9.2 1.4.2 1.3.3 1.8.6 2.1.2.1.2.1.3-.2zm10.5-4.4c3.5-.8 4.6-5.1 1.8-7.2-1.8-1.3-2.9-1.4-5.6-.5-.6.2-1.1.4-1.1.4-.2.1-.5.6-.5.7 0 .1-.1.4-.2.6-1.3 3.3 2 6.8 5.6 6zm-4.4-2.4c-1.4-.2-1.7-1.4-.6-2.4.8-.8 1.6-.8 2.3-.2 1.3 1.3.2 2.8-1.7 2.6zm17.3 1.8c2.4-.4 3.9-3.1 2.9-5.3-2.3-5.1-10.6-2.6-8.7 2.6.7 2.2 2.8 3.2 5.8 2.7zm-4.6-2.1c-1.1-.3-1.4-1.2-.8-2.4.7-1.4 2.2-1.4 3 0 .5.9.4 1.1-.4 1.1-.7-.1-.9 0-.6.2.2.2.5.4.6.5.1.5-1.1.8-1.8.6zm-11.2-18.8c.2 0 .3-.1.5-.3.2-.1.4-.3.6-.4.8-.6 1.5-1.1 1.7-1.3.3-.3.4-.3.4-.3l-.3.3c-.1.1-.3.2-.3.3-.1.1-1 .7-1.5 1.1-.5.4-.5.4-.1.4.6 0 .7-.1.7-.2s.2-.2.3-.2c.1 0 .1 0-.1.1-.1 0-.1.1-.1.1 0 .1.3.1.3 0h.9c1 0 1.8 0 1.8-.1h-.1c-.1 0-.2-.1-.2-.2h.1c.1.1.2.1.3.1.2 0 .2 0 .2.1-.1.2 7.3.2 7.4 0 .1-.1.1-.1.7-.1.8 0 1.3-.2 1-.4-.1 0-.1-.1-.1-.2s-.1-.2-.1-.3c-.1-.1-.1-.2-.1-.2.1 0 .1.1.2.4.1.3.1.3.3.3.2 0 .2.1.1.1h.6s.2 0 .4-.1c.6-.1 1.1-.2 1.1-.4 0-.1 0-.1.2-.1.3 0 .2-.3-.1-.4-.2 0-.3-.1-.2-.2 0-.1.3-.2.4-.2v.1c-.3.1-.3.2-.1.3.2.1.4.2.4.3 0 .1-.3.4-.4.4h-.1s-.6.2-.8.3c-.5.1 0 .1 1.7.1 1.9 0 2.7 0 2.8-.2 0 0 .2-.1.4-.1h.5c.1 0 .2-.2.1-.2h-.3l-.5.1s.1-.1.3-.1c1.6-.3 2.8-1.2 3.3-2.4.1-.2.3-.6.5-.9 1.1-2 1.8-3.8 1.6-4.3 0-.1 0-.2-.1-.3-.1-.3-.1-.3-.6-.2-2.4.3-7.1.8-10 1-2 .2-4.8.3-5.3.3-.2 0-.2 0-1 .8-1 1-1.1 1-.1 0l.7-.7c-.1-.1-.7-.2-1-.2-.4 0-.4 0-.4-.1s0-.1-1.3-.2c-10.7-.2-17.8-.6-21.7-1.1-.5-.1-.5-.1-.5 0s.4.5.7.6c.4.2.4.3 0 .3-.4.1-.4 0-.2.8.6 3.3 1.5 4 3.3 2.8 1.1-.7 7.8-1.4 12.3-1.3h1.5c.2 0 .5-.1.6-.1.1 0 .3-.1.3-.1s.1-.1.2-.1.2 0 .3-.1c.5-.2 4.2-.3 4.2-.1l-.6.6c-.1.1-.6.5-1.2.9-.8.6-1.4 1-1.6 1.3l-.6.6c-1.3 1.4-2.6 2.3-3.7 2.6-.2 0-.2.1-.3.2-.1.2-.3.5-.3.6-.1.1-.1.2.1.1-.2.1-.1 0 .1 0zm-11.4-13.3s.1-.2.2-.3c.2-.3.3-.5.3-.6 0-.2-.1-.2 1-.4 2.4-.5 3.5-.7 5.3-.7 9.8-.2 12.7-.3 15.9-.5.8-.1.8-.1 1 .3.5.7-.9 1.2-2.9 1.1h-2.1c-1.8 0-1.8 0-2.7-.2-1.4-.3-1.8-.3-2.2.1-.2.2-.1.2-.6 0-1.1-.4-2.5-.4-4.8-.1-.8.1-1.7.2-2 .3-1.7.1-3.3.4-5.3 1-.9.2-1.1.2-1.1 0z"/>
  <path fill="#28A8DD" d="M499.568 734.894c-5.3-.2-9-.9-11.9-2.3-.4-.2-.4-.1-.8-1.7-.8-2.8-1.4-5.4-2.1-8.7-.3-1.7-.5-2.4-1.3-5.6-1.4-5.9-1.9-8.5-2.2-11.3-.1-.7.1-1.7.3-1.9.1-.2.1-.6 0-.6s-.1-.1-.1-.4c0-.3-.1-.4-.1-.5-.1-.1-.1-.2-.1-.3v-1.9.1c0 .6-.4-.5-.6-1.6-.6-3-1.6-5.9-1.4-4.1.1.6.2 1.3.7 2.8.5 1.8.7 3.1.6 3.5-.1.6-1.1-3.1-1.6-6.4-.1-.8-.3-2.1-.5-2.8-.3-1.6-.5-2.7-.8-4-.3-1.3-.3-1.5.1-2 .8-1.1 3.3-1.9 3.5-1.2.2.5-.4.8-1.8 1.1-1.3.3-1.4.5-.7 1.1.7.7 4.6 1.3 9.3 1.4 8.3.3 13.5.3 15 .2 1.5-.1 1.6-.1 1.8 0 .2.1.2.1.5.1.3-.1.3-.1 1.3 0 .2 0 .3 0 .5-.1s.3-.1.4 0c.3.1 3.4.1 4.4 0 3-.3 6.5-1.1 7.7-1.8.1-.1 1-.3 1.6-.4.6-.1.9-.2 1.2-.3.3-.1.3-.1.3.3.1 1.8-.1 4.6-.4 6-.1.4-.2 1-.4 2-.1.3-.1.7-.1.7v.2c0 .1 0 .5-.1 1-.3 2.6-.5 5.3-.8 11-.3 5-.4 7.3-.7 9.5-.1.6-.1 1.5-.2 2-.2 2.5-.5 4.8-.9 7.8-.2 1-.2 1.3-.2 2.1 0 3.1-1.2 4.9-3.4 5.2-.2 0-.6.1-1 .2-2.6.8-5.5 1.2-9.3 1.4-3.3.2-4.2.2-5.7.2zm-10.8-4.7c-.6-2.3-.9-3.4-1.3-4.2-.4-.9-.5-1.1-.5-.6.2 2.1.8 4.1 1.8 5.9.5.9.5.9 0-1.1zm-1 1.5c.2-.6-.1-1.9-.9-4.2-.4-1.3-.8-2.5-.8-2.9 0-.3-.1-.3-.3-.2-.3.3-.2.8.4 2.9.2.6.3 1.2.4 1.4.3 1.3 1.1 3.5 1.2 3zm15.5-6.8c.8-.5.7-2.1-.2-2.7-.8-.5-1.2.5-.9 2.1.1.7.6.9 1.1.6zm-2.5-.1c.6-.3.8-1.4.4-2.2-.4-.9-1.1-.4-1.3.7 0 .2-.1.5-.1.7-.1.9.3 1.2 1 .8zm-15-1.6c.1-.8-.1-1.9-.8-4.3-.2-.7-.4-1.5-.5-1.9-.3-1.3-.6-1.9-.5-.7.1.6.6 3.2.7 3.6.1.2.2.9.2 1.4.2 1.3.3 1.8.6 2.1.2.1.2.1.3-.2zm13.6-1.5c.5-.2.9-.4 1.5-.4.4 0 .8 0 2 .3 1.5.3 2.4.1 2.3-.5-.2-1.4-1-1.7-3.2-1.4-1.3.2-2.2.2-2.7 0-.4-.1-.4-.1-.7 0-1.1.4-1.1 1.7.1 2.1.2 0 .3.1.3.1s.3-.1.4-.2zm-3.1-2.9c3.5-.8 4.6-5.1 1.8-7.2-1.8-1.3-2.9-1.4-5.6-.5-.6.2-1.1.4-1.1.4-.2.1-.5.6-.5.7 0 .1-.1.4-.2.6-1.3 3.3 2 6.8 5.6 6zm-4.4-2.4c-1.4-.2-1.7-1.4-.6-2.4.8-.8 1.6-.8 2.3-.2 1.3 1.3.2 2.8-1.7 2.6zm17.3 1.8c2.4-.4 3.9-3.1 2.9-5.3-2.3-5.1-10.6-2.6-8.7 2.6.7 2.2 2.8 3.2 5.8 2.7zm-4.6-2.1c-1.1-.3-1.4-1.2-.8-2.4.7-1.4 2.2-1.4 3 0 .5.9.4 1.1-.4 1.1-.7-.1-.9 0-.6.2.2.2.5.4.6.5.1.5-1.1.8-1.8.6zm-11.5-18.7s.2 0 .4-.1c.2 0 .3 0 .3-.1s.1-.1.5-.1c.7 0 .9-.1 1.1-.2.2-.1 2.1-.2 3.3-.1 2.2.1 7.1 0 7.2-.1.1-.1.1-.1.7-.1s.9-.1 1-.2c.1-.1.2-.1 2.4-.1 2.4 0 3.2 0 3.3-.2 0 0 .2-.1.4-.1h2.3c1.8 0 1.8 0 1.9-.1 0-.1.1-.1.5-.1 1-.1 1.3-.1 1.3-.1.1-.1.2-.1.5-.1.4 0 .4 0 .5-.2 0-.1.1-.3.1-.5.1-.2.1-.4.1-1.1 0-.9.1-1.2.2-1.7.1-.4.1-3.2 0-4.2-.1-.7-1.3-.9-2.2-.5-.2.1-3.8.5-6.7.8-2.9.3-6.5.5-8.5.6-.5 0-.8.1-.9.1-.1.1-.2 0-.4 0-.2-.1-.4-.1-.7-.1-.5 0-.5 0-.5-.1s0-.1-1.3-.2c-10.7-.2-17.8-.6-21.7-1.1-.5-.1-.5-.1-.5 0s.4.5.7.6c.4.2.4.3 0 .3-.4.1-.4 0-.2.8.6 3.3 1.5 4 3.3 2.8 1.1-.7 7.8-1.4 12.3-1.3h1.5c.2 0 .5-.1.6-.1.1 0 .3-.1.3-.1s.1-.1.2-.1.2 0 .3-.1c.5-.2 4.2-.3 4.2-.1l-.6.6c-.1.1-.6.5-1.2.9-.8.6-1.4 1-1.6 1.3l-.6.6c-1.3 1.4-2.6 2.3-3.7 2.6-.2 0-.2.1-.3.2-.1.2-.3.5-.3.6.2.5.3.6.5.5zm-11.1-13.4s.1-.2.2-.3c.2-.3.3-.5.3-.6 0-.2-.1-.2 1-.4 2.4-.5 3.5-.7 5.3-.7 9.8-.2 12.7-.3 15.9-.5.8-.1.8-.1 1 .3.5.7-.9 1.2-2.9 1.1h-2.1c-1.8 0-1.8 0-2.7-.2-1.4-.3-1.8-.3-2.2.1-.2.2-.1.2-.6 0-1.1-.4-2.5-.4-4.8-.1-.8.1-1.7.2-2 .3-1.7.1-3.3.4-5.3 1-.9.2-1.1.2-1.1 0z"/>
  <path fill="#3698A6" d="M499.568 734.894c-5.3-.2-9-.9-11.9-2.3-.4-.2-.4-.1-.8-1.7-.8-2.8-1.4-5.4-2.1-8.7-.3-1.7-.5-2.4-1.3-5.6-1.4-5.9-1.9-8.5-2.2-11.3-.1-.8.1-1.7.3-2 .2-.2.2-.5 0-.6-.1-.1-.1-.2-.1-.5 0-.2-.1-.4-.1-.5-.1-.1-.1-.4-.2-1.4 0-.4 0-.8-.1-.8 0 0-.1.1-.1.2 0 .5-.4-.5-.6-1.6-.6-3-1.6-5.9-1.4-4.1.1.6.2 1.3.7 2.8.5 1.8.7 3.1.6 3.5-.1.6-1.1-3.1-1.6-6.4-.1-.8-.3-2.1-.5-2.8-.3-1.6-.5-2.7-.8-4-.3-1.3-.3-1.5.1-2 .8-1.1 3.3-1.9 3.5-1.2.2.5-.4.8-1.8 1.1-1.3.3-1.4.5-.7 1.1.7.7 4.6 1.3 9.3 1.4 8.3.3 13.5.3 15 .2 1.5-.1 1.6-.1 1.8 0 .2.1.2.1.5.1.3-.1.3-.1 1.3 0 .2 0 .3 0 .5-.1s.3-.1.4 0c.3.1 3.4.1 4.4 0 3-.3 6.5-1.1 7.7-1.8.1-.1 1-.3 1.6-.4.6-.1.9-.2 1.2-.3.3-.1.3-.1.3.3.1 1.8-.1 4.6-.4 6-.1.4-.2 1-.4 2-.1.3-.1.7-.1.7v.2c0 .1 0 .5-.1 1-.3 2.6-.5 5.3-.8 11-.3 5-.4 7.3-.7 9.5-.1.6-.1 1.5-.2 2-.2 2.5-.5 4.8-.9 7.8-.2 1-.2 1.3-.2 2.1 0 3.1-1.2 4.9-3.4 5.2-.2 0-.6.1-1 .2-2.6.8-5.5 1.2-9.3 1.4-3 .3-3.9.3-5.4.3zm-10.8-4.7c-.6-2.3-.9-3.4-1.3-4.2-.4-.9-.5-1.1-.5-.6.2 2.1.8 4.1 1.8 5.9.5.9.5.9 0-1.1zm-1 1.5c.2-.6-.1-1.9-.9-4.2-.4-1.3-.8-2.5-.8-2.9 0-.3-.1-.3-.3-.2-.3.3-.2.8.4 2.9.2.6.3 1.2.4 1.4.3 1.3 1.1 3.5 1.2 3zm15.5-6.8c.8-.5.7-2.1-.2-2.7-.8-.5-1.2.5-.9 2.1.1.7.6.9 1.1.6zm-2.5-.1c.6-.3.8-1.4.4-2.2-.4-.9-1.1-.4-1.3.7 0 .2-.1.5-.1.7-.1.9.3 1.2 1 .8zm-15-1.6c.1-.8-.1-1.9-.8-4.3-.2-.7-.4-1.5-.5-1.9-.3-1.3-.6-1.9-.5-.7.1.6.6 3.2.7 3.6.1.2.2.9.2 1.4.2 1.3.3 1.8.6 2.1.2.1.2.1.3-.2zm13.6-1.5c.5-.2.9-.4 1.5-.4.4 0 .8 0 2 .3 1.5.3 2.4.1 2.3-.5-.2-1.4-1-1.7-3.2-1.4-1.3.2-2.2.2-2.7 0-.4-.1-.4-.1-.7 0-1.1.4-1.1 1.7.1 2.1.2 0 .3.1.3.1s.3-.1.4-.2zm-3.1-2.9c3.5-.8 4.6-5.1 1.8-7.2-1.8-1.3-3-1.4-5.9-.4l-.9.3s0 .1-.1.1c-.1.1-.3.4-.3.6 0 .1-.1.4-.2.7-1.3 3.2 2 6.7 5.6 5.9zm-4.4-2.4c-1.4-.2-1.7-1.4-.6-2.4.8-.8 1.6-.8 2.3-.2 1.3 1.3.2 2.8-1.7 2.6zm17.3 1.8c2.4-.4 3.9-3.1 2.9-5.3-2.3-5.1-10.6-2.6-8.7 2.6.7 2.2 2.8 3.2 5.8 2.7zm-4.6-2.1c-1.1-.3-1.4-1.2-.8-2.4.7-1.4 2.2-1.4 3 0 .5.9.4 1.1-.4 1.1-.7-.1-.9 0-.6.2.2.2.5.4.6.5.1.5-1.1.8-1.8.6zm-2.7-15.6c0-.1 0-.2-.1-.4-.9-1.4.1-3.4 1.5-3 .6.2.6.5 0 1.7-.5 1.2-.5 1.4.3 1.4.5 0 .5 0 .6-.8.1-2.3.8-3 2.3-2.5.4.1.4.1.5.6.4 1.7 1 2.2 2.6 2.1 1.1-.1 1.4-.3 1.8-1.7.4-1.2.6-1.5 1.4-1.6.2 0 .4-.1.5-.1.5-.1 1 0 1.1.2.1.2.2.1.1-.2 0-.2 0-.2 1.7-.2s1.8 0 1.8-.1.1-.1.5-.1c1-.1 1.3-.1 1.3-.1.1-.1.2-.1.5-.1.4 0 .4 0 .5-.2 0-.1.1-.3.1-.5.1-.2.1-.4.1-1.1 0-.9.1-1.2.2-1.7.1-.4.1-3.2 0-4.2-.1-.7-1.3-.9-2.2-.5-.2.1-3.8.5-6.7.8-2.9.3-6.5.5-8.5.6-.5 0-.8.1-.9.1-.1.1-.2 0-.4 0-.2-.1-.4-.1-.7-.1-.5 0-.5 0-.5-.1s0-.1-1.3-.2c-10.7-.2-17.8-.6-21.7-1.1-.5-.1-.5-.1-.5 0s.4.5.7.6c.4.2.4.3 0 .3-.4.1-.4 0-.2.8.6 3.3 1.5 4 3.3 2.8.9-.6 4.4-1.1 9.4-1.3 4-.2 3.1.1-2.2.6-2.6.3-3.8.4-5.1.7-.3.1-.6.1-.8.1-1.5.1-3 2-2.2 2.8.2.3.6.4 1.2.4.3 0 .5 0 .5.1 0 0 .3.1.7.1.7.1.9.2.9.3 0 .1.1.1.5.1s.5 0 .5.1c.1.1.1.1.4.1.3 0 .4 0 .4.1s.1.1.2.1h.5c.2 0 .3 0 .3.1.1.1.1.1 1 .1.8 0 .9 0 1 .1.1.1.5.1.5 0 0-.2.8-.3 1.8-.3.7 0 1 0 1.3-.1.6-.1.6-.1.3.4-.1.1-.2.3-.2.3 0 .1-.1.1-.2.2l-.3.3c-.1.2-.2.3-.4.4-.8.4-1.4 1-1 1 .1 0 .2 0 .3.1.1.1.1.1.2 0 .1 0 .2-.1.2-.1s.1-.1.2-.3c.3-.5 1.6-1.7 1.7-1.6 0 0 .1 0 .1-.1s.1-.1.5-.1c.6 0 1-.1 1-.1s.2 0 .4.1c.5.2.6.4.1.7-.8.4-.9 1.3-.3 2.1.5.6 1.5.5.9-.1-1-1.2-.3-2.2 1.8-2.6 1.3-.2 3.3.2 2.9.6-.3.4-.3.9 0 2.2.1.3.1.6.1.7.6.6 1.2.5 1.2.3zm6.7-1.6c-1.3-.5-1.3-1.9 0-1.9.4 0 .4 0 .7-.1.9-.4 1.8.3 1.6 1.2-.2.6-.5.8-1.3.8-.7.1-.8.1-1 0zm-26.6-14.9s.1-.2.2-.3c.2-.3.3-.5.3-.6 0-.2-.1-.2 1-.4 2.4-.5 3.5-.7 5.3-.7 9.8-.2 12.7-.3 15.9-.5.8-.1.8-.1 1 .3.5.7-.9 1.2-2.9 1.1h-2.1c-1.8 0-1.8 0-2.7-.2-1.4-.3-1.8-.3-2.2.1-.2.2-.1.2-.6 0-1.1-.4-2.5-.4-4.8-.1-.8.1-1.7.2-2 .3-1.7.1-3.3.4-5.3 1-.9.2-1.1.2-1.1 0z"/>
  <path fill="#008ECF" d="M500.368 734.894c-6-.3-8.8-.8-11.8-1.9-1.3-.5-1.3-.5-1.4-.9-.8-2.6-1.6-6-2.3-9.5-.4-2-.5-2.6-1.4-6.1-2.1-8.7-2.6-12.3-1.9-13.1.2-.2.2-.6 0-.7-.1-.1-.1-.2-.1-.5 0-.2-.1-.4-.1-.5-.1-.1-.1-.4-.2-1.4 0-.6 0-.8-.1-.8-.1-.1-.1 0-.1.1 0 .4-.4-.7-.6-1.8-.7-3.3-1.8-6.3-1.3-3.4.1.5.3 1.4.7 2.7.3 1.1.5 1.9.5 2.5.2 2.1-.9-2.1-1.5-5.7-.8-4.9-1-6.1-1.5-7.5-.2-.6-.1-1 .4-1.5 1.1-1.1 3.5-1.7 3.3-.9-.1.4-.6.6-1.8.9-1.3.3-1.4.5-.7 1.2.6.6 3.6 1.1 7.2 1.4.7 0 1.4.1 5.5.2 5.4.2 10.4.2 11.7.1 1.5-.1 1.6-.1 1.9 0 .2.1.2.1.4.1s.4 0 1.4.1c.2 0 .3 0 .5-.1s.3-.1.4-.1c.3.1 3.4.1 4.4 0 3-.3 6.5-1.1 7.7-1.8.1-.1 1-.3 1.6-.4.6-.1.9-.2 1.2-.3.4-.2.5 2 .2 4.2-.2 1.2-.2 1.5-.3 1.9-.1.2-.1.6-.2.7-.5 2.3-.9 7-1.3 14.5-.3 5.4-.4 7.4-.7 10.2 0 .5-.1 1-.1 1.3-.1 2.1-.4 4.6-1 8-.2 1.1-.2 1.4-.2 1.7.2 2.9-1.1 5.1-3.4 5.4-.2 0-.8.2-1.2.3-2.2.6-4.8 1-8.1 1.2-2.1.1-5.1.2-5.7.2zm-.2-.7c.2-.2-.3-.2-2.5-.4-.5 0-1.2-.1-1.5-.1-1.7-.2-3.1-.2-2.6 0 1 .3 6.4.8 6.6.5zm-10.9-2.3c0-.1-.8-3.4-1-4.1-.4-1.3-1.1-2.9-1.2-2.9-.2 0 .2 2.2.6 3.5.4 1.6 1.6 4.1 1.6 3.5zm-1.4-.2c.2-.7-.1-1.9-.8-4.2-.4-1.3-.8-2.5-.8-2.9 0-.3-.1-.4-.2-.3-.4.2-.3.8.3 2.9.2.5.3 1.2.4 1.4.1 1.6.9 3.8 1.1 3.1zm15.4-6.7c.7-.5.9-1.5.3-2.3-.9-1.3-1.9 0-1.4 1.8.2.6.6.8 1.1.5zm-2.5-.2c.8-.4.9-1.9.2-2.7-.4-.4-1 .2-1.1 1.2 0 .2-.1.5-.1.6-.2.9.3 1.3 1 .9zm-15-1.6c.1-.7-.1-2-.7-4.1-.2-.8-.5-1.8-.6-2.3-.2-1-.6-1.8-.6-1.1 0 .3.5 3.1.8 4.1.1.3.2.9.2 1.4.2 1.4.3 1.8.6 2.1.2.3.3.2.3-.1zm13.7-1.5c.8-.4 1.5-.5 3.3-.1 2.4.5 3.3-.2 2.1-1.5-.5-.5-1-.6-2.8-.3-1.2.2-2.2.2-2.6 0-.5-.2-.9-.1-1.3.3-.7.7-.2 1.7.9 1.9 0-.1.2-.2.4-.3zm-3.1-2.8c.5-.1.6-.2 1.4-.7 2.6-1.6 2.6-5.3 0-6.8l-.6-.3c-1.3-.7-2.5-.7-4.9.2-.4.2-.9.3-.9.3-.1 0-.1 0-.2.1 0 .1-.1.1-.1.1-.1 0-.3.4-.3.6 0 .1-.1.4-.2.6-1.3 3.2 2.2 6.8 5.8 5.9zm-4.6-2.6c-1.2-.2-1.4-1.3-.5-2.3.7-.8 1.6-.9 2.2-.2 1.4 1.3.3 2.8-1.7 2.5zm17.5 1.9c2.9-.6 4.1-3.7 2.3-6.2-2.7-3.8-9.2-1.6-8.4 2.8.4 2.7 2.9 4 6.1 3.4zm-4.7-2.1c-1.3-.2-1.5-1.8-.4-2.9.9-.9 2.3-.4 2.7 1.1.1.5.1.5-.6.5-.8 0-.9 0-.4.4.4.3.5.5.4.6-.2.2-1.1.4-1.7.3zm0-11c.3 0 .7 0 .8-.1h1.6c.1 0 .6-.1 1.3-.2 3-.5 5.1-1.5 7.4-3.4l.3-.3c.1-.1.3-.2.4-.3l.5-.5c.2-.1.4-.4.5-.5.5-.4 1-.9 1.4-1.3.1-.1.3-.2.3-.3s.2-.2.4-.3c.2-.1.2-.2.2-.3 0-.1 0-.1.2-.1.1 0 .2 0 .2-.1s.1-.1.1-.1c.1 0 .1-.1.1-.3 0-.2 0-.2.1-.3.1 0 .1-.1.1-.1 0-.1.1-.1.1-.1.1 0 .1-.1.1-.3 0-.1 0-.3.1-.3 0 0 .1-.1.1-.2s.1-.3.1-.4c.1-.2.1-.4.1-1.1 0-.9.1-1.2.2-1.7.1-.4.1-3.2 0-4.2-.1-.7-1.3-.9-2.2-.5-.2.1-3.8.5-6.7.8-2.2.2-5 .4-7 .5-.5 0-1.2.1-1.6.1-.9.1-1.1.1-1.2 0 0 0-.2-.1-.6-.1-.5 0-.5 0-.5-.1s-.1-.2-1.4-.2c-11.3-.3-17.5-.6-21.7-1.1-.5-.1-.5-.1-.5 0s.4.5.7.7c.3.2.3.2.1.3-.4.1-.4 0-.2 1.1.6 3.1 1.6 3.9 3.3 2.7.5-.4 3.5-.9 6.3-1.1 1.2-.1 1.4-.1 3-.2 1.9-.1 2.3-.1 2.2 0-.1.1-1.7.3-3.1.4-4.1.4-4.6.5-6.1.8-.4.1-1 .2-1.2.2-2.4.3-3.3 3.1-1 3.3.8.1 2.1.4 2.1.5 0 .1.1.1.5.1s.5 0 .5.1c.1.1.1.1.4.1.3 0 .4 0 .4.1s.1.1.2.1h.5c.2 0 .3 0 .3.1.1.1.1.1 1 .1.8 0 .9 0 1 .1.1.1.5.1.6 0 .2-.2.9-.3 1.7-.3.7 0 1.4-.1 1.7-.2.2-.1-.3.8-.5.9-.1 0-.1.1-.1.1 0 .2-.3.5-.5.6-1.9.9-2 2.9-.1 4.1 1.2.8 1.5.9 2 1.2 1.2.6 2.9 1.1 4.2 1.3h.3c.1 0 .5.1.8.1h1.5c.4.1 3.5.1 4.2.1zm-22.6-21.1s.1-.2.2-.3c.2-.3.3-.5.3-.6 0-.1 0-.1.1-.2 2.2-.5 4.4-.8 6.1-.9 10.7-.2 12.9-.3 15.9-.5.8-.1.8-.1 1 .2.5.8-.3 1-2.8 1-4.1 0-3.8 0-4.9-.2-1.4-.3-1.8-.3-2.2.1-.1.1-.1.1-.6 0-1.2-.4-2.3-.4-4.9 0-.9.1-1.9.3-2.2.3-1.2.1-2.5.3-4.5.8-1.3.4-1.5.4-1.5.3z"/>
  <path fill="#1B6F95" d="M500.368 734.894c-6-.3-8.8-.8-11.8-1.9-1.3-.5-1.3-.5-1.4-.9-.8-2.6-1.6-6-2.3-9.5-.4-2-.5-2.6-1.4-6.1-2.1-8.7-2.6-12.3-1.9-13.1.2-.3.4 0 .6 1 1.1 5.4 3 12.5 4.4 16.7.5 1.6.4 1.4.8 1.4s.4 0 .2.4c-.4.9-.2 1.3 1 2.3.5.4.4.6-.2.5-.4-.1-.4-.1-.2.5.1.3.2.7.2 1 .8 3.8 1.6 5.2 3.3 5.5 5.1 1.1 11 1.2 18.8.6 3.1-.3 5.4-1.2 6.2-2.5.2-.3.2-.3-.1-.3-.5-.1-.5-.2 0-.4.8-.3 1.1-.6 1.1-1.1 0-.2 0-.4.1-.7.3-1 .4-1.7.3-3.6-.1-1.6 0-2.2.1-2.8.2-.9.3-1.8.5-4.1.1-1.6.2-2.4.3-3.1.1-.7.2-1.3.2-3 .1-1.9.1-2.6.3-3.5.1-1.1.2-1.2.4-1.5.4-.4.4-.7-.1-1.3-.7-1-.7-1.5 0-2 .2-.2.3-.6.1-2.8-.2-2.3-.2-3.1 0-3.1.1 0 .2 0 .2-.1s.1-.1.1-.1c.1 0 .1-.1.1-.3 0-.2 0-.2.1-.3.1 0 .1-.1.1-.1 0-.1.1-.1.1-.1.1 0 .1-.1.1-.3 0-.1 0-.3.1-.3 0 0 .1-.1.1-.2s.1-.3.1-.4c.1-.2.1-.4.1-1.1 0-.9.1-1.2.2-1.7.1-.4.1-3.2 0-4.2-.1-.7-1.3-.9-2.2-.5-.2.1-3.8.5-6.7.8-2.2.2-5 .4-7 .5-.5 0-1.2.1-1.6.1-.9.1-1.1.1-1.2 0 0 0-.2-.1-.6-.1-.5 0-.5 0-.5-.1s-.1-.2-1.4-.2c-11.3-.3-17.5-.6-21.7-1.1-.5-.1-.5-.1-.5 0s.4.5.7.7c.3.2.3.2.1.3-.4.1-.4 0-.2 1.1.6 3.1 1.6 3.9 3.3 2.7.5-.4 3.5-.9 6.3-1.1 1.2-.1 1.4-.1 3-.2 1.9-.1 2.3-.1 2.2 0-.1.1-1.7.3-3.1.4-4.1.4-4.6.5-6.1.8-.4.1-1 .2-1.2.2-2.4.3-3.3 3.1-1 3.3.4 0 1.9.3 2 .4.2.1.1.2-.1.3-.2.1-.2.1 0 .2s.2.1.1.2-.1.1-1.5-.3c-1.7-.5-2.1-.5-1.6-.2.4.3.3.4-.1.3-.4-.1-.4-.2-.2.9 0 .3.1.6.1.7 0 .1 0 .3.1.5.2.8.2 1.3 0 1.1-.1-.1-.4-1-.5-1.8-.7-3.3-1.8-6.3-1.3-3.4.1.5.3 1.4.7 2.7.3 1.1.5 1.9.5 2.5.2 2.1-.9-2.1-1.5-5.7-.8-4.9-1-6.1-1.5-7.5-.2-.6-.1-1 .4-1.5 1.1-1.1 3.5-1.7 3.3-.9-.1.4-.6.6-1.8.9-1.3.3-1.4.5-.7 1.2.6.6 3.6 1.1 7.2 1.4.7 0 1.4.1 5.5.2 5.4.2 10.4.2 11.7.1 1.5-.1 1.6-.1 1.9 0 .2.1.2.1.4.1s.4 0 1.4.1c.2 0 .3 0 .5-.1s.3-.1.4-.1c.3.1 3.4.1 4.4 0 3-.3 6.5-1.1 7.7-1.8.1-.1 1-.3 1.6-.4.6-.1.9-.2 1.2-.3.4-.2.5 2 .2 4.2-.2 1.2-.2 1.5-.3 1.9-.1.2-.1.6-.2.7-.5 2.3-.9 7-1.3 14.5-.3 5.4-.4 7.4-.7 10.2 0 .5-.1 1-.1 1.3-.1 2.1-.4 4.6-1 8-.2 1.1-.2 1.4-.2 1.7.2 2.9-1.1 5.1-3.4 5.4-.2 0-.8.2-1.2.3-2.2.6-4.8 1-8.1 1.2-1.9-.3-4.9-.2-5.5-.2zm-.2-.7c.2-.2-.3-.2-2.5-.4-.5 0-1.2-.1-1.5-.1-1.7-.2-3.1-.2-2.6 0 1 .3 6.4.8 6.6.5zm-10.9-2.3c0-.1-.8-3.4-1-4.1-.4-1.3-1.1-2.9-1.2-2.9-.2 0 .2 2.2.6 3.5.4 1.6 1.6 4.1 1.6 3.5zm-1.4-.2c.2-.7-.1-1.9-.8-4.2-.4-1.3-.8-2.5-.8-2.9 0-.3-.1-.4-.2-.3-.4.2-.3.8.3 2.9.2.5.3 1.2.4 1.4.1 1.6.9 3.8 1.1 3.1zm-2.1-8.5c.1-.7-.1-2-.7-4.1-.2-.8-.5-1.8-.6-2.3-.2-1-.6-1.8-.6-1.1 0 .3.5 3.1.8 4.1.1.3.2.9.2 1.4.2 1.4.3 1.8.6 2.1.2.3.3.2.3-.1zm10 4.5c-.1 0-.3 0-.5-.1s-1.1-.2-1.9-.3c-1.7-.3-2.6-.5-3.1-.5s-.7-.2-.4-.5c.2-.2.7-.2 2 .2.9.3 1.6.4 2 .5.2 0 .5.1.8.1.4.1 3 .4 3.3.4 0 0 .1 0 .1.1.1.1-1.8.2-2.3.1zm4.3-2c-.6-.3-.8-.7-1-1.9-.2-1.5-.4-1.9-1.5-2.1-.3-.1-.3-.9-.1-1.4.2-.5.8-1.1 1.7-1.9.2-.2.6-.5.7-.6.4-.3.4-.4 1.3-.3 2 0 4.1 1.6 4.8 3.7.2.5.1.6-.7 1.1-1.1.7-1.3 1.1-1.2 1.9.2 1.2-.3 1.6-1.8 1.2-1-.3-1.4-.2-1.7.2-.1.2-.2.2-.5.1zm3.2-.7c.7-.5.9-1.5.3-2.3-.9-1.3-1.9 0-1.4 1.8.2.6.6.8 1.1.5zm-2.5-.2c.8-.4.9-1.9.2-2.7-.4-.4-1 .2-1.1 1.2 0 .2-.1.5-.1.6-.2.9.3 1.3 1 .9zm-1.3-3.1c.8-.4 1.5-.5 3.3-.1 2.4.5 3.3-.2 2.1-1.5-.5-.5-1-.6-2.8-.3-1.2.2-2.2.2-2.6 0-.5-.2-.9-.1-1.3.3-.7.7-.2 1.7.9 1.9 0-.1.2-.2.4-.3zm-5.3-2.2c-3.2-.5-5.4-4.1-4.1-6.7.5-1.1 1-1 .6.1-1.4 3.5 2.9 7.4 6.3 5.7 3.3-1.6 3.8-5.6.8-7.3l-.6-.3c-1.2-.7-2.4-.7-4.8.2-.8.3-.9.3-1 .3-.1 0-.1-.1.2-.4 2.7-2.8 8.5-.8 8.8 3 .3 3.3-2.7 6-6.2 5.4zm13.2-.3c-4-.4-6.4-4.3-4.6-7.2 2.5-4 8.3-3.4 10 .9 1.2 3.2-1.7 6.6-5.4 6.3zm1.9-1c2.9-.6 4.1-3.7 2.3-6.2-2.7-3.8-9.2-1.6-8.4 2.8.4 2.7 2.9 4 6.1 3.4zm-4.7-2.1c-1.3-.2-1.5-1.8-.4-2.9.9-.9 2.3-.4 2.7 1.1.1.5.1.5-.6.5-.8 0-.9 0-.4.4.4.3.5.5.4.6-.2.2-1.1.4-1.7.3zm-12.8.2c-1.2-.2-1.4-1.3-.5-2.3.7-.8 1.6-.9 2.2-.2 1.4 1.3.3 2.8-1.7 2.5zm-9.8-32.3s.1-.2.2-.3c.2-.3.3-.5.3-.6 0-.1 0-.1.1-.2 2.2-.5 4.4-.8 6.1-.9 10.7-.2 12.9-.3 15.9-.5.8-.1.8-.1 1 .2.5.8-.3 1-2.8 1-4.1 0-3.8 0-4.9-.2-1.4-.3-1.8-.3-2.2.1-.1.1-.1.1-.6 0-1.2-.4-2.3-.4-4.9 0-.9.1-1.9.3-2.2.3-1.2.1-2.5.3-4.5.8-1.3.4-1.5.4-1.5.3z"/>
  <path fill="#0C0E0E" d="M500.268 734.894c-6-.3-8.9-.8-11.8-2-1.2-.5-1.2-.5-1.3-.9-.7-2.3-1.6-6-2.4-9.6-.4-2.1-.6-2.8-1.4-6.2-2-8.5-2.6-12.9-1.8-12.9.2 0 .3.2.6 1.8 1.5 6.6 3.1 12.6 4.4 16.4.4 1.1.3 1 .7 1 .4 0 .4 0 .2.4-.3.8-.1 1.3.9 2.2.6.5.6.6 0 .5-.5-.1-.4-.1-.3.3.1.2.2.8.3 1.4.8 3.8 1.6 5.1 3.3 5.4 5.1 1 11.4 1.2 19.3.5 2.7-.2 5.2-1.3 5.8-2.6.1-.3.1-.3-.2-.3-.5-.1-.5-.1.1-.3.8-.3 1-.6 1-1.1 0-.2 0-.5.1-.8.3-1 .4-1.9.3-3.7-.1-1.4 0-2 .1-2.6.2-1.1.3-2 .5-4.6.1-.8.2-1.9.2-2.5.1-1.1.2-1.8.2-2.8.1-2.9.2-3.9.4-4.9.1-.3.1-.3.3-.5.4-.4.4-.7-.1-1.4-.6-.9-.6-1.2 0-1.9.3-.3.3-.8.1-3.1-.1-1.7-.1-2.7 0-2.8.1 0 .1-.1.2-.1 0-.1.1-.1.1-.1s.1-.1.1-.3c0-.2 0-.2.1-.3.1 0 .1-.1.1-.1s0-.1.1-.1c.1-.1.2-.3.2-.5 0-.1 0-.4.2-.8.1-.2.1-.4.1-1.1 0-.9.1-1.2.2-1.7.1-.4.1-3.2 0-4.2-.1-.7-1.3-.9-2.2-.5-.2.1-3.8.5-6.7.8-2.9.3-6.5.5-8.5.6-.4 0-.8 0-.9.1h-.3c-.4-.1-.6-.1-.9-.1-.3 0-.3 0-.3-.1 0-.2.4-.1-7.1-.3-6.9-.2-11.1-.4-14.7-.8-1.9-.2-1.9-.2-1.7.1.1.2.4.4.6.5.3.1.3.2-.1.2-.3 0-.3 0-.2.9.6 3.3 1.5 4.1 3.4 2.8.6-.4 3.4-.9 6.3-1.1 1.8-.1 4.9-.2 4.8-.2-.1.1-1.8.3-4.3.5-2.2.2-3.6.4-4.6.6-.2.1-.6.1-.8.1-2.7.2-3.7 3.2-1.2 3.4.3 0 .5.1.6.1s.3.1.7.1c.8.2.9.2.5.4-.2.1-.2.1 0 .3.3.2.1.2-.7-.1-2.3-.7-2.8-.7-2.2-.2.3.2.3.3-.1.2-.2 0-.3-.1-.3 0-.1.1.1 1 .4 3.1.1.7-.3-.3-.5-1.2-.5-2.7-1.3-5.2-1.6-4.9-.1.2.2 1.7.7 3.4.5 1.7.7 2.7.7 3.3 0 1-1-3-1.5-6-.1-.6-.3-1.8-.4-2.7-.3-1.8-.5-2.9-.8-4-.3-1.1-.3-1-.3-1.1-.2-.2 0-.9.4-1.3.9-1.1 3.3-1.7 3.3-.9 0 .4-.5.6-1.8.9-1.2.3-1.4.5-.6 1.2.2.2.3.3 1.5.6 2.3.5 4.6.8 8.7.9 1 0 2.5.1 3.3.1 4.3.1 9.1.2 10.4.1 1.8-.1 2.1-.1 2.3 0 .2.1.2.1.4 0h.3c.1 0 .2.1.5.1.2 0 .5.1.6.1.2 0 .6-.1.7-.2.1 0 .1-.1.2 0 .3.1 3.4.1 4.4 0 3-.3 6.5-1.1 7.7-1.8.1-.1 1-.3 1.6-.4.7-.1.9-.2 1.1-.3.2-.1.3-.1.3 0 .1.1.2 2.7 0 3.5 0 .2-.1.7-.1 1.1s-.2 1.2-.3 1.7c-.2.8-.4 2.3-.5 3-.4 2.9-.6 6.1-.9 11.2-.3 6.2-.5 7.9-.8 11-.1.6-.1 1.3-.1 1.6-.1 1.8-.4 4.4-.9 7.7-.2 1-.2 1.3-.2 1.9 0 3.1-1.1 4.9-3.4 5.2-.2 0-.5.1-.8.2-2.4.8-6 1.3-10.3 1.4-.4 0-1 0-1.3.1h-2.4zm-.1-.6c.5-.2-.3-.3-2.4-.5-.4 0-1.1-.1-1.5-.1-1.9-.2-3.1-.2-2.7 0 .6.3 6 .8 6.6.6zm-10.9-2.3c0-.8-1.5-5.8-2.1-6.8-.6-1.1 0 2.3.7 4.3.7 1.5 1.4 2.9 1.4 2.5zm-1.4-.5c0-1.1-.1-1.7-.8-4-.5-1.6-.7-2.1-.8-2.8-.1-.6-.2-.7-.4-.4-.3.3-.2.8.3 2.7.3 1.1.4 1.5.5 2 .1.8.7 2.5 1.1 2.9 0 .1.1-.1.1-.4zm-2.1-8.1c.2-.5-.1-2.1-.7-4.2-.4-1.4-.5-2-.6-2.6-.1-.7-.5-1.3-.5-1-.1.2.5 3.5.8 4.3 0 .1.1.7.2 1.2.1 1.8.6 2.9.8 2.3zm10.2 4.3c-.5 0-1.5-.2-2.7-.4-1.4-.3-1.9-.4-2.8-.4-.6-.1-.6-.1-.7-.2 0-.5.4-.5 2 0 1.2.3 1.5.4 1.9.5.2 0 .5.1.7.1.4.1 1.2.2 2.3.3 1 .1 1.1.1 1 .2-.1-.1-1.3-.1-1.7-.1zm4.1-2.1c-.6-.3-.8-.7-.9-1.9-.1-.9-.2-1.2-.5-1.5-.2-.2-.5-.4-.8-.4-1-.1-.4-1.7 1.3-3.1.3-.3.7-.6.9-.8.4-.3.5-.4 1.2-.4 2 0 4 1.6 4.7 3.6.2.5.2.5-.8 1.1-1.1.7-1.3 1.1-1.1 2.1.2.9-.5 1.3-1.7 1-.8-.3-1.5-.2-1.8.2-.2.2-.3.2-.5.1zm3-.5c1.3-.5.8-3.2-.5-3-.8.1-.9 2.4-.2 2.9.3.1.5.2.7.1zm-2.3-.2c.8-.4 1-2.1.2-2.8-.4-.3-1 .2-1.1.9 0 .1-.1.4-.1.7-.2 1.2.1 1.5 1 1.2zm-1.3-3.2c.8-.4 1.5-.5 3.1-.1 1.7.3 2.8.2 2.8-.3s-.3-1.1-.5-1.3c-.5-.5-1-.5-3.3-.1-.9.1-1.8.1-2.3-.1-.3-.1-.9.2-1.2.6-.6.7.5 1.9 1.4 1.3zm-5.2-2.2c-3.4-.5-5.7-4.5-4-6.9.5-.7.7-.5.4.3-1.4 3.6 2.9 7.5 6.5 5.7 3.4-1.7 3.6-5.7.4-7.4-.2-.1-.5-.3-.6-.3-1-.6-2.4-.5-4.8.4-.8.3-.8.3-.4-.2 1.8-1.7 5.3-1.5 7.3.5 3.2 3.2 0 8.6-4.8 7.9zm13.2-.4c-3.8-.3-6.3-3.8-4.9-6.7 2.3-4.5 8.8-3.8 10.2 1.1.9 2.8-2.1 5.9-5.3 5.6zm.7-.8c3.9.1 5.6-4.3 2.7-7.1-2.1-2-6.2-1.4-7.5 1.1-1.4 2.7.8 6.2 3.8 6h1zm-3.7-2.3c-1-.3-1.2-1.4-.6-2.4.9-1.3 2.4-1 2.9.6.2.6.1.6-.5.6-.8-.1-1 .1-.5.4.6.4.6.6.4.7-.4.1-1.3.2-1.7.1zm-12.4.3c-1.2-.1-1.6-.8-1.2-1.8.6-1.1 1.8-1.5 2.6-.8 1.2 1.3.4 2.8-1.4 2.6zm-10.1-32.3s.1-.2.2-.3c.2-.3.3-.5.3-.6 0-.1.1-.1 1.1-.3 3.1-.6 2.7-.6 10-.7 5.6-.1 8.6-.2 11.1-.4.7-.1.8 0 1 .4.2.7-.4.8-4 .8-3.1 0-2.6 0-4.5-.3-.8-.2-1.3-.1-1.6.2-.1.1-.2.1-.5 0-.7-.2-1.2-.3-2.2-.3-1 0-1.1 0-3.3.3-.5.1-1.2.2-1.5.2-1.5.1-3 .4-5.3 1-.7.1-.7.1-.8 0z"/>
  <path d="M503.1 725.1c1.3-.5.8-3.2-.5-3-.8.1-.9 2.4-.2 2.9.3.2.4.2.7.1zm-2.3-.2c.8-.4 1-2.1.2-2.8-.4-.3-1 .2-1.1.9 0 .1-.1.4-.1.7-.2 1.3.1 1.6 1 1.2z" fill="#FFF"/>
</svg>
