<svg width="64" height="14.5" viewBox="-10 -5 1717 379" xmlns="http://www.w3.org/2000/svg"><g fill="#0d1117"><path d="M411.54 0h17.89c39.03 1.92 78.8 13.91 108.57 40.03 14.32 12.58 26.05 28.39 32.58 46.37 4.7 14.14 4.08 31.4-6.24 42.97-10.81 12.25-29.34 14.48-44.26 9.58-11.44-3.71-20.08-12.99-25.82-23.25-8.6-15.42-21.22-29.15-37.56-36.4-29.57-12.57-67.26-9.18-91.58 12.83-24.66 22.63-32.23 57.66-33.08 89.85-.67 34.77 5.55 72.6 29.82 99.13 24.48 27.23 66.82 32.21 99.53 18.29 24.58-10.06 41.05-35.54 41.11-61.98-16.16-.14-32.31.05-48.47-.08-11.31-.15-23.19-5.34-28.89-15.51-6.56-11.85-5.65-28.03 3.41-38.37 6.6-7.39 16.74-10.74 26.47-10.71 29.66-.01 59.32.01 88.97-.01 10.66-.06 21.7 3.27 29.48 10.79 7.67 7.34 11.43 17.97 12.07 28.4 1.45 32.91-4.22 66.92-20.98 95.65-10.61 18.34-25.69 34.05-43.51 45.49-26.55 17.21-58.31 24.42-89.59 25.93h-19.8c-25.9-1.69-51.92-6.8-75.27-18.51-28.47-13.85-52.05-37.13-66.86-65.06-18.55-34.59-24.73-74.53-23.93-113.41.78-48.32 14.84-98.79 49.39-134.02 30.09-31.43 73.77-46.34 116.55-48m-23.49 12.88c-32.95 4.94-64.88 19.9-87.65 44.55-32.63 34.8-44.56 83.97-44.52 130.57.05 26.15 3.28 52.51 11.85 77.31 9.38 27.54 26 52.97 49.2 70.79 27.22 21.29 61.91 31.06 96.08 32.3 35.1 1.4 71.69-4.59 101.74-23.68 23.16-14.49 40.92-37.01 50.37-62.58 8.07-21.35 10.75-44.39 10.19-67.1-.24-8.26-2.37-16.96-8.19-23.11-5.86-6.29-14.73-8.83-23.12-8.81-29.33 0-58.66.02-88 0-5.26-.07-10.65.94-15.23 3.64-12.73 7.44-12.73 29.02-.03 36.51 4.57 2.74 9.98 3.78 15.26 3.74 19.09-.01 38.18-.05 57.27.01-.34 9.31-.36 18.73-2.57 27.83-5.15 24.44-23.25 45.23-46.29 54.58-27.97 11.33-61.35 10.78-88.05-3.81-17.76-9.7-31.41-25.82-39.97-43.98-14.35-30.58-16.72-65.45-13.48-98.67 3.27-30.25 14.27-61.72 38.56-81.47 27.46-22.19 67.62-25.35 99.6-11.67 17.84 7.98 31.98 22.67 41.54 39.51 4.37 7.93 10.4 15.55 19 19.08 11.4 4.42 26.22 3.57 34.87-5.91 7.96-8.96 7.76-22.34 4.1-33.12-9.76-26.18-31.2-46.58-55.6-59.37-35.62-18.7-77.5-23.14-116.93-17.14M759.02 1.87c37.53-4.58 77.13.19 110.62 18.52 25.94 14.01 47.06 36.22 60.82 62.21 18.14 34.02 24.6 73.16 24.04 111.4-.43 49.34-14.15 101.09-49.03 137.49-28.7 30.63-70.62 45.93-112 47.51h-16.91c-27.91-1.43-55.97-8.06-80.16-22.42-26.37-15.32-47.23-39.26-60.23-66.73-16.85-35.26-21.95-75.09-20.24-113.83 1.92-47.48 16.94-96.64 51.33-130.78 24.36-24.59 57.62-39.19 91.76-43.37m5.48 9.83c-19.58 2.07-38.95 7.31-56.43 16.48-25.6 13.12-46.4 34.77-59.65 60.2-17.17 32.62-23.01 70.09-22.4 106.63.65 35.59 7.9 71.87 26.19 102.78 14.41 24.62 36.37 44.86 62.46 56.55 20.45 9.34 42.95 13.65 65.35 14.2 31.09.81 62.97-5.49 89.79-21.73 18.56-11.17 34.28-26.89 45.8-45.21 18.54-29.35 26.66-64.18 28.25-98.56 1.6-37.23-3.18-75.55-19.49-109.41-12.45-26.17-32.56-48.89-57.94-63.11C835.74 13.11 799.25 8.18 764.5 11.7m571.79.55c13.01-10.35 30.7-12.4 46.73-10.26 11.29 1.42 22.17 6.65 29.75 15.22 10.39 11.33 15.02 26.29 20.8 40.2 26.41 64.9 52.1 130.14 78.95 194.84 28.29-70.29 56.57-140.58 84.87-210.86 4.99-12.22 12.06-24.29 23.32-31.7 10.92-7.29 24.52-9.02 37.37-8.29 13.48.69 27.29 5.84 36.19 16.33 8.63 9.94 11.86 23.38 12.24 36.26-.04 95 .01 190-.02 285-.44 11.91-4.6 24.66-14.74 31.77-12.29 8.48-29.25 9.11-42.7 3.08-12.88-5.82-19.5-20.26-19.52-33.85-.04-63.67-.07-127.34.01-191.01-27.81 66.87-54.59 134.2-82.56 201-10.17 24.06-46.28 27.93-63.13 9.13-5.78-6.24-8.59-14.42-11.75-22.14-25.66-62.48-50.86-125.16-76.79-187.51-.16 63.17.01 126.34-.08 189.52.06 12.43-4.8 25.73-15.63 32.67-12.6 7.85-29.5 8.08-42.69 1.55-12.48-6.3-18.6-20.73-18.41-34.2V53c-.02-15.18 5.55-31.14 17.79-40.75m2.23 12.25c-9.56 10.72-10.16 25.88-9.65 39.5 0 91.66.01 183.32 0 274.99-.01 9.25 3.42 19.42 11.77 24.34 10.22 5.67 23.96 5.62 33.83-.81 7.49-5.22 10.29-14.76 10.38-23.49.06-72.33-.03-144.66.05-217 3.58-.07 7.17-.11 10.76.09 29.66 73.01 59.59 145.92 89.34 218.9 2.87 7.37 7.91 14.55 15.6 17.39 7.34 2.67 15.66 2.75 23.07.31 7.8-2.7 12.81-9.96 15.79-17.31 29.93-73.11 59.81-146.25 89.72-219.37 3.55-.08 7.12-.08 10.69 0 .01 72.31-.02 144.62.02 216.93-.09 10 4.04 21.15 13.7 25.51 10.41 4.45 23.73 4.17 32.97-2.88 6.68-5.39 9.23-14.3 9.31-22.59 0-95.34.01-190.68-.01-286.02-.12-11.01-3.31-22.58-11.38-30.46-11.88-11.41-30.07-12.55-45.45-9.44-15.24 2.93-25.45 16.3-31.01 29.91-30.47 75.36-60.71 150.82-91.12 226.21-3 .07-6 .07-8.98.03-30.68-75.46-60.95-151.09-91.57-226.58-5.34-12.89-14.6-25.76-28.9-29.18-16.58-3.9-36.92-2.48-48.93 11.02m-332.62-6.58c7.74-8.04 19.11-11.72 30.1-11.68 38.67.04 77.34-.04 116.01.04 33.3.76 68.17 9.46 93.32 32.4 25.88 23.1 36.3 59.21 34.42 93.07-1.17 38.87-22.88 77.87-58.73 94.73 16.43 29.86 34.17 59.04 50.87 88.77 7.71 13.94 8.71 32.48-.79 45.83-11.89 16.86-36.38 21.38-54.75 13.51-10.8-5.2-17.26-15.9-23.05-25.9-19.49-35.32-39.01-70.62-58.44-105.98-18.39-.23-36.78.02-55.17-.12-.44 29.46-.07 58.94-.18 88.41.65 13.21-2.58 27.59-12.65 36.83-13.11 11.82-33.36 13.07-49.26 6.66-14.72-6.04-22.92-22.11-22.95-37.5-.07-96 0-192-.03-287.99.02-11.2 3.33-22.89 11.28-31.08m7.9 6.88c-9.38 9.11-9.14 23.1-8.8 35.2.01 92 0 184 .01 276.01.15 9.08 3.01 18.77 10.16 24.81 10.15 8.27 25 8.76 36.89 4.3 11.22-4.35 16.92-16.68 17.02-28.15.12-34.9-.01-69.81.06-104.72 23.9-.01 47.81 0 71.71 0 19.48 34.89 38.64 69.97 58 104.94 6.06 10.38 11.38 22.76 22.73 28.36 14.19 5.27 32.92 1.91 41.6-11.37 6.84-10.6 5.07-24.73-1.14-35.21-18.54-32.43-37.41-64.68-55.99-97.1 18.44-7.05 35.08-19.27 45.99-35.87 17.3-25.81 20.87-58.9 14.64-88.86-4.46-21.54-16.16-41.73-33.67-55.24-22.89-17.87-52.51-24.46-81.03-25.24-38.66-.08-77.32-.01-115.98-.04-8.02.02-16.42 2.38-22.2 8.18"/><path d="M717.02 61.08c25.43-17.54 57.83-22.73 88.04-18.41 20.83 2.95 40.98 11.5 57 25.24 22.17 18.78 35.64 46.07 41.81 74.11 6.53 30.01 6.5 61.34.93 91.49-5.32-3.3-10.52-7.98-8.73-14.92 4.73-27.45 2.54-56.12-4.54-83.02-1.29-4.52-2.49-9.15-5-13.18-1.16-6.79-4.02-14.03-10.33-17.54-14.23-8.47-29.72-16.07-46.49-17.25.98-3.09 2.16-6.37 5.09-8.15 2.36 1.37 6.2 3.88 7.11-.43-2.34-2.17-5.49-4.3-8.82-3.1-4.78 1.8-6.34 7.23-7.66 11.66-2.65.04-5.29.04-7.92.13-1.57-4.58-4.71-10.53-10.48-9.65-3.06.22-8.21 3.68-4.28 6.57 4.09-4.2 9.22-1.91 10.58 3.35-17.55 1.62-34.31 9.32-47.41 21.02-2.68 2.94-6.16.12-9.13-.67-6.37-2.37-15.54-.36-17.71 6.83-1.77 4.76 3.02 8.4 4.14 12.66-.44 5.06-2.6 10.08-1.07 15.18 1.71 6 .26 12.09-1.03 18-3.65 18.05 1.85 35.93 3.8 53.75-3.95 3.14-8.54 5.36-13.31 6.95-.96-1.97-1.93-3.92-2.9-5.87 6.88-6.63 9.46-17.62 4.56-26.13-5.16-9.98-18.63-14.24-28.57-8.98-9.64 4.46-14.27 16.9-9.99 26.61 3.6 9.28 14.1 14.78 23.82 13-3.09 3.74-4.8 9.88.29 12.84 8.58 4.12 18.64 4.58 28.06 4.15 1.55 13.45-2.59 26.81-1.27 40.25 2.63 17.39 8.31 35.89 22.24 47.6 3.62 3.16 8.71 2.3 13.09 1.96 7.8 1.1 15.73.01 23.48-1.02 22.82-3.24 44.58-14.33 59.99-31.56 11.53-12.78 20.27-28.25 25-44.8 2.56 2.67 5.86 4.46 9.46 5.32-10.24 31.54-32.74 59.97-63.74 73.04-43.29 18.16-98.34 11.91-132.51-21.74-24.85-24.23-36.84-58.78-40.15-92.72-3.2-34.97-.17-71.4 14.45-103.7 8.82-19.39 22.45-36.8 40.1-48.87m-1.57 14.27c-24.5 20.45-37.15 51.75-41.57 82.7-3.42 24.85-3 50.34 2.08 74.94 5.35 25.6 16.95 50.67 36.61 68.4 14.8 13.52 33.91 22.1 53.73 24.75-14.09-12.73-20.36-31.84-22.63-50.2-.81-11.96 2.03-23.83 1.58-35.81-8.12.89-16.18-.73-24.09-2.34-5.45-1.26-9.72-6.26-9.36-11.98-9.79-1.44-18.88-7.93-22.16-17.45-5.07-12.93 2.32-28.84 15.48-33.28 12.92-5.1 28.22 1.86 33.93 14.27-1.27-10.73-1.45-21.68.76-32.31.44-2.77 1.66-5.64.54-8.4-2.35-7.01-1.6-14.68 1.02-21.51-3.57-4.41-6.17-11.07-2.32-16.13 5.62-7.23 16.65-6.62 24.04-2.59 10.62-9.98 23.73-17.3 37.89-20.82-6.72-5.26.17-13.06 6.87-12.99-1.98-3.85-.39-8.79 4.23-9.49 7.57-2.42 13.49 4.91 14.29 11.74 4.44-6.23 15.55-5.83 18.15 1.74 1.07 5.41-5.84 7.91-9.51 4.53-.31.51-.91 1.53-1.21 2.05 15.68 2.53 30.03 9.69 43.7 17.46-13.54-24-37.44-41.88-64.37-47.86-33.33-7.53-71.1-1.97-97.68 20.58m94.26-5.29c.43.98.87 1.95 1.33 2.92 8.9-3.93 8.86 8.85 8.93 14.48 1.34.01 2.7.01 4.06.01-.14-5.71-.06-12.09-3.61-16.9-2.53-3.43-7.77-3.32-10.71-.51m4.12 5.39c-.56 4.46 4.67.25 0 0m-78.8 141.37c2.74-1.21 5.39-2.64 7.98-4.16-.31-3.39-.88-6.75-1.69-10.05-1.57 4.97-3.29 9.89-6.29 14.21M82.32 55.39c1.51-.45 3.11-.44 4.67-.48 54.03.06 108.05-.03 162.07.05 5.88-.53 8.95 7.1 5.21 11.27-4.67 5.96-7.44 15.75-16.26 16.34-55.68-.2-111.38-.13-167.06-.61-5.52-.43-7.12-7.82-3.28-11.32 4.84-5.05 7.68-12.77 14.65-15.25m2.98 9.9c-1.89 2.03-3.59 4.21-5.2 6.46 52.59.15 105.17.36 157.75.42 1.58-2.24 3.09-4.53 4.46-6.89-52.34-.03-104.67-.06-157.01.01m983.81-.74c24.62-.03 49.24-.18 73.85.07 22.13.63 45.01 12.22 54.33 33.08 9.61 21.69 8.23 49.11-6.07 68.46-11.64 15.4-31.47 22.16-50.23 22.32-23.96.02-47.92.07-71.88-.03q.03-61.95 0-123.9m10.44 10.37c-.09 34.39-.09 68.77 0 103.15 15.15.12 30.3.02 45.45.05 12.77.01 26 .76 38.14-4.02 12.96-4.57 23.42-15.49 27.17-28.75 4.7-16.55 3.63-35.77-6.52-50.16-9.81-13.91-27.31-20.12-43.82-20.29-20.14-.03-40.28-.08-60.42.02M11.14 100.1c2.43-3.46 6.7-4.89 10.79-4.73 69.02.05 138.04-.07 207.05.06 5.27-.33 9.22 5.58 6.89 10.35-2.31 6.23-3.18 16.27-11.84 16.37-72.02.26-144.05.38-216.08.49-3.6.5-6.44-1.89-7.95-4.94v-2.18c2.83-5.72 7.38-10.33 11.14-15.42m3.93 12.1c69.26.07 138.53-.33 207.79-.34.72-2.01 1.4-4.04 2.05-6.08-68.31-.01-136.63-.13-204.94.06a75 75 0 0 0-4.9 6.36m106.22 25.14c2.46-.92 5.13-.69 7.7-.74 29.66.2 59.35-.28 88.99.24 8.36 1.9 5.84 11.92 5.39 18.14.33 5.12-4.14 9.89-9.36 9.32-33.02-.21-66.04-.24-99.06-.47-5.34.36-8.61-6.22-5.59-10.46 3.72-5.45 5.39-13.19 11.93-16.03M125 147c-1.35 2.1-2.58 4.28-3.7 6.51 30.55.12 61.1.36 91.65.35.26-2.25.48-4.51.67-6.77-29.54-.21-59.08-.02-88.62-.09"/></g><g fill="#3cb7ff"><path d="M388.05 12.88c39.43-6 81.31-1.56 116.93 17.14 24.4 12.79 45.84 33.19 55.6 59.37 3.66 10.78 3.86 24.16-4.1 33.12-8.65 9.48-23.47 10.33-34.87 5.91-8.6-3.53-14.63-11.15-19-19.08-9.56-16.84-23.7-31.53-41.54-39.51-31.98-13.68-72.14-10.52-99.6 11.67-24.29 19.75-35.29 51.22-38.56 81.47-3.24 33.22-.87 68.09 13.48 98.67 8.56 18.16 22.21 34.28 39.97 43.98 26.7 14.59 60.08 15.14 88.05 3.81 23.04-9.35 41.14-30.14 46.29-54.58 2.21-9.1 2.23-18.52 2.57-27.83-19.09-.06-38.18-.02-57.27-.01-5.28.04-10.69-1-15.26-3.74-12.7-7.49-12.7-29.07.03-36.51 4.58-2.7 9.97-3.71 15.23-3.64 29.34.02 58.67 0 88 0 8.39-.02 17.26 2.52 23.12 8.81 5.82 6.15 7.95 14.85 8.19 23.11.56 22.71-2.12 45.75-10.19 67.1-9.45 25.57-27.21 48.09-50.37 62.58-30.05 19.09-66.64 25.08-101.74 23.68-34.17-1.24-68.86-11.01-96.08-32.3-23.2-17.82-39.82-43.25-49.2-70.79-8.57-24.8-11.8-51.16-11.85-77.31-.04-46.6 11.89-95.77 44.52-130.57 22.77-24.65 54.7-39.61 87.65-44.55M764.5 11.7c34.75-3.52 71.24 1.41 101.93 18.82 25.38 14.22 45.49 36.94 57.94 63.11 16.31 33.86 21.09 72.18 19.49 109.41-1.59 34.38-9.71 69.21-28.25 98.56-11.52 18.32-27.24 34.04-45.8 45.21-26.82 16.24-58.7 22.54-89.79 21.73-22.4-.55-44.9-4.86-65.35-14.2-26.09-11.69-48.05-31.93-62.46-56.55-18.29-30.91-25.54-67.19-26.19-102.78-.61-36.54 5.23-74.01 22.4-106.63 13.25-25.43 34.05-47.08 59.65-60.2 17.48-9.17 36.85-14.41 56.43-16.48m-47.48 49.38c-17.65 12.07-31.28 29.48-40.1 48.87-14.62 32.3-17.65 68.73-14.45 103.7 3.31 33.94 15.3 68.49 40.15 92.72 34.17 33.65 89.22 39.9 132.51 21.74 31-13.07 53.5-41.5 63.74-73.04 7.33 1.92 15.22 4.59 22.79 2.51 8.03-2.3 10.53-16.06 2.04-19.23-6.68.73-13.46-.74-18.9-4.84 5.57-30.15 5.6-61.48-.93-91.49-6.17-28.04-19.64-55.33-41.81-74.11-16.02-13.74-36.17-22.29-57-25.24-30.21-4.32-62.61.87-88.04 18.41m621.5-36.58c12.01-13.5 32.35-14.92 48.93-11.02 14.3 3.42 23.56 16.29 28.9 29.18 30.62 75.49 60.89 151.12 91.57 226.58 2.98.04 5.98.04 8.98-.03 30.41-75.39 60.65-150.85 91.12-226.21 5.56-13.61 15.77-26.98 31.01-29.91 15.38-3.11 33.57-1.97 45.45 9.44 8.07 7.88 11.26 19.45 11.38 30.46.02 95.34.01 190.68.01 286.02-.08 8.29-2.63 17.2-9.31 22.59-9.24 7.05-22.56 7.33-32.97 2.88-9.66-4.36-13.79-15.51-13.7-25.51-.04-72.31-.01-144.62-.02-216.93-3.57-.08-7.14-.08-10.69 0-29.91 73.12-59.79 146.26-89.72 219.37-2.98 7.35-7.99 14.61-15.79 17.31-7.41 2.44-15.73 2.36-23.07-.31-7.69-2.84-12.73-10.02-15.6-17.39-29.75-72.98-59.68-145.89-89.34-218.9-3.59-.2-7.18-.16-10.76-.09-.08 72.34.01 144.67-.05 217-.09 8.73-2.89 18.27-10.38 23.49-9.87 6.43-23.61 6.48-33.83.81-8.35-4.92-11.78-15.09-11.77-24.34.01-91.67 0-183.33 0-274.99-.51-13.62.09-28.78 9.65-39.5m-324.72.3c5.78-5.8 14.18-8.16 22.2-8.18 38.66.03 77.32-.04 115.98.04 28.52.78 58.14 7.37 81.03 25.24 17.51 13.51 29.21 33.7 33.67 55.24 6.23 29.96 2.66 63.05-14.64 88.86-10.91 16.6-27.55 28.82-45.99 35.87 18.58 32.42 37.45 64.67 55.99 97.1 6.21 10.48 7.98 24.61 1.14 35.21-8.68 13.28-27.41 16.64-41.6 11.37-11.35-5.6-16.67-17.98-22.73-28.36-19.36-34.97-38.52-70.05-58-104.94-23.9 0-47.81-.01-71.71 0-.07 34.91.06 69.82-.06 104.72-.1 11.47-5.8 23.8-17.02 28.15-11.89 4.46-26.74 3.97-36.89-4.3-7.15-6.04-10.01-15.73-10.16-24.81C1005 244 1005.01 152 1005 60c-.34-12.1-.58-26.09 8.8-35.2m55.31 39.75q.03 61.95 0 123.9c23.96.1 47.92.05 71.88.03 18.76-.16 38.59-6.92 50.23-22.32 14.3-19.35 15.68-46.77 6.07-68.46-9.32-20.86-32.2-32.45-54.33-33.08-24.61-.25-49.23-.1-73.85-.07m-983.81.74c52.34-.07 104.67-.04 157.01-.01-1.37 2.36-2.88 4.65-4.46 6.89-52.58-.06-105.16-.27-157.75-.42 1.61-2.25 3.31-4.43 5.2-6.46"/><path d="M809.71 70.06c2.94-2.81 8.18-2.92 10.71.51 3.55 4.81 3.47 11.19 3.61 16.9-1.36 0-2.72 0-4.06-.01-.07-5.63-.03-18.41-8.93-14.48-.46-.97-.9-1.94-1.33-2.92m15.72 17.52c1.32-4.43 2.88-9.86 7.66-11.66 3.33-1.2 6.48.93 8.82 3.1-.91 4.31-4.75 1.8-7.11.43-2.93 1.78-4.11 5.06-5.09 8.15-1.43-.04-2.87-.03-4.28-.02m-22.68-2.95c-3.93-2.89 1.22-6.35 4.28-6.57 5.77-.88 8.91 5.07 10.48 9.65-1.41.06-2.8.15-4.18.27-1.36-5.26-6.49-7.55-10.58-3.35m-17.95 18.83c16.97-9.17 37.42-12.55 56.21-7.53 12.86 3.9 25.4 9.65 36.15 17.77-1.47.12-2.94.24-4.39.37.03 4.2 3.11 7.81 7.34 8.24.37-2.31-.13-4.6-.76-6.81 2.52 2.16 4.88 4.5 7.18 6.89 2.51 4.03 3.71 8.66 5 13.18 7.08 26.9 9.27 55.57 4.54 83.02-.8 2.39-1.64 4.77-2.43 7.17-3.86.11-8.36.92-10.14 4.84-3.09 6.74.66 14.63 5.91 19.15-4.73 16.55-13.47 32.02-25 44.8 2.42-18.84 2.57-38.41-3.25-56.68-1.87-5.19-4.11-10.97-9.21-13.79-9.23-4.65-19.7-6.24-29.96-6.11-13.47-.06-27.29.37-40.14 4.8-7.93 2.59-11.9 10.84-13.72 18.4-3.14 13.92-2.18 28.36-.64 42.42 1.26 8.62 2.26 17.93 8.05 24.88 7.14 9.23 18.34 13.58 28.88 17.64-7.75 1.03-15.68 2.12-23.48 1.02-8.12-5.35-15.95-11.84-20.12-20.86-6.15-13.11-10.62-27.75-8.61-42.36 2.23-19.95 1.59-40.21-2.26-59.92-3.19-15.45-5.3-31.52-1.61-47.09 8.46 9.49 23.38 12.47 34.5 5.96 11.27-5.99 16.85-20.4 12.78-32.46-3.09-10.05-12.35-17.39-22.62-19.02 1.85-1.37 3.67-2.78 5.57-4.08 2.54 4.59 8.8 2.49 11.03-1.33-1.46-1.1-3.11-1.89-4.8-2.51m68.5 15.92c-15.86 2.88-26.06 21.31-20.09 36.3 4.9 14.99 23.87 22.63 37.86 15.41 14.23-6.39 20.02-25.7 11.69-38.89-5.78-9.97-18.21-15.43-29.46-12.82m-56.19 47.83c-3.24 5.7 3.71 10.05 8.51 11.12-.25 2.86-.57 5.72-.94 8.58-4.64-.55-8.88-2.52-13.07-4.45-1.93-.78-3.47 1.69-2.59 3.38 2.56 2.19 5.9 3.15 8.98 4.4 1.52 4.82 1.45 10.71 5.41 14.34 4.68 2.5 11.84 1.15 14.18-3.99 1.85-3.76 1.59-8.05 2.17-12.09 3.22-2.83 7.32-4.8 9.68-8.52.44-2.06-2.19-3.83-3.75-2.32-4.52 4.3-9.85 8.46-16.31 8.94.25-2.68.57-5.36 1.01-8.02 5.18-.09 13.13-3.89 10.23-10.22-4.93-7.34-17.98-8.15-23.51-1.15m-40.2 9.83c-.03-1.34-.04-2.68-.05-4.01-5.5-3.23-6.03 7.05.05 4.01m118.74 4.31c2.96 2.13 5.35-1.2 4.03-4.03-2.83-1.31-6.14 1.07-4.03 4.03M15.07 112.2c1.52-2.2 3.15-4.33 4.9-6.36 68.31-.19 136.63-.07 204.94-.06-.65 2.04-1.33 4.07-2.05 6.08-69.26.01-138.53.41-207.79.34m730.27 4.18c2.49-3.34 7.2-2.49 10.78-2.05-3.1 2.32-6.07 4.81-8.8 7.56-.76-1.77-2.46-3.46-1.98-5.51M125 147c29.54.07 59.08-.12 88.62.09-.19 2.26-.41 4.52-.67 6.77-30.55.01-61.1-.23-91.65-.35 1.12-2.23 2.35-4.41 3.7-6.51m579.7 33.72c9.94-5.26 23.41-1 28.57 8.98 4.9 8.51 2.32 19.5-4.56 26.13.97 1.95 1.94 3.9 2.9 5.87-4.48 1.3-8.75-.57-13.08-1.37-9.72 1.78-20.22-3.72-23.82-13-4.28-9.71.35-22.15 9.99-26.61m6.65-.29c-8.62 1.16-15.88 8.81-16.38 17.52-.82 8.35 4.61 16.74 12.44 19.66 7.45 3.1 16.69.88 21.91-5.28 5.26-5.65 6.22-14.58 2.69-21.37-3.65-7.47-12.5-11.86-20.66-10.53"/></g><path d="M817.51 87.71c2.63-.09 5.27-.09 7.92-.13 1.41-.01 2.85-.02 4.28.02 16.77 1.18 32.26 8.78 46.49 17.25 6.31 3.51 9.17 10.75 10.33 17.54-2.3-2.39-4.66-4.73-7.18-6.89q-1.095-.915-2.19-1.8c-10.75-8.12-23.29-13.87-36.15-17.77-18.79-5.02-39.24-1.64-56.21 7.53a73 73 0 0 0-6.23 3.84c-1.9 1.3-3.72 2.71-5.57 4.08 10.27 1.63 19.53 8.97 22.62 19.02 4.07 12.06-1.51 26.47-12.78 32.46-11.12 6.51-26.04 3.53-34.5-5.96-3.69 15.57-1.58 31.64 1.61 47.09 3.85 19.71 4.49 39.97 2.26 59.92-2.01 14.61 2.46 29.25 8.61 42.36 4.17 9.02 12 15.51 20.12 20.86-4.38.34-9.47 1.2-13.09-1.96-13.93-11.71-19.61-30.21-22.24-47.6-1.32-13.44 2.82-26.8 1.27-40.25-9.42.43-19.48-.03-28.06-4.15-5.09-2.96-3.38-9.1-.29-12.84 4.33.8 8.6 2.67 13.08 1.37 4.77-1.59 9.36-3.81 13.31-6.95-1.95-17.82-7.45-35.7-3.8-53.75 1.29-5.91 2.74-12 1.03-18-1.53-5.1.63-10.12 1.07-15.18-1.12-4.26-5.91-7.9-4.14-12.66 2.17-7.19 11.34-9.2 17.71-6.83 2.97.79 6.45 3.61 9.13.67 13.1-11.7 29.86-19.4 47.41-21.02 1.38-.12 2.77-.21 4.18-.27m-72.17 28.67c-.48 2.05 1.22 3.74 1.98 5.51 2.73-2.75 5.7-5.24 8.8-7.56-3.58-.44-8.29-1.29-10.78 2.05m17.93-.1c-10.37 2.65-17.97 13.11-17.23 23.79.4 11.54 10.44 21.64 21.98 22.13 12.88 1.09 25.02-10.26 24.75-23.19.63-14.86-15.25-27.19-29.5-22.73m-43.45 109.54c-.38 2.65 1.89 4.61 4.3 5.01 7.5 1.38 15.14 3.26 22.79 1.76.35-4.3-.31-8.58-.77-12.84-7.87 5.02-17.02 7.64-26.32 6.07"/><path d="M853.3 119.38c11.25-2.61 23.68 2.85 29.46 12.82 8.33 13.19 2.54 32.5-11.69 38.89-13.99 7.22-32.96-.42-37.86-15.41-5.97-14.99 4.23-33.42 20.09-36.3m1.02 4.02c-10.47 2.02-18.68 11.94-18.6 22.61-.5 12.54 10.74 23.95 23.28 23.64 12.97.45 24.48-11.67 23.45-24.59-.35-13.8-14.68-24.93-28.13-21.66m-81.01.98c6.2-1.98 12.9 4.15 11.4 10.5-.92 6.65-9.92 9.81-14.84 5.28-5.59-4.3-3.46-14.21 3.44-15.78m3.02 3.92c-3.02 1.37-.55 6.44 2.43 4.63 3.12-1.33.51-6.5-2.43-4.63"/><path d="M851.27 131.35c6.24-2.13 13.04 4.16 11.46 10.55-.96 6.59-9.97 9.74-14.82 5.19-5.57-4.25-3.5-14.17 3.36-15.74m-.95 4.07c-2.35 2.14.67 6.12 3.34 4.21 2.92-2.06-.63-6.57-3.34-4.21m-53.21 31.79c5.53-7 18.58-6.19 23.51 1.15 2.9 6.33-5.05 10.13-10.23 10.22-.44 2.66-.76 5.34-1.01 8.02 6.46-.48 11.79-4.64 16.31-8.94 1.56-1.51 4.19.26 3.75 2.32-2.36 3.72-6.46 5.69-9.68 8.52-.58 4.04-.32 8.33-2.17 12.09-2.34 5.14-9.5 6.49-14.18 3.99-3.96-3.63-3.89-9.52-5.41-14.34-3.08-1.25-6.42-2.21-8.98-4.4-.88-1.69.66-4.16 2.59-3.38 4.19 1.93 8.43 3.9 13.07 4.45.37-2.86.69-5.72.94-8.58-4.8-1.07-11.75-5.42-8.51-11.12m6.01 24.22c1.26 3.37.7 10.39 5.89 9.63 5.54-.06 5.52-6.72 5.93-10.72-3.85 1.08-7.85 1.41-11.82 1.09m92.95 27.16c-1.79 6.94 3.41 11.62 8.73 14.92 5.44 4.1 12.22 5.57 18.9 4.84 8.49 3.17 5.99 16.93-2.04 19.23-7.57 2.08-15.46-.59-22.79-2.51-3.6-.86-6.9-2.65-9.46-5.32-5.25-4.52-9-12.41-5.91-19.15 1.78-3.92 6.28-4.73 10.14-4.84.79-2.4 1.63-4.78 2.43-7.17m-6.66 11.87c-4.92 2.66-2.71 9.53-.07 13.16 6.6 8.04 17.89 9.9 27.7 10.62 6.03.91 10.87-8.23 5.59-11.8-9.13 1.41-17.65-3.1-24.61-8.54-2.51-1.74-5.27-4.65-8.61-3.44"/><path d="M778.57 107.3c2-1.38 4.09-2.66 6.23-3.84 1.69.62 3.34 1.41 4.8 2.51-2.23 3.82-8.49 5.92-11.03 1.33m94.2 6.77c1.45-.13 2.92-.25 4.39-.37q1.095.885 2.19 1.8c.63 2.21 1.13 4.5.76 6.81-4.23-.43-7.31-4.04-7.34-8.24m-115.86 62.97c-6.08 3.04-5.55-7.24-.05-4.01.01 1.33.02 2.67.05 4.01m118.74 4.31c-2.11-2.96 1.2-5.34 4.03-4.03 1.32 2.83-1.07 6.16-4.03 4.03" fill="#b7f8ff"/><g fill="#fff"><path d="M763.27 116.28c14.25-4.46 30.13 7.87 29.5 22.73.27 12.93-11.87 24.28-24.75 23.19-11.54-.49-21.58-10.59-21.98-22.13-.74-10.68 6.86-21.14 17.23-23.79m10.04 8.1c-6.9 1.57-9.03 11.48-3.44 15.78 4.92 4.53 13.92 1.37 14.84-5.28 1.5-6.35-5.2-12.48-11.4-10.5m81.01-.98c13.45-3.27 27.78 7.86 28.13 21.66 1.03 12.92-10.48 25.04-23.45 24.59-12.54.31-23.78-11.1-23.28-23.64-.08-10.67 8.13-20.59 18.6-22.61m-3.05 7.95c-6.86 1.57-8.93 11.49-3.36 15.74 4.85 4.55 13.86 1.4 14.82-5.19 1.58-6.39-5.22-12.68-11.46-10.55"/><path d="M776.33 128.3c2.94-1.87 5.55 3.3 2.43 4.63-2.98 1.81-5.45-3.26-2.43-4.63m73.99 7.12c2.71-2.36 6.26 2.15 3.34 4.21-2.67 1.91-5.69-2.07-3.34-4.21m-140.99 48.01c9.78-3.29 21.27 4.25 21.93 14.57 1.26 9.29-6.97 18.25-16.25 18.11-8.46.48-16.57-6.37-17.42-14.81-1.17-7.79 4.18-15.77 11.74-17.87m2.99.94c-11.62.86-17.67 16.38-9.62 24.84 7.48 9.72 25.04 5.49 26.84-6.78 2.23-9.87-7.29-19.74-17.22-18.06"/><path d="M715.65 188.18c6.8 1.36 11.76 9.82 7.85 16.01-.33-2.86 0-5.88-1.01-8.62-1.29-3.32-5.19-4.35-6.84-7.39m87.47 3.25c3.97.32 7.97-.01 11.82-1.09-.41 4-.39 10.66-5.93 10.72-5.19.76-4.63-6.26-5.89-9.63"/></g><g fill="#8fd2f9"><path d="M711.35 180.43c8.16-1.33 17.01 3.06 20.66 10.53 3.53 6.79 2.57 15.72-2.69 21.37-5.22 6.16-14.46 8.38-21.91 5.28-7.83-2.92-13.26-11.31-12.44-19.66.5-8.71 7.76-16.36 16.38-17.52m-2.02 3c-7.56 2.1-12.91 10.08-11.74 17.87.85 8.44 8.96 15.29 17.42 14.81 9.28.14 17.51-8.82 16.25-18.11-.66-10.32-12.15-17.86-21.93-14.57"/><path d="M712.32 184.37c9.93-1.68 19.45 8.19 17.22 18.06-1.8 12.27-19.36 16.5-26.84 6.78-8.05-8.46-2-23.98 9.62-24.84m3.33 3.81c1.65 3.04 5.55 4.07 6.84 7.39 1.01 2.74.68 5.76 1.01 8.62 3.91-6.19-1.05-14.65-7.85-16.01m66.2 34.59c12.85-4.43 26.67-4.86 40.14-4.8 10.26-.13 20.73 1.46 29.96 6.11 5.1 2.82 7.34 8.6 9.21 13.79 5.82 18.27 5.67 37.84 3.25 56.68-15.41 17.23-37.17 28.32-59.99 31.56-10.54-4.06-21.74-8.41-28.88-17.64-5.79-6.95-6.79-16.26-8.05-24.88-1.54-14.06-2.5-28.5.64-42.42 1.82-7.56 5.79-15.81 13.72-18.4m-5.7 20.42c-5.64 4.74-8.96 13.04-6.57 20.23 2.29 5 9.25 5.08 13.5 2.72 4.28-2.23 5.78-7.08 7.49-11.24-2.19-3.28-6.64-1.32-9.87-1.25-2.55.26-7.61 1.64-5.44 5.12 2.91 1.28 6.03-1.14 9.09-1.09-1.27 4.04-5.95 6.84-9.94 4.84-2.84-5.24.36-11.9 4.45-15.62 2.68-3.15 7.45 3.74 9.2-1-1.42-4.38-8.47-5.7-11.91-2.71m26.29-.67c-7.72 1.11-12.55 9.91-11.08 17.21 1.92 7.66 12.79 10.21 18.49 5.15 4.66-4.19 6.53-11.29 4.43-17.21-1.88-4.56-7.44-5.68-11.84-5.15m15.6.71c-.99 7.73-.77 15.85-.09 23.66 4.84 1.51 4.16-4.04 4.14-7.09 5.37.62 8.73 8.02 14.07 6.2.52-3.96-3.76-5.46-6.21-7.63 2.53-1.64 5.76-3.84 5-7.37-1.43-6.89-11.17-10.94-16.91-7.77m23.49 5.36c-.69 6.25-4.29 12.05-3.41 18.46 6.82 2.23 4.03-8.22 7.21-11.55 1.92 3.61.93 10.81 5.63 11.7 4.29-2.52 3.78-8.87 6.44-12.81 1.14 4.28 1.43 8.86 3.41 12.88 1.59 1.26 4.66.19 3.91-2.13-1.84-6.51-3.17-13.14-4.19-19.82-.21-2.39-2.54-4.26-4.68-2.54-2.4 4.5-1.81 10.52-5.29 14.34-1.47-4.67-1.41-9.8-3.57-14.24-3.69-2.22-5.15 3.02-5.46 5.71"/><path d="M801.35 247.43c2.73-.85 6.91-1.14 8.54 1.78 1.53 4.04.23 8.88-2.75 11.93-3.13 3.35-9.65 2.14-11.22-2.2-.86-4.43 1.41-9.41 5.43-11.51m20.69-.81c3.26.22 7.83 1.56 8.29 5.32-1.51 3.04-5.4 2.88-8.28 3.15a141 141 0 0 1-.01-8.47"/></g><path d="M719.82 225.82c9.3 1.57 18.45-1.05 26.32-6.07.46 4.26 1.12 8.54.77 12.84-7.65 1.5-15.29-.38-22.79-1.76-2.41-.4-4.68-2.36-4.3-5.01m169.59 4.64c3.34-1.21 6.1 1.7 8.61 3.44 6.96 5.44 15.48 9.95 24.61 8.54 5.28 3.57.44 12.71-5.59 11.8-9.81-.72-21.1-2.58-27.7-10.62-2.64-3.63-4.85-10.5.07-13.16" fill="#d6c295"/><path d="M776.15 243.19c3.44-2.99 10.49-1.67 11.91 2.71-1.75 4.74-6.52-2.15-9.2 1-4.09 3.72-7.29 10.38-4.45 15.62 3.99 2 8.67-.8 9.94-4.84-3.06-.05-6.18 2.37-9.09 1.09-2.17-3.48 2.89-4.86 5.44-5.12 3.23-.07 7.68-2.03 9.87 1.25-1.71 4.16-3.21 9.01-7.49 11.24-4.25 2.36-11.21 2.28-13.5-2.72-2.39-7.19.93-15.49 6.57-20.23m26.29-.67c4.4-.53 9.96.59 11.84 5.15 2.1 5.92.23 13.02-4.43 17.21-5.7 5.06-16.57 2.51-18.49-5.15-1.47-7.3 3.36-16.1 11.08-17.21m-1.09 4.91c-4.02 2.1-6.29 7.08-5.43 11.51 1.57 4.34 8.09 5.55 11.22 2.2 2.98-3.05 4.28-7.89 2.75-11.93-1.63-2.92-5.81-2.63-8.54-1.78m16.69-4.2c5.74-3.17 15.48.88 16.91 7.77.76 3.53-2.47 5.73-5 7.37 2.45 2.17 6.73 3.67 6.21 7.63-5.34 1.82-8.7-5.58-14.07-6.2.02 3.05.7 8.6-4.14 7.09-.68-7.81-.9-15.93.09-23.66m4 3.39c-.08 2.82-.08 5.65.01 8.47 2.88-.27 6.77-.11 8.28-3.15-.46-3.76-5.03-5.1-8.29-5.32m19.49 1.97c.31-2.69 1.77-7.93 5.46-5.71 2.16 4.44 2.1 9.57 3.57 14.24 3.48-3.82 2.89-9.84 5.29-14.34 2.14-1.72 4.47.15 4.68 2.54 1.02 6.68 2.35 13.31 4.19 19.82.75 2.32-2.32 3.39-3.91 2.13-1.98-4.02-2.27-8.6-3.41-12.88-2.66 3.94-2.15 10.29-6.44 12.81-4.7-.89-3.71-8.09-5.63-11.7-3.18 3.33-.39 13.78-7.21 11.55-.88-6.41 2.72-12.21 3.41-18.46" fill="#f47f39"/></svg>
