<svg width="64" height="14" viewBox="0 4.4 62.5 13" xmlns="http://www.w3.org/2000/svg">
  <g fill="#091c28">
    <path d="M14.691 3.946c.007-.08.044-.095.113-.042v.036l-.112.006zm.919-.03c.057-.064.1-.057.131.023l-.109.004-.022-.027zm12.594.024c.023-.092.194-.091.256-.028l.001.028h-.257zm.394-.029c.061-.063.232-.067.258.024l-.259.003.001-.028zm13.75.274c-.031-.096.156-.081.113.009l-.113-.009zm8.724.099a.629.629 0 0 1 .298.241l-.037-.018c-.075-.063-.148-.128-.223-.19l-.038-.033zm-14.377.24c-.024-.073.001-.098.075-.075l.012.037-.05.05-.037-.011zm22.008.146c-.076-.056.016-.19.096-.139a.648.648 0 0 1-.096.139zm-34.02.555c-.088-.053.061-.169.085-.067l-.085.067zm-13.548.064c-.083-.055.062-.172.087-.071l-.087.071zm33.921-.12c.171.1.348.212.446.391l-.041-.013a9.79 9.79 0 0 1-.294-.318l-.111-.061zm-12.66.067c.079-.032.109-.008.092.072l-.101-.034.009-.038zm-13 .057c.152.129.306.26.429.42l-.032-.022c-.119-.086-.234-.177-.35-.267l-.048-.131zm8.848.133c.19.008.381.017.572.028-.192-.001-.382-.002-.573.009l.001-.036zm33.688.107c.086-.003.103.152.017.166l-.018-.024a1.137 1.137 0 0 1 .001-.143zm-29.038.182c.079-.02.104.01.074.09l-.038.01-.036-.1zm-22.437.237c-.026-.081.001-.11.08-.086l-.043.097-.037-.012zm13.492.044c-.068-.039-.024-.174.056-.154.019.058-.015.114-.056.154zm1.747.49c-.016-.081.092-.168.161-.109a.678.678 0 0 1-.149.134l-.012-.025zm3.932-.132c.064.005.098.043.102.114-.073-.008-.108-.046-.102-.114zm-4.088.287c.041-.031.084-.06.128-.089-.087.086-.173.172-.258.259.041-.059.081-.118.131-.17zm3.939-.045c.06-.042.131.012.119.081l-.119-.081zm.443.26.101-.008-.003.091h-.084l-.014-.083zm-16.929.122a2.536 2.536 0 0 0 .162-.085c-.112.126-.224.253-.353.361.03-.055.059-.111.085-.168.08.007.116-.029.107-.108zm12.238.083c-.032-.083-.004-.12.084-.11a.17.17 0 0 1-.084.11zm17.839-.128.032-.007.047.125a.146.146 0 0 1-.079-.118zm-25.473.244.034.003.054.091c-.083.017-.112-.014-.089-.094zm10.463.367c-.004-.067.026-.109.089-.127.013.069-.016.111-.089.127zM.306 7.675c-.07-.065.042-.187.114-.124a.743.743 0 0 1-.114.124zm27.442.078a.279.279 0 0 1 .21-.174c-.022.095-.099.204-.21.174zm-.551-.158.216.086c-.082.027-.207.038-.242-.064l.026-.023zm4.767.013c.062.017.094.059.096.125-.076-.014-.108-.056-.096-.125zm14.423.403.005.516c.003-.172-.004-.345-.005-.516zm-28.127.153c.082.091.168.178.257.261a.723.723 0 0 1-.257-.261zm2.071.154a.185.185 0 0 1 .088-.106c.03.085 0 .121-.088.106zm6.577-.043c.075.005.11.041.105.108-.065-.002-.1-.038-.105-.108zm.031.634.026-.241c.068.065.069.199-.026.241zM4.352 8.891c1.147-.034 2.298-.067 3.443-.001a63.628 63.628 0 0 1-3.412.002l-.032-.001zm-.095.163c-.099-.046.031-.209.084-.105a1.073 1.073 0 0 1-.084.105zm22.744-.004c.068.058.061.16-.019.204a.364.364 0 0 1 .019-.204zm-.141.737c-.009-.065.018-.11.081-.136.013.074-.013.12-.081.136zm-15.054.197a.176.176 0 0 1 .029-.137c.064.064.055.109-.029.137zm10.726.244c-.086-.014-.075-.169.012-.168.004.048.005.096.004.144l-.017.024zm2.818.182.108-.011a.265.265 0 0 0-.124.18l-.035.108c.019-.092.034-.184.05-.276zm1.539.017a.192.192 0 0 1 .033.215.189.189 0 0 1-.033-.215zm-11.3.248c-.071-.034-.038-.176.045-.16.021.058-.013.114-.045.16zm6.937.406.028.022-.004.109c-.08-.031-.088-.074-.023-.131zm1.702.263c.007.145.013.288.027.434a5.238 5.238 0 0 1-.027-.434zm1.063.131.03-.011a.36.36 0 0 1 .128.169c-.085-.006-.159-.069-.157-.158zm.613.333.159-.033c-.008.084-.116.098-.159.033z" opacity=".19"/>
    <path d="m26.075 11.744.084.048-.013.032-.105-.013.034-.067zm18.116.273c-.059-.054-.013-.134.059-.139.031.067.011.114-.059.139zm-25.82.224.033.001.018.122-.033.001-.018-.124zm8.413.139a.266.266 0 0 1 .185-.028c-.006.102-.132.076-.185.028zm.275.996c-.015-.067.011-.151.085-.168.014.066-.01.153-.085.168zm-14.32.533c.075-.032.105-.006.09.079l-.031.015-.059-.094zm14.349-.034c.048.052.053.108.013.168-.045-.053-.05-.109-.013-.168zm-9.465.329c-.05-.074.102-.149.15-.083l-.039.075-.111.008zm-.162.22c-.067-.066.048-.19.119-.122l.012.032-.131.091zm-2.396.664c.065-.057.104-.046.116.032l-.116.004v-.036zm.422.032c-.03-.1.172-.102.145-.002a.542.542 0 0 1-.145.002zm8.355.083a.183.183 0 0 1 .084.109c-.089.012-.117-.025-.084-.109zm-3.9.208a.176.176 0 0 1 .085-.109c.032.084.004.121-.085.109zm7.651-.08c.065-.02.111.005.137.075-.068.012-.114-.013-.137-.075zm5.438.073a.18.18 0 0 1 .094-.101c.025.086-.006.12-.094.101zm-22.518-.033.038-.008.012.112c-.076 0-.093-.035-.05-.104zm13.578.145.037-.011.037.101c-.08.02-.104-.01-.074-.09zm3.747.053c.07-.007.117.023.14.091-.07.005-.117-.025-.14-.091zm-8.105.041.032.011c.069.091-.078.208-.167.176.047-.061.091-.124.136-.187zm12.94.145.159-.132a.69.69 0 0 1-.218.296l.002-.116.057-.048zm-13.325.233c.048-.029.096-.058.146-.086.048.073-.067.186-.135.119l-.011-.033zm5.132-.07.139.074-.012.034c-.063.075-.19-.037-.127-.108zm-13.418.058.112.012-.007.037c-.069.042-.104.026-.104-.05zm50.87.105.017-.024c.085.014.073.168-.013.168a.866.866 0 0 1-.003-.144zm-18.05.749a.208.208 0 0 1 .094.102c-.09.018-.121-.016-.094-.102zm17.77.172c-.012-.052.005-.093.053-.123.046.07.028.111-.053.123zm-1.871-.068c.046.042.091.087.132.135-.078.074-.209-.059-.132-.135zm1.703.17c.029-.047.069-.065.122-.055-.011.082-.051.1-.122.055zm-23.884.225c.074-.002.148-.002.223 0 .004.109-.227.109-.223 0zm7.234-.001c.06-.001.12 0 .181.002.018.107-.203.104-.181-.002z" opacity=".19"/>
  </g>
  <path d="M14.804 3.904c.267.004.543-.054.806.013l.022.027c-.277-.003-.552-.017-.829-.003v-.036zm13.656.009.139-.001-.001.028-.136.001-.001-.028zm21.593.047c.069-.057.109-.046.123.033l-.122-.004-.001-.029zm9.9.033c.011-.079.052-.09.122-.033l-.001.029-.121.004zm1.383.33c.059-.055.101-.044.128.032-.05.025-.092.014-.128-.032zm-2.54.208c-.069-.099.081-.248.178-.172l-.178.172zm-47.785.826c.007-.082.048-.104.123-.067-.029.049-.07.072-.123.067zm21.477-.049c.151.118.313.235.406.408a9.763 9.763 0 0 0-.406-.408zm-4.357.159c.007-.08.045-.094.113-.041l-.001.036-.112.004zm20.042.143c-.066-.056-.059-.1.021-.131l.005.109-.027.022zm13.754.066.018.024c.065.509.03 1.025.037 1.536-.003 2.79-.007 5.579.004 8.369-.023.145.018.309-.04.451l-.017.024c0-3.468.004-6.936-.002-10.404zm-37.922.166c.011-.08.051-.098.12-.053-.028.051-.068.069-.12.053zm-15.222.071.002-.035-.032.537.002-.038c.01-.14.017-.279.025-.419l.002-.044zm6.234.253.462.02-.489.011.028-.032zm24.056.089c.845-.004 1.693-.033 2.538.035-.845-.008-1.689.033-2.533.008l-.005-.043zm-7.821.148zM7.449 7.994c.213 0 .426.009.64.015a19.11 19.11 0 0 1-.677-.014l.037-.001zm12.783.419a.177.177 0 0 1 .097-.097c.022.087-.01.119-.097.097zm-12.409.774c.107-.016.097.203-.008.179 0-.06.002-.12.008-.179zm-3.761.339a47.378 47.378 0 0 1 1.599-.031v.055a35.528 35.528 0 0 1-1.599-.024zm38.899.344a.72.72 0 0 1 .148-.127c.063.081-.076.198-.148.127zm-33.932.224c-.07-.029-.058-.178.028-.16.002.052.003.104 0 .156l-.028.003zm7.327.142c.031-.08.075-.087.131-.022l-.022.028-.109-.005zm3.343-.015c.014-.086.169-.072.167.015a1.711 1.711 0 0 1-.143.002l-.024-.017zm2.831.005.017-.024c-.001.3 0 .599.005.899l-.028-.022c-.036-.28-.058-.577.005-.853zm16.548.156c.801.001 1.603.008 2.405.002l-.022.015c-.791.079-1.591.026-2.385.027l.001-.045zm-23.446.131c.021-.078.064-.091.127-.038-.035.046-.077.059-.127.038zm8.562.072.026.001v.14l-.025.001v-.142zm21.237.38a.183.183 0 0 1 .101-.094c.019.089-.015.12-.101.094zm-36.398.162.024.002c.002.082.004.164.003.247-.096-.018-.096-.193-.027-.249zm35.959.287a.18.18 0 0 1 .092-.102c.027.086-.004.121-.092.102zm-23.969.843.023-.002c.07.039.07.207-.025.202a2.668 2.668 0 0 1 .001-.2zm-2.635.104.033-.001v.128l-.03.003-.003-.13zm-3.441 2.751c.014-.076.053-.085.117-.028v.036l-.116-.008zm-4.386.359c.051-.016.092.001.122.052-.068.045-.109.028-.122-.052zm13.602.13zm-4.671.301a.215.215 0 0 1 .103-.105c.019.088-.016.123-.103.105zm-8.483-.049c.049.03.066.071.052.123-.081-.014-.098-.055-.052-.123zm21.29.307a.123.123 0 0 1 .066-.12c.04.076.018.116-.066.12zm23.632.582a.173.173 0 0 1 .09-.105c.028.085-.002.12-.09.105zm-10.039.276c.054-.06.11-.117.169-.172.076.094-.075.247-.169.172zm2.505-.133a.183.183 0 0 1 .092.103c-.088.017-.119-.017-.092-.103zm-11.718.05c.045.02.077.052.097.097-.088.022-.12-.01-.097-.097zm7.296-.001c.046.044.09.09.13.14-.08.071-.205-.066-.13-.14zm-29.282.425a.172.172 0 0 1 .137-.033v.036l-.137-.003zm1.047-.032a.181.181 0 0 1 .141.026l-.138.008-.002-.034zm12.196.033a.172.172 0 0 1 .137-.034v.036l-.137-.002z" opacity=".36" fill="#14425d"/>
  <g fill="#38b6ff">
    <path d="M11.221 5.219c.972-.802 2.229-1.178 3.47-1.273l.112-.006c.276-.014.552 0 .829.003l.109-.004c1.193.1 2.391.463 3.362 1.18a.89.89 0 0 1 .176.171.36.36 0 0 0 .165.133c.115.09.23.181.35.267-.046.042-.045.084.002.127.419.422.704.968.807 1.555.003.139.003.278 0 .417a.796.796 0 0 1-.185.423.185.185 0 0 0-.088.106.174.174 0 0 0-.097.097.908.908 0 0 1-.709.273c-.086-.006-.17-.009-.254-.012-.265-.017-.546-.075-.754-.251a4.864 4.864 0 0 1-.257-.261 9.7 9.7 0 0 1-.574-.894l-.054-.091c-.112-.114-.22-.233-.349-.327a5.124 5.124 0 0 0-.771-.425c-.262-.11-.557-.119-.812-.245-.032-.057-.108-.06-.135.003l-.085.002-.462-.02a.15.15 0 0 0-.146-.005c-.322.117-.675.138-.985.292-.263.111-.494.281-.731.438-.053.03-.107.059-.162.085a.14.14 0 0 0-.107.108 2.643 2.643 0 0 1-.085.168 4.147 4.147 0 0 0-.851 1.934c-.043.219-.056.445-.117.66-.029.042-.038.088-.029.137l.002.139c-.007.289-.022.58-.015.87.034 1.035.326 2.073.946 2.914l.059.094a.922.922 0 0 0 .126.154c.044.053.092.102.143.148a.555.555 0 0 0 .156.124c.309.174.599.396.939.509.258.074.523.129.787.178l.116.008.116-.004c.102-.008.204-.006.306 0a.64.64 0 0 0 .145-.002 3.106 3.106 0 0 0 1.828-.694l.131-.091a.237.237 0 0 0 .142-.137l.039-.075c.31-.419.561-.879.621-1.406a.85.85 0 0 0 .029-.224v-.128a6.011 6.011 0 0 1-.018-.122c-.687-.112-1.384-.082-2.076-.057-.205-.012-.456-.042-.57-.238a.53.53 0 0 0-.13-.141.434.434 0 0 1-.17-.374l-.003-.269a.79.79 0 0 1 .134-.488c.032-.046.065-.102.045-.16.049.021.092.008.127-.038a.975.975 0 0 1 .597-.239l.109.005c1.086-.008 2.172-.008 3.258-.003.047.001.096.001.143-.002.254.055.57.092.743.315a.17.17 0 0 0 .099.096c.198.204.313.499.316.784l-.004.109c.005.153.008.306.008.459a4.442 4.442 0 0 0-.006.258 2.222 2.222 0 0 0-.001.2c-.003.845-.287 1.671-.693 2.404-.096.148-.167.32-.303.437a.179.179 0 0 0-.085.109.22.22 0 0 1-.113.095.139.139 0 0 0-.096.104c-.045.063-.089.126-.136.187a.215.215 0 0 0-.103.105 6.99 6.99 0 0 0-.146.086.135.135 0 0 0-.105.094c-.032.069-.07.135-.107.203l-.019-.038c-.015-.082-.11-.045-.116.02-.062.141-.212.207-.333.287-.841.495-1.814.757-2.785.8a.176.176 0 0 0-.141-.026c-.064.001-.128.006-.191.01-.193 0-.384.002-.576-.006a2.309 2.309 0 0 0-.144-.005.172.172 0 0 0-.137.033c-.976-.033-1.941-.329-2.795-.8-.217-.142-.462-.266-.617-.48a.135.135 0 0 0-.108-.09l-.112-.012c.015-.052-.002-.093-.052-.123-.111-.107-.22-.215-.326-.326-.03-.05-.071-.067-.122-.052l-.012-.112a.135.135 0 0 0-.09-.108c-.212-.159-.336-.403-.482-.617a6.87 6.87 0 0 1-.884-2.712c-.012-.146-.021-.29-.03-.435l-.003-.112a5.07 5.07 0 0 0-.003-.247c.002-.07.001-.14-.002-.209-.004-.21-.007-.419 0-.628.003-.067.005-.134.003-.201a2.029 2.029 0 0 0 0-.156.813.813 0 0 1 .024-.241.178.178 0 0 0 .031-.136c.043-1 .373-1.973.849-2.848.095-.15.172-.318.303-.441a.169.169 0 0 0 .081-.112l.062-.088a.163.163 0 0 0 .088-.107l.043-.097.066-.058a1.11 1.11 0 0 0 .155-.128 2.898 2.898 0 0 0 .203-.194c.049-.033.066-.077.051-.131.053.004.094-.018.123-.067l.087-.071zm13.546-.061c.972-.778 2.206-1.152 3.437-1.218h.257l.136-.001.259-.003.19.025a.175.175 0 0 0 .137.03c.845.016 1.665.312 2.404.706.239.148.502.28.688.496a.15.15 0 0 0 .111.081l.101.034c.138.133.276.266.406.408l.036.1c.01.05.038.086.085.109.931 1.089 1.355 2.542 1.44 3.955l.001.115a.485.485 0 0 0 .026.173c.043.309.039.627-.002.936a.728.728 0 0 0-.019.223l.002.292c-.011.851-.266 1.681-.598 2.459-.193.437-.423.867-.743 1.225a.18.18 0 0 0-.094.101.602.602 0 0 1-.087.102l-.27.249-.057.048a1.193 1.193 0 0 0-.18.169l-.069.068a.123.123 0 0 0-.066.12l-.001.063-.032-.039c-.032-.073-.115-.028-.119.035a.295.295 0 0 1-.096.127 5.545 5.545 0 0 1-3.072 1.005.728.728 0 0 0-.197-.019c-.191 0-.377.005-.566-.001a2.307 2.307 0 0 0-.144-.004.173.173 0 0 0-.137.034c-.928-.039-1.84-.336-2.638-.808a2.066 2.066 0 0 1-.577-.465.147.147 0 0 0-.103-.095l-.139-.074a6.642 6.642 0 0 1-.316-.312l-.037-.101a.13.13 0 0 0-.092-.102.22.22 0 0 1-.109-.09.183.183 0 0 0-.084-.109c-.752-.961-1.125-2.175-1.259-3.376-.014-.142-.022-.282-.032-.423a1.523 1.523 0 0 1-.001-.191l.004-.109c-.005-.3-.007-.599-.005-.899.001-.048 0-.096-.004-.144l.027-.165a.18.18 0 0 0 .031-.137c.064-1.344.513-2.697 1.349-3.762.04-.039.075-.096.056-.154.052.016.092-.002.12-.053l.056-.065c.115-.117.231-.234.353-.345a.173.173 0 0 0 .098-.097l.05-.057.085-.067m3.364.309c-.827.038-1.662.348-2.274.911-.069-.059-.177.028-.161.109-.088-.071-.218.068-.157.154-.05.052-.09.112-.131.17a.45.45 0 0 0-.094.139c-.089-.01-.117.027-.084.11-.116.103-.192.242-.267.376a6.22 6.22 0 0 0-.738 2.648c-.09-.021-.095.133-.027.164a.381.381 0 0 0-.004.339v.142c-.052.1-.049.24.004.339-.068.031-.064.185.026.164l.001.112c.004.145.01.29.027.434.137.964.451 1.957 1.115 2.69-.022.088.011.12.099.097-.07.077.058.208.136.14l.059.063c-.074.077.058.207.136.136-.019.089.015.12.102.094.621.575 1.495.821 2.325.872l-.035.002c.21-.004.421-.011.633-.021h-.126a6.616 6.616 0 0 1-.908-.672c.033-.083.006-.119-.081-.11-.193-.432-.356-.881-.428-1.35.102-.017.106-.181.016-.217.014-.111.022-.222.024-.333.104.007.11-.172.022-.202.045-.306.034-.62-.002-.926.09-.029.085-.21-.02-.202a5.38 5.38 0 0 0-.177-1.107c.065-.063.057-.108-.027-.137l-.017-.369c.1-.025.1-.192.001-.22.008-.116.01-.232.006-.348.076 0 .098-.036.065-.109a.27.27 0 0 1 .041-.006c.224.29.603.483.974.38.238-.02.377-.237.525-.397a5.16 5.16 0 0 0-.036-.074c.533-.509.201-1.493-.516-1.623.056-.038.065-.086.029-.142l.079-.036c.109.104.254.091.39.061l-.017-.231-.143.056c.307-.19.659-.277 1.001-.379.022.081.177.069.169-.021.157.01.31.008.469-.002.031.082.076.09.138.024.5.128.968.339 1.427.571 0 .089.04.112.12.068l.063.057-.218.102c.04.036.082.072.124.107-.055.058-.045.099.031.122l.239-.054-.074-.054c.07.047.143.09.212.14.111.601.247 1.225.041 1.824-.272.852-.583 1.711-.62 2.614.019.628.03 1.257.004 1.886.324-.412.611-.861.795-1.353.031-.07.06-.141.09-.211.319.109.656.193.996.151.236-.09.29-.364.209-.581.001-.075-.033-.098-.102-.069l-.065-.005c-.013-.114-.219-.137-.276-.046-.118-.033-.234-.073-.352-.107.015-.082-.017-.112-.097-.09l-.085-.269c.076-.036.081-.082.014-.137a.741.741 0 0 0 .039-.269c.092.01.105-.149.022-.17a.77.77 0 0 0-.007-.407c.075-.042.077-.087.005-.133a4.959 4.959 0 0 0-.165-1.892c.089 0 .064-.151-.018-.145.038-.073.021-.119-.053-.136a1.444 1.444 0 0 0-.232-.684 4.506 4.506 0 0 0-.609-1.055c.067-.039.022-.175-.057-.154-.013-.08-.054-.097-.121-.051a8.353 8.353 0 0 0-.302-.321 2.963 2.963 0 0 0-.058-.048c.086-.054-.064-.167-.087-.066a3.9 3.9 0 0 0-2.08-.822c.042-.091-.145-.102-.112-.007l-.1-.007c-.191-.01-.382-.02-.572-.028-.068-.053-.106-.039-.113.041m2.551 2.773c-.083-.038-.121-.012-.114.078a.173.173 0 0 0-.097.096c-.09-.006-.116.032-.076.115-.251.341-.191.822.017 1.168.184.729 1.346.763 1.597.064l-.027-.071a.689.689 0 0 0 .218-.56c.102.028.096-.179-.004-.146a.791.791 0 0 0-.113-.41c.036-.083.009-.121-.08-.112-.293-.399-.912-.512-1.32-.224m-1.735 1.541c-.004.098-.008.195-.014.293.024.077.065.087.126.03a.677.677 0 0 0 .152.09c-.03.071-.006.12.068.145a4.875 4.875 0 0 0-.068.204 6.833 6.833 0 0 1-.5-.151l-.066.12c.027.074.068.081.124.023.189.154.274.383.384.593.072.168.325.051.442.13.05-.111.14-.218.13-.346.08-.032.088-.078.024-.137.103-.193.25-.356.392-.521l-.127-.091a2.922 2.922 0 0 0-.165.203c-.08-.034-.117-.008-.111.078-.099.018-.196.04-.295.055l-.041-.104c.132-.137.3-.23.462-.327-.041-.104-.065-.222-.144-.304-.228-.163-.533-.084-.771.017m-1.566.265-.041-.019-.001.189.133.03.043-.169c.049-.09-.142-.132-.135-.03m4.423.348.047-.04c.039.067.174.024.156-.056a2.654 2.654 0 0 0-.128-.11 2.108 2.108 0 0 0-.075.206m-2.69 1.327-.167.017c-.067-.061-.112-.049-.135.036a1.16 1.16 0 0 0-.542.164c-.077-.076-.209.058-.133.134-.195.202-.236.5-.289.764-.023.301-.05.605-.008.905-.064.058-.055.101.026.131l.026.176c-.088.032-.079.209.024.203-.002.254.062.525.249.707.081.088.167.171.259.247-.028.078-.001.106.082.084l.118.052c.328.269.792.368 1.21.33.04.091.194.089.25.011.029.07.178.054.157-.032.086 0 .17-.011.254-.035l.099.067c.093-.064.19-.127.268-.21.092.072.246-.072.178-.167.284-.225.334-.619.37-.956.102.01.118-.166.033-.201l.035-.152c.011-.223.004-.446.004-.668a.605.605 0 0 0-.043-.188c.063-.064.053-.11-.03-.137a2.023 2.023 0 0 0-.26-.904c.088-.077-.038-.24-.131-.164-.237-.136-.514-.182-.777-.236a5.314 5.314 0 0 0-.416-.028l-.121.002c-.157 0-.317.001-.472.003-.068-.052-.106-.037-.114.042zM48.75 4.37c.27-.288.69-.356 1.065-.385l.239.004.122.004c.327.038.666.122.934.324.074.063.147.127.223.19a.115.115 0 0 0 .033.137c.273.307.403.709.559 1.082.935 2.343 1.893 4.676 2.826 7.02.088.21.146.439.288.621.047.045.081.032.103-.035 1.042-2.664 2.13-5.312 3.193-7.968.106-.238.201-.487.367-.693a.674.674 0 0 0 .096-.139l.178-.172c.263-.246.634-.324.98-.366l.121-.004c.079 0 .159-.002.239-.004.355.028.747.091 1.023.338.035.046.078.057.128.032-.022.05-.008.092.041.126.266.285.394.671.425 1.053a1.137 1.137 0 0 0-.001.143c.006 3.468.002 6.937.002 10.404a.99.99 0 0 0 .003.144c.007.235-.059.485-.23.654-.048.03-.065.071-.053.123l.009.055-.056-.008c-.052-.01-.093.008-.122.055-.149.174-.407.18-.615.191-.111-.005-.191-.002-.288-.002-.235-.006-.501-.04-.665-.224a1.686 1.686 0 0 0-.132-.135c-.256-.258-.265-.643-.262-.981-.013-2.535.022-5.07-.014-7.605-.45.955-.808 1.952-1.222 2.922l-1.971 4.821c-.091.184-.144.399-.294.546a.173.173 0 0 0-.09.105c-.169.175-.412.334-.668.322a.178.178 0 0 0-.14-.033h-.113a.183.183 0 0 0-.14.033c-.225-.001-.482-.086-.608-.284a.15.15 0 0 0-.099-.095c-.155-.078-.203-.266-.285-.405-.88-2.155-1.759-4.312-2.641-6.466-.2-.487-.378-.985-.623-1.452l-.015-.038c-.078 2.693-.03 5.389-.023 8.084-.024.197-.107.41-.276.526a.515.515 0 0 0-.142.129c-.139.193-.384.258-.61.241a1.68 1.68 0 0 0-.292-.002c-.288.042-.58-.098-.766-.313a.18.18 0 0 0-.092-.103c-.141-.135-.195-.34-.21-.529.022-3.589 0-7.178.012-10.767l-.005-.109c.056-.33.123-.701.384-.938.06-.054.117-.111.171-.171zm-11.861.029c.155-.162.404-.187.615-.224 1.538.015 3.078.004 4.617.012l.11-.006.117.003.113.009c.822.08 1.641.323 2.332.786a.985.985 0 0 1 .24.22c.035.059.08.069.134.031.095.107.194.213.294.318a.119.119 0 0 0 .052.131c.497.557.774 1.315.81 2.059a.171.171 0 0 0 .032.136l.032.137c.001.171.008.344.005.516-.002.724-.246 1.432-.614 2.048a1.085 1.085 0 0 1-.245.298.183.183 0 0 0-.101.094l-.043.051a30.538 30.538 0 0 1-.253.253 2.381 2.381 0 0 1-.052.043.18.18 0 0 0-.092.102c-.198.217-.474.352-.743.46-.072.005-.117.085-.059.139.566.939 1.081 1.909 1.653 2.845.179.344.414.684.451 1.08 0 .153.01.309.005.464a1.072 1.072 0 0 1-.238.441 2.491 2.491 0 0 0-.169.172c-.227.23-.556.339-.878.313a2.19 2.19 0 0 0-.181-.002c-.261.011-.552-.044-.728-.255a1.736 1.736 0 0 0-.13-.14.2.2 0 0 0-.094-.102c-.23-.233-.352-.549-.516-.828a736.822 736.822 0 0 0-1.664-3.007c-.089-.169-.18-.337-.243-.516l-.04-.112a85.629 85.629 0 0 0-2.377-.009c-.005 1.316-.004 2.633.011 3.95-.022.234-.117.481-.309.627a.173.173 0 0 0-.096.099c-.208.22-.529.306-.826.294a8.288 8.288 0 0 0-.223 0c-.293.01-.62-.076-.823-.298a.184.184 0 0 0-.097-.097 1.103 1.103 0 0 1-.308-.677c.018-3.616.014-7.234.002-10.85.036-.264.081-.563.274-.762a.162.162 0 0 0 .085-.109l.05-.05a.154.154 0 0 0 .107-.087m2.179 1.823a56.66 56.66 0 0 0 .007 4.244l.001-.036c.794-.001 1.594.052 2.385-.027.031.092.175.078.219.003.422-.003.883-.139 1.202-.419.089.007.115-.032.079-.115.072.071.211-.046.148-.127.327-.261.452-.717.457-1.12.079-.013.089-.055.032-.125a.311.311 0 0 0 0-.311c.055-.072.042-.114-.037-.123-.049-.36-.157-.745-.411-1.016l-.047-.125c.081-.084-.109-.229-.161-.129-.368-.317-.854-.463-1.33-.506-.845-.068-1.693-.039-2.538-.035l-.004-.035zm-36.627.31c.169-.194.268-.496.524-.586 1.939.021 3.877.006 5.817.013-.008.14-.015.279-.025.419-.019.062-.044.121-.068.181-1.069-.028-2.14.011-3.208-.025a29.215 29.215 0 0 0-2.989-.004l-.048.002z"/>
    <path d="M29.451 6.337c.092-.031.184-.061.277-.087.009.066.046.093.112.08.019.105.039.21.061.315a.223.223 0 0 0 .021.212l.014.083-.111-.01.01-.129c.019-.062.002-.112-.053-.149a17.6 17.6 0 0 1-.053-.182c-.004-.07-.038-.108-.102-.114l-.177-.018zm.779.2.259.001a.17.17 0 0 0 .029.134c-.087.006-.174.009-.26.012-.032.081-.062.163-.092.245l-.145.009.003-.091c.031-.074.061-.147.089-.222.072.014.111-.016.117-.089zm-1.101.173c.115-.043.233-.078.351-.115l.119.081c.011.078.026.155.04.232a15.196 15.196 0 0 1-.071-.008 5.32 5.32 0 0 0-.438-.191zM.467 7.427l.115.001c2.136.008 4.272.011 6.408-.003.443 0 .889.015 1.324.105a6.804 6.804 0 0 1-.181.482l-.045-.001c-.214-.005-.427-.014-.64-.015-1.514-.041-3.03-.013-4.544-.022-.945 0-1.89.006-2.835-.008l.045-.014c.052-.012.082-.046.091-.1a.552.552 0 0 1 .1-.177.839.839 0 0 0 .114-.124c.049-.032.065-.073.048-.124zm26.877.457c.093-.046.084.128-.007.087l-.031-.022.038-.065zM4.382 8.893c1.137.029 2.274.03 3.412-.002l.051-.001c-.006.1-.012.2-.021.3a1.773 1.773 0 0 0-.008.179l-.005.171-.059-.003a39.36 39.36 0 0 0-2.09-.039c-.533.002-1.066.009-1.599.031l-.05.001c.076-.16.134-.332.243-.475a.942.942 0 0 0 .084-.105l.042-.057zm21.465 1.366c.091-.072.198-.015.265.06-.081-.001-.164-.001-.239-.035l-.026-.025zm-.389.14.054-.006a.23.23 0 0 1-.178.186.27.27 0 0 1 .124-.18zm1.1.175.028-.005c.042.064.053.14.061.214-.066-.045-.14-.125-.088-.209zm-.229 1.02.151.069.053.188a.191.191 0 0 0-.172-.052l-.214.026.013-.032c.052-.07.108-.136.169-.198zm-.508.161c.07-.064.156-.068.255-.011l-.012.032-.159.033-.084-.054z"/>
  </g>
  <path d="M29.047 3.961c.063-.064.109-.054.137.03a.171.171 0 0 1-.137-.03zm8.458.215c1.232-.087 2.467-.016 3.702-.046.295.014.6-.029.893.032l.022.026c-1.539-.008-3.078.002-4.617-.012zm-.735.274.119-.05a.158.158 0 0 1-.107.087l-.012-.037zm-.075.075.037.011a.162.162 0 0 1-.085.109l.048-.12zm14.638-.017.037.018-.004.119c-.043-.037-.054-.083-.033-.137zm-19.057.686.121.043-.009.038a.147.147 0 0 1-.111-.081zm12.757.006.023-.03.111.061c-.054.038-.098.028-.134-.031zm-25.754.092.117.002.048.131a.367.367 0 0 1-.165-.133zm4.901.434c.113-.119.227-.239.353-.345a8.845 8.845 0 0 0-.353.345zm-13.423-.042c-.045-.108.097-.239.203-.194a2.898 2.898 0 0 1-.203.194zM45.46 5.55l.041.013.011.119a.12.12 0 0 1-.052-.131zm-25.667.143.032.022-.03.104c-.048-.043-.049-.085-.002-.127zm13.137.126.038-.01.047.119a.15.15 0 0 1-.085-.109zm-30.005.129c1.951-.082 3.905-.026 5.857-.032l-.002.044c-1.939-.007-3.878.008-5.817-.013h-.038zm7.531.007.037.012a.158.158 0 0 1-.088.107l.05-.119zm-.193.319c-.034-.082-.007-.12.081-.112a.169.169 0 0 1-.081.112zm5.3-.086c.027-.063.103-.06.135-.003l-.135.003zm15.544.105c.023-.101.172.012.087.066a4.99 4.99 0 0 1-.087-.066zm7.961-.069.004.035.005.043c.027 1.361.015 2.723 0 4.085l-.001.045-.001.036a56.66 56.66 0 0 1-.007-4.244zm-13.529.419c-.061-.086.069-.225.157-.154l.012.025-.041.04c-.043.03-.086.058-.128.089zm-23.05-.111c.995-.047 1.993-.05 2.989.004-.996.016-1.993.031-2.989-.004zm27.623.096c.015-.064.054-.093.117-.089-.006.073-.045.103-.117.089zm.376-.088c.092-.03.134.142.029.134-.029-.041-.038-.086-.029-.134zm-.705.112c.055.037.072.087.053.149l-.039-.003-.014-.146zm.118-.006c.05.057.084.15.021.212a.222.222 0 0 1-.021-.212zm13.04.153c.053-.1.242.045.161.129l-.032.007c-.043-.046-.085-.092-.129-.136zm-11.266-.02c.079-.021.124.115.057.154-.041-.04-.076-.096-.057-.154zm-14.393.075c.129.094.237.213.349.327l-.034-.003c-.113-.1-.213-.214-.315-.324zm-4.396.233a.138.138 0 0 1 .107-.108c.009.08-.027.116-.107.108zm16.614.071a.28.28 0 0 1 .169-.021c.008.09-.147.101-.169.021zm.638-.023a.177.177 0 0 1 .138.024c-.062.066-.107.059-.138-.024zM.582 7.429c1.067-.087 2.139-.03 3.208-.043 1.499.009 2.998-.022 4.497.016.02.046.039.091.06.136l-.033-.007c-.435-.09-.881-.105-1.324-.105-2.136.015-4.272.011-6.408.003zm27.579.4c-.124-.017-.063-.134.029-.142.036.057.027.104-.029.142zm3.541-.1a.178.178 0 0 1 .12.068c-.079.044-.12.021-.12-.068zm14.62.01c.083.026.094.071.032.136a.167.167 0 0 1-.032-.136zM.114 7.953c-.022-.081.009-.114.091-.1-.009.054-.039.088-.091.1zm31.795-.078c.118.113.217.242.321.367l-.033-.025c-.068-.05-.141-.094-.212-.14l-.064-.043a.17.17 0 0 0-.013-.159zm-31.84.092c.945.014 1.89.008 2.835.008v.05c-.945-.016-1.894.056-2.835-.058zm27.193.087.044-.104.031.022c.023.082-.002.109-.075.083zm16.298.013c.079.009.092.05.037.123l-.027.001-.01-.124zm-12.991.251c-.007-.09.031-.116.114-.078a.194.194 0 0 1-.114.078zm20.031.004.015.038c.001 2.071-.009 4.142-.001 6.212.002.611.012 1.223-.037 1.833-.007-2.694-.055-5.391.023-8.084zm-20.204.208c-.039-.083-.014-.121.076-.115a.194.194 0 0 1-.076.115zm1.607-.065c.089-.008.116.029.08.112a.183.183 0 0 1-.08-.112zm11.568.036h.027c.058.07.047.111-.032.125l.005-.125zm-10.998.17c.074.018.092.064.053.136l-.03.013-.047-.087.023-.063zm-4.215.181c-.005-.062.024-.092.087-.088.016.074-.013.103-.087.088zm4.239-.032.03-.013c.082-.006.107.145.018.145a1.281 1.281 0 0 1-.047-.131zm-2.223.313c-.103.028-.096-.179.005-.145 0 .048-.002.097-.005.145zm1.821-.146c.1-.033.106.174.004.146a1.424 1.424 0 0 1-.004-.146zm-.993.094c.023-.054.061-.074.114-.061-.006.08-.044.1-.114.061zm-2.558.497c-.027-.049-.016-.091.033-.126l.036.074-.069.051zm-19.563.119c-.064-.064-.053-.109.031-.136a.178.178 0 0 1-.031.136zm18.027-.038c-.012-.062.009-.098.065-.109.032.072.011.109-.065.109zm.225-.124c.073-.001.101.036.084.112-.062-.015-.09-.052-.084-.112zm4.538.333c-.002-.077.051-.135.111-.176l.027.071a.258.258 0 0 1-.138.105zm-9.301.028c-.064-.064-.053-.11.031-.137a.177.177 0 0 1-.031.137zm5.142-.11c.044-.055.097-.06.16-.016-.051.045-.104.051-.16.016zm.302.014c.017-.065.135-.097.134-.005l-.134.005zm-.913.426.001-.22c.098.027.099.194-.001.22zm7.357-.231.035.002c.062.062.059.119-.009.171a.488.488 0 0 1-.026-.173zm-10.259.254c-.068-.032-.063-.186.027-.164.001.055-.001.11-.005.165h-.022zm4.735-.174c.047-.025.089-.015.126.03-.06.057-.102.047-.126-.03zm-17.141.92c-.006-.29.008-.581.015-.87-.002.29-.007.58-.015.87zm17.418-.8c.07.012.111.083.068.145-.074-.025-.097-.074-.068-.145zm-20.162.119.006-.019c-.007.209-.004.418 0 .628l-.004-.017c-.038-.194-.071-.401-.003-.592zm20.69.132c-.006-.086.031-.112.111-.078a.132.132 0 0 1-.111.078zm-3.378.027c.089-.108.199-.005.225.096l-.028.005a.804.804 0 0 1-.198-.101zm3.083.028c-.072.037-.11-.077-.041-.104l.041.104zm-.799.012c.047-.032.088-.025.124.023-.056.058-.097.051-.124-.023zm-8.032.04c.086-.023.119.009.099.096a.17.17 0 0 1-.099-.096zm6.507.041c.083.029.092.075.027.137-.027-.042-.036-.088-.027-.137zm2.156.133c.022-.072.061-.077.118-.015l-.003.036-.115-.021zm.45.187a.146.146 0 0 1 .024-.137c.064.06.057.105-.024.137zm3.085-.071c.072.046.07.091-.005.133l-.022-.028.027-.105zm-7.673.316.088-.215c.021.092.039.211-.05.274l-.037-.059zm1.55-.224c.042.096.05.192.022.289-.099-.067-.073-.201-.022-.289zm18.45.337a30.538 30.538 0 0 0 .253-.253 3.217 3.217 0 0 1-.253.253zm-20.936-.203h.022c.004.055.006.11.004.165-.091.02-.094-.134-.026-.164zm10.26.258a.76.76 0 0 1 .019-.223c.076.044.073.173.003.223h-.023zm-19.004.106c-.109-.008-.112-.258-.003-.269l.003.269zm17.332.121a.364.364 0 0 1 .022-.17c.083.022.07.181-.022.17zm-10.24-.15zm-13.487.088c.009.145.017.288.03.435a5.296 5.296 0 0 1-.03-.435zm11.958.052.027.022c.043.138.015.285-.015.422l-.003.014c0-.153-.003-.306-.008-.459zm5.339.256a.188.188 0 0 1 .172.052c-.057.045-.174.042-.172-.052zm.961.04c.105-.008.11.173.02.202a.806.806 0 0 1-.02-.202zm5.415.121a.135.135 0 0 1 .014-.137c.067.055.062.101-.014.137zm-.443.056c.047-.047.119-.101.189-.061-.02.085-.125.073-.189.061zm-.2.146c-.02-.092.085-.141.161-.14a.182.182 0 0 1-.161.14zm-15.765.024c.692-.025 1.389-.056 2.076.057l-.033-.001c-.68-.04-1.363-.013-2.043-.056zm16.493.043c.081-.022.113.008.097.09-.055-.007-.087-.037-.097-.09zm6.22.13a85.614 85.614 0 0 1 2.377.009l.04.112c-.784-.121-1.579-.07-2.368-.071-.032 1.3.056 2.603-.038 3.9a260.012 260.012 0 0 1-.011-3.95zm-5.771.067c.058-.091.263-.068.276.046a1.56 1.56 0 0 1-.276-.046zm.342.051c.069-.029.104-.006.102.069-.061.016-.096-.007-.102-.069zm-1.402.211c.059.105.119.21.16.323-.049-.11-.107-.216-.16-.323zm-4.888.481a.724.724 0 0 1 .022-.202c.088.03.082.21-.022.202zm-.04.55.016-.217c.09.036.086.2-.016.217zm-14.485.284.031-.015c.083-.011.151.104.095.168a.931.931 0 0 1-.126-.154zm4.825.201.111-.008a.243.243 0 0 1-.142.137l-.012-.032.044-.097zm-4.557.1c.071-.065.211.04.156.124a.57.57 0 0 1-.156-.124zm12.304.164c.044.02.078.053.099.097-.089.023-.122-.009-.099-.097zm.43.436c.045.019.079.05.102.094-.087.026-.121-.005-.102-.094zm1.91.165c.088-.009.115.028.081.11a.157.157 0 0 1-.081-.11zm-17.25.185c.05.019.08.055.09.108l-.038.008-.052-.116zm13.575.147c.05.016.08.05.092.102l-.037.011-.055-.113zm-4.303.208a.136.136 0 0 1 .096-.104l-.065.115-.032-.011zm12.94.145.27-.249c-.037.039-.072.08-.112.116a6.537 6.537 0 0 1-.159.132zm-3.973.097h.126c-.211.01-.422.017-.633.021l.035-.002c.158-.01.313-.016.472-.019zm3.737.119c.054-.062.114-.119.18-.169l-.002.116c-.024.065-.125.103-.177.053zm13.86-.03c0 .154.01.31.005.464.005-.155-.004-.311-.005-.464zm-35.122.046a.132.132 0 0 1 .108.09l-.116-.052.007-.037zm8.069.094a.135.135 0 0 1 .105-.094l.011.033a6.47 6.47 0 0 0-.116.061zm5.376-.09c.05.014.085.046.103.095l-.115-.061.012-.034zm7.529.227c.004-.063.087-.108.119-.035l-.119.035zm-13.148.047c.006-.065.101-.102.116-.02l-.116.02zm35.165.418a.15.15 0 0 1 .099.095c-.086.022-.119-.01-.099-.095zm-4.007.378a.5.5 0 0 1 .142-.129c.064.078-.07.199-.142.129zm4.854-.032h.113l.003.037h-.12l.003-.037zm-5.755.27c.098-.009.183-.006.292.002-.052.107-.237.099-.292-.002zm11.323-.007c.097 0 .177-.003.288.002-.046.114-.237.102-.288-.002zm-45.605.038c.192.008.383.006.576.006l-.015.002c-.177.015-.367.08-.539.008l-.022-.016zm13.243-.001c.189.006.375.002.566.001l-.022.015a.84.84 0 0 1-.522 0l-.022-.016z" opacity=".78" fill="#2a84b8"/>
  <path d="M49.817 3.985c.012-.093.187-.097.238-.025l.001.029c-.08 0-.16-.002-.239-.004zm10.26-.025c.05-.072.224-.068.238.025l-.239.004.001-.029zM42.1 4.162c.055-.065.099-.059.132.02l-.11.006-.022-.026zm6.48.38c-.074-.094.077-.245.171-.171a1.971 1.971 0 0 1-.171.171zm12.886-.186c.077.02.091.062.041.126-.049-.033-.063-.075-.041-.126zM24.536 5.38c-.021-.087.012-.119.098-.097a.173.173 0 0 1-.098.097zm-13.573.109c-.043-.068-.026-.112.051-.131.015.054-.001.097-.051.131zm17.955-.027c-.032-.095.154-.084.112.007l-.112-.007zm7.414 2.415c.002-.824-.027-1.649.041-2.471.012 3.616.016 7.234-.002 10.85-.065-.823-.037-1.648-.038-2.472V7.876zM48.173 5.61l.027-.022c-.013 3.589.01 7.178-.012 10.767-.072-.904-.033-1.812-.039-2.718-.004-2.462.006-4.923-.007-7.385.011-.213-.02-.433.032-.642zm-37.57.199c-.062-.085.081-.194.155-.128a1.198 1.198 0 0 1-.155.128zm4.267.352a.15.15 0 0 1 .146.005l-.028.032-.119-.037zm14.858.088c.066-.018.103.008.112.08-.066.013-.103-.013-.112-.08zm1.826.476c.067-.046.107-.029.121.051-.052.016-.092-.001-.121-.051zm-1.757.071.039.003a5.194 5.194 0 0 0-.01.129l-.034-.003.006-.128zm-9.194.576c.008.139.006.279 0 .417a9.662 9.662 0 0 0 0-.417zM.419 7.551c-.047-.067-.031-.109.048-.124.018.051.001.092-.048.124zm2.485.423c1.515.009 3.03-.019 4.544.022l-.037.001c-1.502.059-3.005.015-4.508.028v-.05zm40.666.216.027-.001a.311.311 0 0 1 0 .311h-.027v-.31zm-24.3.486c.083.002.167.006.254.012-.039.108-.218.092-.254-.012zm-13.608.822c.697 0 1.394.001 2.09.039-.697.019-1.393.016-2.09.016v-.055zm28.794.383c.078.011.091.05.037.117l-.035-.002-.001-.115zm8.427.107a.19.19 0 0 1 .079-.115c.036.083.01.122-.079.115zm-33.853.11.028-.003c.001.067 0 .134-.003.201l-.006.019c-.079-.036-.084-.165-.018-.217zm7.458.12c.836-.062 1.677-.012 2.515-.032.23.015.473-.031.697.039l.024.017a272.171 272.171 0 0 0-3.258.003l.022-.028zm7.711.032h.022v.339l-.026-.001a.381.381 0 0 1 .004-.339zm17.285.138a.732.732 0 0 1 .197.019c-.044.074-.188.088-.219-.003l.022-.015zm-17.288.342.025-.001.001.339H24.2a.378.378 0 0 1-.004-.339zm-15.144.176.004.017c.003.069.005.139.002.209l-.024-.002c-.068-.054-.065-.186.017-.224zm25.41.421h.023c.068.067.078.27-.021.292l-.002-.292zm-13.436.107c.079.031.087.074.023.131l-.027-.022.004-.109zm-5.398.373a.5.5 0 0 1 .13.141c-.078.064-.199-.068-.13-.141zm5.402.195.003-.014c.081.059.086.202.013.271l-.023.002a4.401 4.401 0 0 1 .006-.258zm-2.638.493.03-.003a.81.81 0 0 1-.029.224c-.069-.049-.068-.17-.001-.221zm36.649.871c.015-.073.049-.085.103-.035-.022.068-.056.08-.103.035zm-42.118.79c.082-.06.205.067.143.148a1.428 1.428 0 0 1-.143-.148zm12.546.409c.049.043.095.089.136.14-.078.068-.206-.063-.136-.14zm.195.203c.048.042.093.088.136.136-.078.071-.21-.06-.136-.136zm-14.981.758zm27.965 1.508a.168.168 0 0 1 .096-.099c.023.086-.009.12-.096.099zm16.22.028a.182.182 0 0 1 .14-.033l-.003.037-.136-.004zm.251-.032a.186.186 0 0 1 .14.033l-.136.003-.003-.037zm-40.289.295c.048 0 .096.002.144.005l.022.016c-.048.068-.103.073-.165.014v-.036zm.719.011c.063-.004.127-.009.191-.01l.002.034c-.046.074-.175.054-.208-.022l.015-.002zm12.524-.011c.047 0 .096 0 .144.004l.022.016c-.047.068-.102.073-.165.016v-.036zm.709.005a.728.728 0 0 1 .197.019c-.044.074-.188.087-.219-.004l.022-.015z" opacity=".54" fill="#1e628a"/>
  <g fill="#040709">
    <path d="M28.149 7.417c.466-.189.928-.394 1.418-.516l.071.008.153.016.034.003.111.01h.084l.145-.009c.651.068 1.218.406 1.798.678-.013.069.019.111.096.125.095.083.19.166.282.253.126.2.224.45.232.684l-.023.063c-.099-.169-.195-.34-.319-.491-.104-.125-.204-.255-.321-.367l-.024-.021a3.245 3.245 0 0 1-.063-.057.179.179 0 0 0-.12-.068c-.458-.232-.927-.444-1.427-.571a.177.177 0 0 0-.138-.024 3.338 3.338 0 0 1-.469.002.28.28 0 0 0-.169.021c-.342.102-.694.19-1.001.379-.077.037-.154.077-.23.114l-.079.036c-.092.008-.153.125-.029.142.717.13 1.049 1.114.516 1.623-.049.035-.06.077-.033.126a12.19 12.19 0 0 1-.496.217c.001-.092-.117-.06-.134.005a5.925 5.925 0 0 0-.142-.03c-.063-.044-.116-.038-.16.016a3.846 3.846 0 0 0-.295-.139c.017-.075-.01-.113-.084-.112a4.35 4.35 0 0 0-.159.015c-.056.011-.078.047-.065.109.004.116.002.232-.006.348l-.001.22.017.369a.184.184 0 0 0 .027.137c.097.36.156.735.177 1.107a.81.81 0 0 0 .02.202c.036.306.047.62.002.926a.689.689 0 0 0-.022.202c-.001.111-.01.222-.024.333l-.016.217c.071.47.235.918.428 1.35.01.049.037.086.081.11.286.245.583.479.908.672-.159.003-.314.009-.472.019l-.251-.212c-.023-.067-.07-.097-.14-.091l-.108-.162c-.026-.07-.072-.095-.137-.075a5.682 5.682 0 0 1-.492-1.287c.04-.06.035-.116-.013-.168-.008-.166-.02-.334-.029-.499.075-.016.099-.102.085-.168-.016-.276-.025-.553-.036-.829a6.781 6.781 0 0 0-.139-.026.266.266 0 0 0-.185.028c-.237-.064-.51-.051-.72-.192-.064-.115-.034-.253-.023-.377l.105.013.214-.026c-.001.094.115.097.172.052.181-.078.363-.155.543-.237a46.488 46.488 0 0 1-.153-.97.192.192 0 0 0-.033-.215 66.924 66.924 0 0 0-.03-.64c.067-.016.094-.062.081-.136.012-.132.027-.265.042-.397A.122.122 0 0 0 27 9.051a8.64 8.64 0 0 0-.062-.141c.095-.042.094-.176.026-.241.018-.095.035-.19.049-.285.004-.066-.031-.102-.105-.108-.025-.109-.06-.219-.047-.332.06-.143.202-.225.311-.326.034.101.16.091.242.064.111.025.223.052.335.072.111.03.188-.079.21-.174l.102-.035c.073-.015.102-.057.089-.127m-1.08.559.029.17.135.032.03-.125c.072.027.097-.001.075-.083.092.041.1-.133.007-.087l-.275.092m.69-.013c-.409.067-.698.507-.662.903-.064.064-.054.109.03.136.04.574.929.902 1.319.466.094.072.243-.079.171-.172.312-.265.196-.775-.025-1.065.023-.088-.009-.121-.096-.098-.198-.174-.486-.205-.737-.17m-1.616 4.027.003.122c.311.082.627.15.948.175.02-.174.035-.349.044-.523a3.916 3.916 0 0 1-.995.227z"/>
    <path d="M30.683 8.24c.408-.288 1.027-.175 1.32.224a.176.176 0 0 0 .08.112.805.805 0 0 1 .113.41c-.001.049 0 .097.004.146a.687.687 0 0 1-.218.56c-.06.041-.113.099-.111.176-.458.295-1.1.256-1.459-.169-.208-.347-.268-.828-.017-1.168a.194.194 0 0 0 .076-.115.173.173 0 0 1 .097-.096.194.194 0 0 0 .114-.078m-.104.282c-.089-.006-.115.032-.079.114a.605.605 0 0 0-.121.351c-.101-.034-.108.173-.005.145.003.374.317.77.71.776.038.103.219.112.252.002a.496.496 0 0 0 .41-.183c.075.068.204-.06.136-.136a.436.436 0 0 0 .17-.375c.108-.01.107-.259-.001-.268-.006-.713-1.094-1.001-1.472-.426zm-2.71.014a.295.295 0 0 1 .26-.263h.112c.246.014.26.305.27.489h-.065c-.063-.004-.092.026-.087.088v.068c-.18.023-.501-.025-.494-.271l.004-.112m.265.013.178.021a9.645 9.645 0 0 0-.021-.178l-.158.158z"/>
    <path d="M30.72 8.78c-.011-.243.429-.384.529-.14.029.044.062.1.123.101-.009.095-.017.19-.023.285l-.032-.007c-.054-.013-.092.007-.114.061-.125.217-.512.051-.481-.187l-.001-.113m.128-.017.118.118.118-.118-.118-.118-.118.118zm-1.901 1.019c.239-.1.543-.18.771-.017.079.083.103.2.144.304-.162.097-.329.191-.462.327-.068.027-.031.142.041.104.099-.015.196-.037.295-.055a.132.132 0 0 0 .111-.078c.051-.071.108-.137.165-.203l.127.091c-.142.165-.288.328-.392.521a.15.15 0 0 0-.024.137c.01.128-.08.235-.13.346-.117-.08-.37.038-.442-.13-.11-.21-.196-.439-.384-.593-.036-.048-.077-.055-.124-.023l.066-.12c.165.057.332.107.5.151.022-.068.044-.137.068-.204.043-.062.002-.133-.068-.145a.684.684 0 0 1-.152-.09c-.037-.045-.079-.055-.126-.03.006-.098.01-.195.014-.293m.326.946-.061-.023c.001.112.005.223.009.335.155.039.306 0 .405-.129l-.091-.252-.021.036-.124.018c-.057-.062-.096-.057-.118.015zm3.508.221.022.028a.77.77 0 0 1 .007.407.38.38 0 0 0-.022.17.72.72 0 0 1-.039.269.136.136 0 0 0-.014.137l.085.269c.01.053.043.083.097.09.118.033.233.074.352.107.089.024.181.039.276.046l.065.005c.007.062.041.085.102.069.081.217.027.491-.209.581-.34.042-.677-.042-.996-.151l-.09.211a1.69 1.69 0 0 0-.049-.176c-.041-.114-.101-.219-.16-.323-.094-.159-.102-.349-.117-.526a.182.182 0 0 0 .161-.14l.039-.005c.064.012.169.024.189-.061.135-.324.23-.663.3-1.006m-.498 1.127c-.06.17-.109.372.01.53.3.375.806.394 1.243.412.039-.137.069-.277.106-.415-.498-.043-.929-.294-1.359-.527z"/>
  </g>
  <g fill="#90d2f9">
    <path d="M28.269 7.65c.077-.037.154-.077.23-.114l.143-.056.017.231c-.136.03-.281.043-.39-.061zm3.398.305.218-.102c-.053.054-.032.15.037.179l.064.043.074.054-.239.054c.03-.049.019-.09-.031-.122a4.27 4.27 0 0 1-.124-.107zm-4.327 2.072.041.019a.218.218 0 0 0 .135.03l-.043.169a6.352 6.352 0 0 1-.133-.03l.001-.189zm4.464.367c.022-.069.046-.139.075-.206.043.035.086.072.128.11-.059-.016-.117.015-.156.056l-.047.04zm-5.932-.11c.075.034.158.034.239.035.083.05.166.101.248.154a.771.771 0 0 0 .198.101c-.052.084.022.164.088.209l.02.079c-.01.169-.016.34-.039.509a3.321 3.321 0 0 0-.053.103 1.39 1.39 0 0 0-.245.12 1.878 1.878 0 0 0-.169.198l-.084-.048c-.099-.057-.185-.053-.255.011-.118-.037-.234-.078-.351-.115.063-.1-.035-.242-.149-.175l-.03.011a4.734 4.734 0 0 1-.022-.102 5.19 5.19 0 0 1-.025-.498c.017-.064.036-.127.055-.19l.035-.108a.23.23 0 0 0 .178-.186c.078-.011.156-.025.234-.039.067.015.11-.009.127-.07m-.054.128c-.358.027-.584.435-.465.764.094.606 1.156.564 1.188-.048.099-.416-.308-.835-.724-.715z"/>
    <path d="M25.863 10.453c.451-.084.825.52.538.882-.238.326-.802.279-.965-.094a.56.56 0 0 1 .428-.788m.133.114c.134.175.251.362.328.57.032-.25-.114-.456-.328-.57zm3.704 1.109.121-.002c.136.006.278.015.416.028.263.054.541.1.777.236.042.055.086.11.131.164.153.273.249.59.26.904a.173.173 0 0 0 .03.137c.024.06.039.123.043.188.001.222.003.445-.004.668l-.035.152a.596.596 0 0 0-.033.201c-.036.336-.086.73-.37.956a1.563 1.563 0 0 0-.178.167c-.079.083-.175.145-.268.21.049-.07-.051-.104-.099-.067a.875.875 0 0 1-.254.035 1.33 1.33 0 0 0-.155.005l-.252.016c-.418.038-.881-.061-1.21-.33a.162.162 0 0 0-.105-.09l-.095-.047c-.089-.081-.174-.164-.259-.247-.187-.183-.251-.454-.249-.707a.693.693 0 0 0-.024-.203l-.026-.176.002-.11c-.01-.309-.021-.617-.02-.926.053-.264.094-.562.289-.764.047-.042.091-.087.133-.134.16-.103.353-.151.542-.164a.181.181 0 0 0 .135-.036l.167-.017.113-.006c.158-.017.313-.029.473-.039m-1.591 1.023c-.089-.012-.118.024-.085.108a.477.477 0 0 0-.061.225c-.11-.002-.103.229.008.221.014.084.041.164.067.245l.378-.016.031-.063c.078.06.19-.075.123-.145.094-.063.094-.184.112-.284-.034-.099-.274-.092-.279.019-.081.005-.161.013-.242.021l-.001.161c.103-.014.207-.028.312-.04l-.114.18-.259-.093-.025-.128c.084-.128.162-.26.242-.391.108.006.216.011.324.013l-.027-.017c.092-.04-.043-.163-.081-.074-.102-.155-.348-.092-.422.057m1.023-.092c-.298.029-.437.405-.369.664.113.206.381.222.581.267.081-.158.225-.297.244-.48.108-.002.097-.23-.009-.229l-.02-.051c.067-.078-.059-.21-.138-.142l-.108-.03c.019-.107-.203-.107-.182.001m.57.943c.099-.084.176-.188.248-.296l.135.027c-.008.085.028.112.109.081.033.053.07.104.107.156l.086-.159-.03-.014c.057-.08-.079-.188-.148-.121l-.03-.032.035-.112.115-.013c-.002-.096-.003-.191-.002-.286.055-.087-.101-.176-.159-.098a.264.264 0 0 0-.155-.069c-.024-.084-.068-.097-.134-.039l-.119-.085c-.144.333-.054.709-.06 1.059m.943-.901c-.055.221-.135.439-.155.668-.08-.052-.122.122-.027.11l-.018.038.17.026c.016-.13.032-.259.051-.388.022.062.061.081.116.058.02.107.05.211.086.314.046.097.188-.046.099-.1.09-.087.12-.213.175-.321-.037.052.024.173.088.115.004.107.013.214.022.321h.172c-.049-.215-.069-.437-.146-.643.064-.062.056-.107-.025-.137l.023-.118-.056.027c.003-.102-.187-.058-.134.032-.034.133-.073.265-.108.398l-.109-.027c-.017-.126-.045-.249-.072-.372.065-.128-.216-.128-.152 0z"/>
    <path d="m29.117 12.781.038-.02.112.001c.071 0 .142.002.214.006-.087.108.011.329-.125.42-.05.03-.066.07-.05.121l-.081-.018a.28.28 0 0 0-.149-.004 8.652 8.652 0 0 0-.146.022c-.007-.135-.024-.279.038-.406a2.067 2.067 0 0 0 .149-.123zm.772.193.072-.258c.079.07.157.142.235.214l-.132.095a39.584 39.584 0 0 1-.175-.051z"/>
  </g>
  <g fill="#46bbff">
    <path d="m27.069 7.976.275-.092-.038.065-.044.104-.03.125-.135-.032-.029-.17zm4.722.087c.05.032.061.072.031.122-.076-.023-.086-.064-.031-.122zm.407.154.033.025c.124.151.22.322.319.491l.047.087c.013.044.029.088.047.131.17.608.239 1.265.165 1.892l-.027.105c-.07.344-.165.682-.3 1.006-.069-.04-.141.014-.189.061l-.039.005c-.076 0-.181.049-.161.14.014.178.023.368.117.526.053.107.111.213.16.323.02.057.036.116.049.176-.184.492-.471.941-.795 1.353.026-.629.015-1.257-.004-1.886.036-.903.348-1.762.62-2.614.206-.599.07-1.223-.041-1.824zm-4.983 1.326.118-.009c-.006.06.022.097.084.112.1.042.199.089.295.139.056.034.109.029.16-.016l.142.03.134-.005c.167-.067.332-.142.496-.217l.069-.051c-.148.16-.287.377-.525.397-.371.103-.749-.089-.974-.38z"/>
    <path d="M30.412 9.698c.359.425 1.001.464 1.459.169a.258.258 0 0 0 .138-.105c-.25.699-1.413.664-1.597-.064zm-1.298 2.023c.007-.079.045-.094.114-.042v.036l-.113.006zm1.9.216c.093-.076.219.087.131.164a4.948 4.948 0 0 1-.131-.164zm.464 1.392c0 .222.006.445-.004.668.008-.223.005-.446.004-.668zm-3.64.412.028.021-.002.11c-.081-.03-.089-.073-.026-.131zm.583 1.465.095.047-.013.037c-.083.022-.11-.006-.082-.084zm1.661.45c.051-.005.102-.006.155-.005.021.086-.128.102-.157.032l.002-.027z"/>
  </g>
  <path d="m31.885 7.853.024.021a.17.17 0 0 1 .013.159c-.069-.029-.09-.126-.037-.179zm-4.504 2.193c-.007-.102.184-.06.135.03a.218.218 0 0 1-.135-.03zm-1.636.308.101-.095.026.025c-.017.062-.06.085-.127.07zm6.106 0c.039-.041.096-.072.156-.056.019.08-.117.123-.156.056zm-6.628.59.02-.067c-.001.166.01.331.025.498l-.095-.157c.089-.063.071-.182.05-.274zm1.442-.082.021.072c-.051.088-.078.222.022.289a7.02 7.02 0 0 0-.082.148c.024-.169.029-.34.039-.509zm-1.345.603c.113-.067.212.074.149.175l-.021-.006a.37.37 0 0 0-.128-.169zm1.008.129c.077-.048.16-.086.245-.12a8.294 8.294 0 0 0-.094.189l-.151-.069zm2.9.086c.155-.002.315-.003.472-.003-.16.01-.315.023-.473.039v-.036zm.593-.005zm-1.009.101c.023-.085.068-.097.135-.036a.183.183 0 0 1-.135.036zm-.675.298c-.076-.076.056-.21.133-.134a1.869 1.869 0 0 1-.133.134zm-.297 1.668c-.042-.3-.015-.604.008-.905-.001.309.01.617.02.926l-.028-.021zm3.566-.736c.083.027.093.073.03.137-.03-.042-.039-.088-.03-.137zm-3.515 1.043a.693.693 0 0 1 .024.203c-.103.006-.111-.172-.024-.203zm3.516.302a.597.597 0 0 1 .033-.201c.085.035.069.211-.033.201zm-3.244.608c.085.083.171.166.259.247a2.618 2.618 0 0 1-.259-.247zm.354.294a.162.162 0 0 1 .105.09l-.118-.052.013-.037zm2.342.221c.055-.06.113-.117.178-.167.068.096-.086.24-.178.167zm-.368.143c.048-.037.148-.003.099.067l-.099-.067zm-.66.056.252-.016-.002.027c-.056.077-.21.08-.25-.011z" fill="#63c4fc"/>
  <g fill="#fcfdfd">
    <path d="M27.759 7.963c.252-.035.539-.004.737.17.02.045.052.077.096.098.222.29.337.8.025 1.065a1.573 1.573 0 0 0-.171.172c-.39.437-1.279.108-1.319-.466a.177.177 0 0 0-.03-.136c-.036-.396.253-.836.662-.903m.37.311a.295.295 0 0 0-.26.263c-.093-.041-.099.147-.004.112-.007.246.314.293.494.271v-.068c.074.016.102-.014.087-.088h.065c-.01-.184-.024-.476-.27-.489.038-.094-.15-.094-.112 0zm2.45.249c.378-.575 1.466-.287 1.472.426l.001.268a.438.438 0 0 1-.17.375.627.627 0 0 0-.136.136.496.496 0 0 1-.41.183 6.208 6.208 0 0 0-.252-.002c-.393-.006-.707-.402-.71-.776.003-.048.004-.097.005-.145a.598.598 0 0 1 .121-.351.172.172 0 0 0 .079-.114m.141.258c-.094-.037-.093.151.001.113-.03.238.356.404.481.187.07.039.108.019.114-.061l.032.007c.006-.095.014-.19.023-.285.053-.068-.065-.16-.123-.101-.1-.244-.541-.103-.529.14z"/>
    <path d="m28.134 8.55.158-.158.021.178a9.645 9.645 0 0 1-.178-.021zm2.714.213.118-.118.118.118-.118.118-.118-.118zm-5.03 1.648c.416-.12.823.299.724.715-.032.612-1.095.654-1.188.048-.12-.328.106-.737.465-.764m.045.042a.56.56 0 0 0-.428.788c.163.373.728.42.965.094.287-.362-.087-.966-.538-.882z"/>
    <path d="M25.996 10.567c.214.113.361.32.328.57a2.235 2.235 0 0 0-.328-.57zm3.519.127.021-.036.091.252-.405.129c-.004-.112-.008-.223-.009-.335l.061.023.115.021c.057.012.099-.005.127-.054z"/>
  </g>
  <g fill="#c5b294">
    <path d="M28.496 8.132c.088-.023.12.01.096.098a.188.188 0 0 1-.096-.098zm-.368.141c-.038-.094.15-.094.112 0h-.112zm-.264.375c-.096.035-.089-.154.004-.112l-.004.112zm2.635-.013c-.036-.082-.01-.12.079-.114a.172.172 0 0 1-.079.114zm.749.004c.058-.059.176.033.123.101-.061 0-.094-.057-.123-.101zm-.528.253c-.094.038-.095-.15-.001-.113l.001.113zm-3.623-.028a.178.178 0 0 1 .03.136c-.084-.027-.094-.073-.03-.136zm4.953.083c.108.009.11.258.001.268l-.001-.268zm-3.604.519c.052-.062.11-.119.171-.172.072.094-.078.244-.171.172zm3.299.26a.65.65 0 0 1 .136-.136c.068.076-.061.204-.136.136zm-.662.181c.082-.001.166 0 .252.002-.033.11-.214.101-.252-.002zm-1.692.803.124-.018c-.027.049-.069.066-.127.054l.003-.036zm-.17.327.405-.129c-.099.13-.25.169-.405.129zm-3.079.95c.342-.028.673-.112.995-.227-.009.174-.024.35-.044.523a5.364 5.364 0 0 1-.948-.175l-.003-.122zm6.141.086c.43.233.861.484 1.359.527-.036.137-.067.277-.106.415-.436-.017-.943-.036-1.243-.412-.12-.158-.07-.36-.01-.53zm-3.152.532c-.021-.108.2-.108.182-.001l-.182.001zm.57.943c.006-.35-.084-.726.06-1.059l-.03.952c.053-.067.107-.133.162-.199l.056.009a1.36 1.36 0 0 1-.248.296zm.179-.974c.065-.058.11-.045.134.039a.155.155 0 0 1-.134-.039zm.764.072c-.064-.128.217-.128.152 0a.553.553 0 0 1-.152 0zm.442 0c-.053-.09.137-.134.134-.032a.228.228 0 0 1-.134.032zm-2.555-.007c.038-.089.173.033.081.074a5.435 5.435 0 0 1-.081-.074zm.89-.006c.079-.068.206.064.138.142a1.419 1.419 0 0 1-.138-.142zm.747.049c.058-.078.214.011.159.098-.064-.014-.112-.057-.159-.098zm-2.144.123c-.032-.085-.004-.121.085-.108a.183.183 0 0 1-.085.108zm1.131-.047c-.035-.095.153-.091.112.001l-.112-.001z"/>
    <path d="m29.837 12.708.132-.02-.007.027-.072.258.175.051.034.01-.262.005.001-.331zm1.415 0c.08.03.089.075.025.137a.151.151 0 0 1-.025-.137zm-2.284.195c-.068-.084.078-.2.149-.123a2.21 2.21 0 0 1-.149.123zm.61-.074c.106-.001.117.227.009.229l-.009-.229zm-1.177.181c.005-.11.244-.118.279-.019l-.279.019zm-.432.244c-.111.009-.118-.223-.008-.221l.008.221zm2.694-.151c.005-.152.135-.035.116.058-.055.023-.094.004-.116-.058zm.203-.082.109.027c-.001.124-.133.074-.109-.027zm.273.032.03-.059c.036.05.061.11.058.174-.064.059-.125-.063-.088-.115zm-3.043.187c-.075-.003-.075-.092-.025-.128l.025.128zm2.081-.046c-.064-.032-.04-.129.035-.112a4.809 4.809 0 0 1-.035.112zm-.873.116c-.016-.051 0-.091.05-.121.047.067.03.108-.05.121zm.903-.084c.068-.067.204.04.148.121a.356.356 0 0 1-.148-.121zm-1.763.194a.345.345 0 0 1 .123-.145c.066.069-.045.204-.123.145zm.631-.132a.301.301 0 0 1 .149.004c.019.095-.175.09-.149-.004zm1.008-.006a.125.125 0 0 1 .109.081c-.081.031-.117.003-.109-.081zm.378.146c-.096.012-.053-.162.027-.11l-.027.11zm.404.047a.521.521 0 0 1 .099-.1c.089.055-.054.198-.099.1z"/>
  </g>
  <path d="M28.109 12.699c.074-.148.32-.211.422-.057l.081.074.027.017a6.905 6.905 0 0 1-.324-.013c-.08.13-.158.263-.242.391-.05.036-.05.125.025.128l.259.093.114-.18c-.104.012-.208.026-.312.04l.001-.161c.08-.008.16-.016.242-.021l.279-.019c-.018.099-.018.221-.112.284a.345.345 0 0 0-.123.145l-.031.063-.378.016c-.026-.081-.053-.161-.067-.245l-.008-.221a.477.477 0 0 1 .061-.225.183.183 0 0 0 .085-.108zm1.652-.208.119.085a.154.154 0 0 0 .134.039.274.274 0 0 1 .155.069c.047.041.096.084.159.098-.001.095 0 .19.002.286l-.115.013c-.075-.017-.099.08-.035.112l.03.032a.35.35 0 0 0 .148.121l.03.014-.086.159c-.037-.052-.074-.103-.107-.156a.125.125 0 0 0-.109-.081l-.135-.027-.056-.009c-.055.066-.109.132-.162.199.009-.318.019-.635.03-.952m.076.217-.001.331.262-.005-.034-.01.132-.095a15.648 15.648 0 0 0-.235-.214l.007-.027-.132.02zm-1.074.563c-.068-.259.071-.636.369-.664l.182-.001.108.03c.042.05.089.097.138.142l.02.051c.002.076.005.153.009.229-.019.183-.163.322-.244.48-.2-.045-.468-.061-.581-.267m.392-.511-.038.02c-.071-.078-.217.038-.149.123-.062.127-.045.27-.038.406l.146-.022c-.026.094.168.099.149.004l.081.018c.08-.013.097-.053.05-.121.136-.091.037-.313.125-.42a3.822 3.822 0 0 0-.214-.006c.04-.093-.147-.096-.112-.001zm1.93-.111a.225.225 0 0 0 .134-.032l.056-.027-.023.118a.151.151 0 0 0 .025.137c.076.206.097.428.146.643h-.172a8.648 8.648 0 0 1-.022-.321.278.278 0 0 0-.058-.174l-.03.059c-.056.108-.086.234-.175.321a.52.52 0 0 0-.099.1 2.279 2.279 0 0 1-.086-.314c.019-.093-.111-.21-.116-.058-.019.129-.035.258-.051.388l-.17-.026.018-.038.027-.11c.019-.229.099-.447.155-.668a.553.553 0 0 0 .152 0c.028.123.055.246.072.372-.024.101.108.151.109.027.035-.133.073-.265.108-.398z" fill="#f1813e"/>
</svg>
