<?xml version="1.0" encoding="UTF-8"?>
<svg version="1.1" xmlns="http://www.w3.org/2000/svg" width="64" height="64" viewBox="4 4 209 209">
<path d="M0 0 C0.99 0.66 1.98 1.32 3 2 C0.69645773 9.30858095 -2.15746549 16.27784021 -5.1875 23.3125 C-6.18344974 25.65315341 -7.17823331 27.99430336 -8.171875 30.3359375 C-8.65720703 31.47901367 -9.14253906 32.62208984 -9.64257812 33.79980469 C-10.09052734 34.85586914 -10.53847656 35.91193359 -11 37 C-11.36287109 37.8549707 -11.72574219 38.70994141 -12.09960938 39.59082031 C-17.10464388 51.47403098 -21.31697771 63.59913856 -25.44677734 75.8069458 C-29.91053872 88.99679021 -34.65165094 102.06666323 -39.54760742 115.10180664 C-39.80459915 115.78661606 -40.06159088 116.47142548 -40.32637024 117.17698669 C-40.82926339 118.51415884 -41.33416814 119.85057644 -41.8412323 121.18617249 C-43.07610283 124.45457114 -44.25643137 127.72912715 -45.34814453 131.04833984 C-45.56459122 131.69453781 -45.7810379 132.34073578 -46.00404358 133.0065155 C-46.5904455 134.77099087 -47.16019762 136.54097491 -47.72875977 138.3112793 C-49.15843668 141.33509951 -49.97327992 141.82855442 -53 143 C-53.88517794 144.92670471 -53.88517794 144.92670471 -54.3125 147.25 C-57.21737643 157.95217633 -62.93403211 167.20267334 -69 176.375 C-69.485896 177.11169922 -69.97179199 177.84839844 -70.47241211 178.60742188 C-75.62419379 186.2239203 -80.95773904 192.98140271 -88.875 197.8125 C-89.48142334 198.19212891 -90.08784668 198.57175781 -90.71264648 198.96289062 C-95.2956067 201.75320669 -99.76658165 203.83470605 -105 205 C-105.72832031 205.17789063 -106.45664063 205.35578125 -107.20703125 205.5390625 C-124.49681504 208.39248136 -144.54986999 205.28524192 -159 195 C-165.21789875 190.18809785 -168.68366315 184.03465393 -172 177 C-172.34289062 176.30390625 -172.68578125 175.6078125 -173.0390625 174.890625 C-176.46138637 166.63866652 -176.61438146 155.89695709 -173.828125 147.4453125 C-172.38865736 144.46991804 -170.83538046 141.74650012 -169 139 C-168.39091797 138.08154297 -168.39091797 138.08154297 -167.76953125 137.14453125 C-162.84900663 130.61182109 -154.95954349 125.13833977 -146.9140625 123.6015625 C-144.60598872 123.30191783 -142.3241111 123.12252315 -140 123 C-139.22785156 122.95875 -138.45570313 122.9175 -137.66015625 122.875 C-126.76544738 122.59247919 -115.36239442 123.48123799 -106.87890625 130.83984375 C-100.44356041 137.36965338 -97.87417031 144.56071805 -96.4375 153.5 C-97.89230399 162.55211369 -101.37908653 169.64520424 -108.609375 175.3671875 C-117.33123743 181.32427655 -117.33123743 181.32427655 -121.94897461 180.76318359 C-127.72784175 179.59768717 -133.1120363 177.58210135 -138.5625 175.375 C-139.38041016 175.05015625 -140.19832031 174.7253125 -141.04101562 174.390625 C-143.02975306 173.59978204 -145.01523399 172.80075781 -147 172 C-142.18364107 181.76042436 -136.50773077 191.71907265 -126 196 C-114.39139542 194.97617463 -104.90302078 186.65975711 -97.5703125 178.1953125 C-86.7966708 164.99054399 -74.52820872 146.98934728 -72.0625 129.8125 C-71.42711964 125.72624648 -69.96405532 123.11098279 -67.6875 119.67578125 C-61.94057657 110.67814916 -57.28826355 101.09809884 -52.52709961 91.55517578 C-50.9483275 88.39666166 -49.35268205 85.2470751 -47.75585938 82.09765625 C-41.97988069 70.61216648 -36.97704249 59.1619732 -32.73422241 47.03289795 C-30.89893958 41.95140949 -28.67694387 37.03796496 -26.4375 32.125 C-25.99470703 31.10792969 -25.55191406 30.09085938 -25.09570312 29.04296875 C-22.43238105 23.17672244 -20.14744532 19.82463814 -15 16 C-13.59767542 13.8630646 -13.59767542 13.8630646 -12.8125 11.625 C-12.34457031 10.46871094 -12.34457031 10.46871094 -11.8671875 9.2890625 C-11.58101562 8.53367187 -11.29484375 7.77828125 -11 7 C-10.07987918 4.596966 -9.1147777 2.3264926 -8 0 C-4.65649854 -1.11450049 -3.33342063 -0.91669067 0 0 Z " fill="#001426" transform="translate(198,6)"/>
<path d="M0 0 C-1.15628906 0.70576172 -1.15628906 0.70576172 -2.3359375 1.42578125 C-3.33882812 2.04839844 -4.34171875 2.67101562 -5.375 3.3125 C-6.37273438 3.92738281 -7.37046875 4.54226562 -8.3984375 5.17578125 C-11.19826812 6.90437775 -11.19826812 6.90437775 -13 10 C-12.41992188 9.52949219 -11.83984375 9.05898437 -11.2421875 8.57421875 C-10.46101563 7.95160156 -9.67984375 7.32898438 -8.875 6.6875 C-8.10929687 6.07261719 -7.34359375 5.45773438 -6.5546875 4.82421875 C1.11850017 -0.65495348 7.77384373 -0.86913066 17 0 C23.87772585 1.73276039 29.95747642 4.6741209 33.765625 10.875 C34.25546875 11.90625 34.7453125 12.9375 35.25 14 C35.75015625 15.03125 36.2503125 16.0625 36.765625 17.125 C39.55047373 23.61122996 39.82762462 29.27905128 37.4375 36 C34.16873817 43.57339889 28.49586697 48.71233905 21 52 C14.95249034 52.86392995 11.74561098 51.76409952 6.6640625 48.484375 C3.86453639 45.98714514 3.10243542 43.86593666 2.6640625 40.16015625 C2.55802469 31.75135802 2.55802469 31.75135802 4.875 27.8125 C7.66944363 25.42900396 8.64529924 25.03284266 12.375 24.6875 C16 25 16 25 18.5 26.75 C20 29 20 29 19.75 31.25 C19.5025 31.8275 19.255 32.405 19 33 C17.865625 33.309375 16.73125 33.61875 15.5625 33.9375 C12.21224901 34.62924531 12.21224901 34.62924531 11 36 C10.95919217 37.99958364 10.95745644 40.00045254 11 42 C13.58008592 43.29004296 15.55741574 43.20410224 18.4375 43.25 C19.40558594 43.27578125 20.37367187 43.3015625 21.37109375 43.328125 C24.40756848 42.94912964 25.06216692 42.25191611 27 40 C27.66 40 28.32 40 29 40 C29.309375 39.21625 29.61875 38.4325 29.9375 37.625 C31 35 31 35 32 33 C32.70327889 26.71500134 33.19741499 20.73487881 29.4375 15.375 C25.16241298 10.65147728 20.53209781 8.90468132 14.25 8.4375 C7.88983176 8.69887678 2.89442549 10.98118274 -2 15 C-6.91412221 21.2087028 -10.19765743 28.09543982 -11 36 C-11.06960937 36.66515625 -11.13921875 37.3303125 -11.2109375 38.015625 C-11.77200432 48.97800754 -5.98586878 57.02588637 1 65 C8.11409366 71.68174543 15.2146468 74.53265576 24.875 74.3125 C25.66567871 74.30412109 26.45635742 74.29574219 27.27099609 74.28710938 C32.74391485 74.17433545 37.73188616 73.56092262 43 72 C33.82113049 79.48140734 21.21895269 78.7077248 10 78 C-0.58438651 76.86295052 -7.82332318 70.43785335 -15 63 C-21.6682207 54.35370637 -25.63539294 45.80415902 -25.37109375 34.796875 C-24.75954541 30.18773171 -23.02025247 26.15775173 -21 22 C-21.66 22 -22.32 22 -23 22 C-26.47012885 32.41038655 -26.77023662 43.39285476 -22.0625 53.375 C-18.50645188 59.7065003 -14.15160105 64.91505553 -9 70 C-8.25105469 70.75023437 -7.50210938 71.50046875 -6.73046875 72.2734375 C-6.15941406 72.84320313 -5.58835937 73.41296875 -5 74 C-15.99598602 71.09828147 -24.20910002 64.67140993 -30.25390625 54.9921875 C-35.15398049 45.77064558 -36.5282667 35.31122848 -35 25 C-33.57355343 20.84249202 -31.60182314 17.52653291 -29 14 C-28.44699219 13.24976563 -27.89398438 12.49953125 -27.32421875 11.7265625 C-20.90598005 3.78860291 -14.57863187 0.66364375 -4.5390625 -0.8359375 C-2 -1 -2 -1 0 0 Z " fill="#0081F8" transform="translate(60,132)"/>
<path d="M0 0 C0.99 0.66 1.98 1.32 3 2 C0.69647369 9.30853031 -2.15702141 16.27805633 -5.1875 23.3125 C-12.87153287 41.34559962 -20.02000898 59.32385381 -26 78 C-26.66 77.34 -27.32 76.68 -28 76 C-32.17019083 78.46384124 -36.2442897 81.06055061 -40.3125 83.6875 C-41.28026367 84.31108398 -41.28026367 84.31108398 -42.26757812 84.94726562 C-43.8455002 85.96414874 -45.42281258 86.98197781 -47 88 C-47 80.38296562 -44.54090667 74.85654105 -41.25 68.125 C-38.59572105 62.60111745 -36.18910429 57.08233971 -34.125 51.3125 C-31.66717382 44.53446529 -28.90893739 37.90930311 -26 31.3125 C-25.59668457 30.36737549 -25.19336914 29.42225098 -24.77783203 28.44848633 C-22.23450973 22.77684693 -19.93786408 19.7221797 -15 16 C-13.59767542 13.8630646 -13.59767542 13.8630646 -12.8125 11.625 C-12.50054687 10.85414062 -12.18859375 10.08328125 -11.8671875 9.2890625 C-11.43792969 8.15597656 -11.43792969 8.15597656 -11 7 C-10.07987918 4.596966 -9.1147777 2.3264926 -8 0 C-4.65649854 -1.11450049 -3.33342063 -0.91669067 0 0 Z " fill="#152030" transform="translate(198,6)"/>
<path d="M0 0 C4.49335792 2.67873261 7.89728454 6.23206909 10.25 10.9375 C10.90654104 18.63302203 11.13061888 24.73779494 6.25 30.9375 C3.84491252 33.77987611 2.30006407 34.8156864 -1.41015625 35.24609375 C-9.03107075 35.41678617 -9.03107075 35.41678617 -12.75 32.9375 C-13.1875 30 -13.1875 30 -12.75 26.9375 C-10.11771463 24.11023053 -7.5095188 23.45965539 -3.75 22.9375 C-4.32344937 20.07025314 -4.6114515 19.0760485 -6.75 16.9375 C-10.98070752 16.37872731 -12.98836974 16.37039868 -16.45703125 18.953125 C-19.34626269 22.7135557 -19.36323331 25.58624466 -19.125 30.125 C-19.11082031 30.84880859 -19.09664062 31.57261719 -19.08203125 32.31835938 C-19.00953685 36.25901399 -19.00953685 36.25901399 -17.75 39.9375 C-19.83473947 39.48560561 -21.91775036 39.02573175 -24 38.5625 C-25.16015625 38.30726563 -26.3203125 38.05203125 -27.515625 37.7890625 C-30.21052401 37.07953595 -32.34525832 36.30653611 -34.75 34.9375 C-35.34211974 24.476718 -32.60567095 14.05643123 -25.75 5.9375 C-22.58542328 3.54583833 -19.31075188 1.67304633 -15.75 -0.0625 C-10.99951903 -2.43774048 -4.91596953 -1.39285803 0 0 Z " fill="#002C5A" transform="translate(82.75,141.0625)"/>
<path d="M0 0 C0.515625 0.268125 1.03125 0.53625 1.5625 0.8125 C6.31596845 3.12829232 10.78710199 5.06114187 16 6 C13.93920052 15.12333101 9.65215255 22.98641614 5 31 C4.37996094 32.06992188 3.75992188 33.13984375 3.12109375 34.2421875 C-5.17364167 47.57610456 -16.81652184 57.60209529 -32.109375 61.8671875 C-34.40766398 62.34112845 -36.66925955 62.73685188 -39 63 C-36.61656825 60.3656807 -34.06086579 58.77957313 -31 57 C-24.37364307 52.8861736 -19.28900462 47.65729121 -14 42 C-16.9373726 44.28517631 -19.61949529 46.56431552 -22.125 49.3125 C-26.4966629 53.77044572 -31.66513444 56.82111256 -37 60 C-38.30517578 60.83337891 -38.30517578 60.83337891 -39.63671875 61.68359375 C-42.6252704 63.34829112 -44.62947379 63.37450291 -48 63 C-48.66 62.34 -49.32 61.68 -50 61 C-49.26394531 60.61328125 -48.52789062 60.2265625 -47.76953125 59.828125 C-42.82341701 57.18845505 -38.31059962 54.61534162 -34 51 C-33.34 51 -32.68 51 -32 51 C-32 50.34 -32 49.68 -32 49 C-30.86112781 47.82661653 -29.71553116 46.65924877 -28.54296875 45.51953125 C-16.18087204 33.34521322 -8.96696058 18.41724654 -1.88867188 2.8190918 C-1 1 -1 1 0 0 Z " fill="#0082F9" transform="translate(127,143)"/>
<path d="M0 0 C-0.36292689 7.88069814 -2.78980003 14.71593768 -5.61035156 22.01416016 C-6.38188244 24.01787413 -7.129185 26.02956111 -7.875 28.04296875 C-8.3605641 29.32085109 -8.84749338 30.59821572 -9.3359375 31.875 C-9.77470215 33.02742188 -10.2134668 34.17984375 -10.66552734 35.3671875 C-12 38 -12 38 -15 39 C-15.92455388 41.0586229 -15.92455388 41.0586229 -16.5 43.5625 C-17.76660862 48.17799529 -19.15199949 52.58086835 -21 57 C-24.25679012 58.62839506 -27.48144886 58.54651143 -31 58 C-34.03652971 56.7404412 -36.5771797 55.22899467 -39 53 C-39.9375 50.3125 -39.9375 50.3125 -40 48 C-40.33 47.34 -40.66 46.68 -41 46 C-39.81591797 43.26953125 -39.81591797 43.26953125 -37.9921875 39.8125 C-37.66969025 39.19536133 -37.34719299 38.57822266 -37.0149231 37.94238281 C-35.97573871 35.95756782 -34.92570706 33.97873541 -33.875 32 C-32.85099378 30.0540014 -31.82922681 28.1068415 -30.80792236 26.15942383 C-30.14154583 24.89113134 -29.47289998 23.62402848 -28.80194092 22.3581543 C-26.43594539 17.88496936 -24.2189186 13.35731776 -22.10986328 8.7578125 C-21 7 -21 7 -18 6 C-18.66 7.98 -19.32 9.96 -20 12 C-18.57107422 11.07767578 -18.57107422 11.07767578 -17.11328125 10.13671875 C-15.84638052 9.32027161 -14.57945196 8.50386765 -13.3125 7.6875 C-12.68666016 7.28337891 -12.06082031 6.87925781 -11.41601562 6.46289062 C-1.38014482 0 -1.38014482 0 0 0 Z " fill="#252926" transform="translate(171,81)"/>
<path d="M0 0 C10.89470887 -0.28252081 22.29776183 0.60623799 30.78125 7.96484375 C37.21659584 14.49465338 39.78598594 21.68571805 41.22265625 30.625 C39.76785226 39.67711369 36.28106972 46.77020424 29.05078125 52.4921875 C24.16469264 55.82941796 19.71310106 58.86400892 13.59765625 57.75 C6.48822843 55.66795328 -0.44259463 52.81619659 -7.33984375 50.125 C-7.33984375 49.795 -7.33984375 49.465 -7.33984375 49.125 C-5.32161458 49.38541667 -3.30338542 49.64583333 -1.28515625 49.90625 C0.66513969 50.1622485 0.66513969 50.1622485 2.66015625 50.125 C2.99015625 48.805 3.32015625 47.485 3.66015625 46.125 C4.03140625 46.888125 4.40265625 47.65125 4.78515625 48.4375 C7.124662 51.79079157 8.82043728 52.74849697 12.66015625 54.125 C19.09184223 55.07393728 22.42186663 53.6553149 27.6171875 49.828125 C33.83310498 44.64621292 37.03993801 38.82093809 38.09765625 30.8125 C37.23764685 23.56384932 34.59765079 15.58223081 29.66015625 10.125 C20.85696386 4.80247676 11.92983155 2.40447943 1.66015625 4.125 C-4.7653293 6.75000196 -9.99516124 10.76435651 -15.33984375 15.125 C-13.93266559 11.75652172 -12.3622629 10.10556632 -9.40234375 8 C-8.71269531 7.50242188 -8.02304687 7.00484375 -7.3125 6.4921875 C-5.66721245 5.3518892 -4.00545202 4.23540551 -2.33984375 3.125 C-11.88199115 4.0614544 -18.67103873 6.1134454 -25.30859375 13.23828125 C-27.12313846 15.46417402 -28.75397929 17.73178636 -30.33984375 20.125 C-30.97599609 21.04732422 -30.97599609 21.04732422 -31.625 21.98828125 C-35.31804874 28.16983596 -35.14228302 35.09183786 -35.33984375 42.125 C-35.99984375 42.125 -36.65984375 42.125 -37.33984375 42.125 C-38.27616756 30.403613 -36.0952195 22.14360082 -28.96484375 12.75 C-20.37353738 4.15869363 -12.0104219 0.64162521 0 0 Z " fill="#2E2F37" transform="translate(60.33984375,128.875)"/>
<path d="M0 0 C0.66 0 1.32 0 2 0 C0.20983478 6.39120391 -1.82799998 12.70800797 -3.9375 19 C-4.17807129 19.754021 -4.41864258 20.50804199 -4.66650391 21.28491211 C-6.52516084 26.72213116 -6.52516084 26.72213116 -9.109375 28.234375 C-9.73328125 28.48703125 -10.3571875 28.7396875 -11 29 C-11.88517794 30.92670471 -11.88517794 30.92670471 -12.3125 33.25 C-15.64442753 45.65118481 -22.92413742 56.44236376 -30 67 C-30.83582162 64.65476761 -31.20480083 63.48321788 -30.21484375 61.14746094 C-29.79332031 60.51614258 -29.37179688 59.88482422 -28.9375 59.234375 C-28.4731958 58.51620605 -28.0088916 57.79803711 -27.53051758 57.05810547 C-27.02544678 56.29643066 -26.52037598 55.53475586 -26 54.75 C-20.71124119 46.48615557 -16.63170522 38.0978554 -13 29 C-14.25039062 28.87753906 -15.50078125 28.75507813 -16.7890625 28.62890625 C-21.03552346 28.21301574 -23.56223317 26.53739932 -27 24 C-27.66 24 -28.32 24 -29 24 C-29.66 24.99 -30.32 25.98 -31 27 C-30.91249445 24.77011716 -30.80430939 22.54103995 -30.6875 20.3125 C-30.62949219 19.07113281 -30.57148437 17.82976562 -30.51171875 16.55078125 C-29.99089024 12.93678801 -29.09845383 10.94233607 -27 8 C-25.0625 8.6875 -25.0625 8.6875 -23 10 C-22.87625 10.804375 -22.7525 11.60875 -22.625 12.4375 C-22.23280483 15.22952396 -22.23280483 15.22952396 -19.5625 16.8125 C-14.94413469 18.3519551 -10.82059177 18.25722525 -6 18 C-5.81824219 17.28714844 -5.63648438 16.57429688 -5.44921875 15.83984375 C-4.00217222 10.32622542 -2.41108634 5.16661358 0 0 Z " fill="#13181D" transform="translate(156,120)"/>
<path d="M0 0 C0.515625 0.268125 1.03125 0.53625 1.5625 0.8125 C6.31596845 3.12829232 10.78710199 5.06114187 16 6 C12.77238722 20.28891075 3.20313661 39.45780437 -9 48 C-9 44.62349554 -8.31635578 43.51754035 -6.6875 40.625 C-1.27068439 30.03758767 0.4668257 18.21422392 -1.625 6.5 C-2.05930368 3.60464216 -1.57933844 2.41545879 0 0 Z " fill="#005AB5" transform="translate(127,143)"/>
<path d="M0 0 C1.32 0.66 2.64 1.32 4 2 C3.73896484 2.59200195 3.47792969 3.18400391 3.20898438 3.79394531 C-1.91725585 15.44245091 -6.9444218 27.10978622 -11.57421875 38.96582031 C-13.90316472 44.90316472 -13.90316472 44.90316472 -15 46 C-17.75 46.375 -17.75 46.375 -21 46 C-23.703125 43.4765625 -23.703125 43.4765625 -26 41 C-24.7327778 37.77195632 -23.40352864 34.57300859 -22.0625 31.375 C-21.53172852 30.01955078 -21.53172852 30.01955078 -20.99023438 28.63671875 C-18.40196407 22.5752994 -15.75437075 19.45572884 -10.01660156 16.16748047 C-4.01539189 12.6931724 -2.25239115 6.17011406 0 0 Z " fill="#F8F800" transform="translate(195,8)"/>
<path d="M0 0 C0.66 0 1.32 0 2 0 C-3.17837466 20.98810942 -3.17837466 20.98810942 -12 27 C-15.0122584 28.24245671 -17.99217586 29.21343024 -21.1328125 30.078125 C-24.08757323 31.02815706 -26.4081622 32.31008378 -29 34 C-23.90888431 17.99235739 -17.18169304 10.35387836 -2.63891602 1.97705078 C-1.02241095 1.10417124 -1.02241095 1.10417124 0 0 Z " fill="#0082FA" transform="translate(167,84)"/>
<path d="M0 0 C5.00677362 0.33378491 9.28101628 1.23038111 14 3 C13.236875 3.556875 12.47375 4.11375 11.6875 4.6875 C8.27851762 7.62081042 6.283726 9.71464535 5.71484375 14.296875 C5.51685006 19.97843301 6.37771757 23.97395868 9 29 C-0.87096774 25.96774194 -0.87096774 25.96774194 -5 23 C-7.08195026 18.83609947 -6.40379099 14.42188011 -5.17578125 10.09765625 C-2.4847561 2.4847561 -2.4847561 2.4847561 0 0 Z " fill="#005AB5" transform="translate(56,152)"/>
<path d="M0 0 C-1.76181739 6.09763749 -3.54931965 12.13967743 -6 18 C-9.24753147 19.62376573 -12.49134998 19.57458729 -16 19 C-18.87951579 17.60416692 -21.43659042 15.90892203 -24 14 C-23.72174481 10.66093774 -23.30619786 9.29668166 -20.86328125 6.9296875 C-17.64772365 4.76258592 -15.16691193 4.09851423 -11.375 3.375 C-7.55953587 2.63286167 -3.52987925 0 0 0 Z " fill="#0058B3" transform="translate(156,120)"/>
<path d="M0 0 C0.99 0.66 1.98 1.32 3 2 C0.63608074 9.52156127 -2.32406769 16.69783211 -5.4375 23.9375 C-8.71406166 31.59165417 -11.9535574 39.25089215 -15 47 C-15.66 46.01 -16.32 45.02 -17 44 C-16.20483398 41.171875 -16.20483398 41.171875 -14.74609375 37.75 C-14.48876968 37.13664795 -14.23144562 36.5232959 -13.96632385 35.89135742 C-13.13617937 33.92186043 -12.28705942 31.96118876 -11.4375 30 C-10.89134817 28.71015552 -10.34641294 27.41979518 -9.80273438 26.12890625 C-6.65862026 18.696912 -3.38249679 11.32668036 0 4 C-0.99 3.67 -1.98 3.34 -3 3 C-3.1959375 3.71285156 -3.391875 4.42570313 -3.59375 5.16015625 C-5.86415424 12.43132156 -8.64287001 16.74121956 -15 21 C-15.65709961 21.27239502 -16.31419922 21.54479004 -16.99121094 21.82543945 C-19.50126832 23.29309697 -20.01883575 24.47791128 -21.140625 27.1328125 C-21.48867187 27.93847656 -21.83671875 28.74414062 -22.1953125 29.57421875 C-22.54335937 30.41597656 -22.89140625 31.25773437 -23.25 32.125 C-23.61351562 32.97449219 -23.97703125 33.82398438 -24.3515625 34.69921875 C-25.24629019 36.79476518 -26.1284596 38.89472883 -27 41 C-27.66 40.67 -28.32 40.34 -29 40 C-23.3000493 22.17421079 -23.3000493 22.17421079 -17.875 18.25 C-13.91306721 15.14935694 -12.74792772 11.6138993 -11 7 C-10.07987918 4.596966 -9.1147777 2.3264926 -8 0 C-4.65649854 -1.11450049 -3.33342063 -0.91669067 0 0 Z " fill="#37371F" transform="translate(198,6)"/>
<path d="M0 0 C4.49335792 2.67873261 7.89728454 6.23206909 10.25 10.9375 C10.39901491 13.03803716 10.47138453 15.14437825 10.5 17.25 C10.52578125 18.38050781 10.5515625 19.51101562 10.578125 20.67578125 C10.22205734 24.21526337 9.29430289 26.07009621 7.25 28.9375 C6.59 28.6075 5.93 28.2775 5.25 27.9375 C5.91 26.9475 6.57 25.9575 7.25 24.9375 C7.97943732 18.82558313 8.64169818 12.02473968 5.125 6.6875 C0.23241716 2.00763815 -4.57109607 1.44548917 -11.13671875 1.53515625 C-15.58189452 2.21954056 -19.0700656 4.44865548 -22.75 6.9375 C-22.75 7.5975 -22.75 8.2575 -22.75 8.9375 C-22.06035156 9.09605469 -21.37070312 9.25460938 -20.66015625 9.41796875 C-14.12614614 11.04026756 -6.67511252 13.01238748 -1.75 17.9375 C-1.70919217 19.93708364 -1.70745644 21.93795254 -1.75 23.9375 C-2.74 23.9375 -3.73 23.9375 -4.75 23.9375 C-4.523125 23.339375 -4.29625 22.74125 -4.0625 22.125 C-3.51977227 19.92470957 -3.51977227 19.92470957 -4.75 18.1875 C-7.90088325 16.21819797 -10.11842939 16.43659371 -13.75 16.9375 C-16.91040655 18.42380052 -16.91040655 18.42380052 -18.75 21.9375 C-19.46327192 26.60282669 -19.67981234 31.22216532 -19.75 35.9375 C-22.58463816 31.68554276 -22.39552117 27.9305674 -21.75 22.9375 C-19.87644032 19.38419716 -17.73062071 16.62005864 -14.75 13.9375 C-18.8696377 12.64506464 -22.41831683 11.67497375 -26.75 11.9375 C-27.39757625 13.37421568 -28.04299453 14.81190416 -28.6875 16.25 C-29.04714844 17.05050781 -29.40679687 17.85101563 -29.77734375 18.67578125 C-31.14923581 21.86584352 -31.90479311 24.48365246 -31.9375 27.9375 C-31.95167969 28.618125 -31.96585938 29.29875 -31.98046875 30 C-31.85940411 32.26364132 -31.85940411 32.26364132 -29.75 34.9375 C-28.76 35.5975 -27.77 36.2575 -26.75 36.9375 C-29.51276177 36.41481534 -32.0760876 35.82880413 -34.75 34.9375 C-35.34211974 24.476718 -32.60567095 14.05643123 -25.75 5.9375 C-22.58542328 3.54583833 -19.31075188 1.67304633 -15.75 -0.0625 C-10.99951903 -2.43774048 -4.91596953 -1.39285803 0 0 Z " fill="#000E1C" transform="translate(82.75,141.0625)"/>
<path d="M0 0 C0.66 0 1.32 0 2 0 C1.67515625 0.89138672 1.67515625 0.89138672 1.34375 1.80078125 C-1.87766349 11.39045196 -2.2369363 19.76809702 1.61328125 29.23828125 C5.70645085 37.39003029 11.26813645 43.71786087 18.3125 49.44140625 C18.869375 49.95574219 19.42625 50.47007812 20 51 C20 51.66 20 52.32 20 53 C12.82994597 53.9560072 7.87502777 50.90511447 2 47 C-6.42041457 40.55236827 -11.5781132 30.19741811 -14 20 C-14 19.01 -14 18.02 -14 17 C-13.34 17 -12.68 17 -12 17 C-11.78085937 17.75023437 -11.56171875 18.50046875 -11.3359375 19.2734375 C-7.77445966 30.76861395 -3.05823145 39.95078569 7 47 C9.67212351 48.31612053 12.12566718 49.16383045 15 50 C14.43152344 49.48953125 13.86304687 48.9790625 13.27734375 48.453125 C5.48972411 41.12054156 -2.40471217 31.33672928 -3.30078125 20.29296875 C-3.31932643 18.92459926 -3.32274102 17.55595684 -3.3125 16.1875 C-3.31121094 15.47916016 -3.30992188 14.77082031 -3.30859375 14.04101562 C-3.21033189 8.70048358 -2.37252869 4.74505737 0 0 Z " fill="#161F2A" transform="translate(37,154)"/>
<path d="M0 0 C5 2 5 2 10 4 C6.06403753 13.58321298 -0.88711515 19.34661199 -10 24 C-8.36368504 18.6776703 -6.16119959 13.69018424 -3.875 8.625 C-3.50246094 7.79355469 -3.12992188 6.96210937 -2.74609375 6.10546875 C-1.83326454 4.06915745 -0.91784402 2.03405461 0 0 Z " fill="#0081F6" transform="translate(165,60)"/>
<path d="M0 0 C0.33 0 0.66 0 1 0 C0.57026736 6.56237546 -1.91488647 11.44553133 -5 17.1875 C-5.7410498 18.58198364 -5.7410498 18.58198364 -6.49707031 20.00463867 C-10.41158711 27.22257969 -14.70358208 33.70613991 -20 40 C-20.67417969 40.82371094 -21.34835938 41.64742187 -22.04296875 42.49609375 C-25.41271718 46.50505219 -25.41271718 46.50505219 -27 48 C-27.66 48 -28.32 48 -29 48 C-29 48.66 -29 49.32 -29 50 C-34.29324407 54.48654925 -41.12438961 59.43927862 -48 61 C-48.99 60.34 -49.98 59.68 -51 59 C-49.94941406 58.5153125 -48.89882812 58.030625 -47.81640625 57.53125 C-23.43962314 46.01692444 -10.34809437 24.18761895 0 0 Z " fill="#2C333C" transform="translate(124,144)"/>
<path d="M0 0 C0.0825 0.598125 0.165 1.19625 0.25 1.8125 C1.25036997 4.73024575 2.29808749 5.53950675 5 7 C8.0842309 7.41702122 8.0842309 7.41702122 11 7 C11.66 6.34 12.32 5.68 13 5 C12.40895235 9.84659077 11.02055843 13.60748167 9 18 C7.39431334 17.71682074 5.79047953 17.42312209 4.1875 17.125 C3.29417969 16.96257813 2.40085938 16.80015625 1.48046875 16.6328125 C-1 16 -1 16 -4 14 C-4.82336802 8.00117585 -3.17309028 4.85879449 0 0 Z " fill="#333324" transform="translate(169,46)"/>
<path d="M0 0 C0.33 0.66 0.66 1.32 1 2 C0.3984375 3.8046875 0.3984375 3.8046875 -0.625 5.875 C-0.94726562 6.55304688 -1.26953125 7.23109375 -1.6015625 7.9296875 C-5.1277899 13.15008002 -9.63943522 14.78546716 -15.5625 16.125 C-21.48273134 17.49971227 -21.48273134 17.49971227 -27 20 C-25.89339028 15.29690868 -23.32637233 13.17277102 -19.55859375 10.4765625 C-15.56544224 8.17211781 -11.31540352 6.73097606 -6.953125 5.2734375 C-3.86087504 3.94000696 -2.1912399 2.52098959 0 0 Z " fill="#F5F500" transform="translate(160,107)"/>
<path d="M0 0 C0.48210937 0.42152344 0.96421875 0.84304687 1.4609375 1.27734375 C2.09257812 1.82519531 2.72421875 2.37304688 3.375 2.9375 C4.00148437 3.48277344 4.62796875 4.02804688 5.2734375 4.58984375 C8.33899744 7.09361555 10.7359305 7.24594783 14.625 7.5625 C16.12933594 7.68818359 16.12933594 7.68818359 17.6640625 7.81640625 C18.43492187 7.87699219 19.20578125 7.93757812 20 8 C19.01 10.31 18.02 12.62 17 15 C11.23247651 15.34605141 6.9818895 15.32125966 2 12 C-0.80256734 9.38427048 -0.98532411 8.21646942 -1.25 4.3125 C-1 1 -1 1 0 0 Z " fill="#B3B400" transform="translate(129,132)"/>
<path d="M0 0 C0.66 0 1.32 0 2 0 C2.79981085 7.03833552 0.46631738 12.9157646 -3 19 C-7.65215762 24.55199469 -13.82173651 29.3852061 -21 31 C-29.27824029 31 -38.37900281 25.97359154 -46 23 C-46 22.67 -46 22.34 -46 22 C-42.97265625 22.390625 -42.97265625 22.390625 -39.9453125 22.78125 C-37.99501656 23.0372485 -37.99501656 23.0372485 -36 23 C-35.67 21.68 -35.34 20.36 -35 19 C-34.62875 19.763125 -34.2575 20.52625 -33.875 21.3125 C-31.53549425 24.66579157 -29.83971897 25.62349697 -26 27 C-19.56831402 27.94893728 -16.23828962 26.5303149 -11.04296875 22.703125 C-3.67585965 16.56151971 -0.97260317 9.33699044 0 0 Z " fill="#444345" transform="translate(99,156)"/>
<path d="M0 0 C0.94875 0.165 1.8975 0.33 2.875 0.5 C6.82984237 1.08799082 10.68048381 0.99683135 14.66796875 0.83984375 C17 1 17 1 18.7578125 1.98828125 C22.30211383 3.58753917 25.8463385 3.29394383 29.6875 3.25 C30.49171387 3.24613281 31.29592773 3.24226562 32.12451172 3.23828125 C37.66446789 3.15748788 42.665713 2.58052948 48 1 C38.82113049 8.48140734 26.21895269 7.7077248 15 7 C9.07734034 6.36374611 4.64353698 4.69101658 0 1 C0 0.67 0 0.34 0 0 Z " fill="#0058B1" transform="translate(55,203)"/>
<path d="M0 0 C1.32 0.66 2.64 1.32 4 2 C3.73896484 2.59200195 3.47792969 3.18400391 3.20898438 3.79394531 C1.96920663 6.61112855 0.73399136 9.43027729 -0.5 12.25 C-1.17687866 13.79421631 -1.17687866 13.79421631 -1.86743164 15.36962891 C-4.11362232 20.52965772 -6.30302813 25.69872907 -8.33984375 30.9453125 C-8.695625 31.86151367 -9.05140625 32.77771484 -9.41796875 33.72167969 C-10.08817936 35.46589638 -10.74864651 37.213894 -11.3984375 38.96582031 C-11.69878906 39.74795898 -11.99914062 40.53009766 -12.30859375 41.3359375 C-12.56439209 42.02220215 -12.82019043 42.7084668 -13.08374023 43.41552734 C-14 45 -14 45 -17 46 C-15.01396292 39.02592918 -12.6833397 32.25927039 -10.0625 25.5 C-9.72798828 24.62730469 -9.39347656 23.75460938 -9.04882812 22.85546875 C-6.75241432 16.88213805 -4.38741901 10.93744005 -2 5 C-1.33305686 3.33344395 -0.66631727 1.66680638 0 0 Z " fill="#B6B800" transform="translate(195,8)"/>
<path d="M0 0 C-2.5951357 10.51816361 -5.03733099 20.13450724 -14 27 C-14.66 27 -15.32 27 -16 27 C-14.43474984 21.91697112 -12.37038563 17.18296328 -10.125 12.375 C-9.78597656 11.62476562 -9.44695312 10.87453125 -9.09765625 10.1015625 C-4.38717586 0 -4.38717586 0 0 0 Z " fill="#005BB8" transform="translate(169,84)"/>
<path d="M0 0 C-1.80548737 0.97148051 -3.61985301 1.92646511 -5.4375 2.875 C-6.44683594 3.40867188 -7.45617187 3.94234375 -8.49609375 4.4921875 C-15.51345202 7.51192027 -22.4698688 8.38775403 -30.0625 8.375 C-31.27836792 8.37693359 -31.27836792 8.37693359 -32.51879883 8.37890625 C-40.70579535 8.23845285 -48.21381155 6.40566374 -56 4 C-53.50202533 2.35441479 -52.39324417 1.93032611 -49.3984375 2.4609375 C-48.40070312 2.76257813 -47.40296875 3.06421875 -46.375 3.375 C-33.12600961 6.69469085 -18.07063033 6.72790498 -5.8984375 -0.1953125 C-3.53420446 -1.19743597 -2.37357864 -0.84770666 0 0 Z " fill="#464344" transform="translate(109,204)"/>
<path d="M0 0 C-2.31 4.62 -4.62 9.24 -7 14 C-13 12 -13 12 -15 10 C-14.90663064 6.45196448 -14.25287657 5.24604207 -11.6875 2.75 C-7.39751468 -0.04347881 -5.22980656 0 0 0 Z " fill="#0081F6" transform="translate(147,124)"/>
<path d="M0 0 C1 3 1 3 -0.08203125 5.8984375 C-4.80963074 13.54347618 -13.92621029 18.42890071 -22 22 C-20.66961104 17.9598188 -19.10109267 15.81086118 -15.875 13.0625 C-15.07578125 12.37929687 -14.2765625 11.69609375 -13.453125 10.9921875 C-10.60564614 8.67974448 -7.70591682 6.46371393 -4.7265625 4.32421875 C-2.99769122 2.99822924 -1.50408057 1.57328673 0 0 Z " fill="#ECEC00" transform="translate(172,72)"/>
<path d="M0 0 C3.37462715 0.54723683 5.08235 1.0549 8 3 C5.63608074 10.52156127 2.67593231 17.69783211 -0.4375 24.9375 C-3.71406166 32.59165417 -6.9535574 40.25089215 -10 48 C-10.66 47.01 -11.32 46.02 -12 45 C-11.20483398 42.171875 -11.20483398 42.171875 -9.74609375 38.75 C-9.48876968 38.13664795 -9.23144562 37.5232959 -8.96632385 36.89135742 C-8.13617937 34.92186043 -7.28705942 32.96118876 -6.4375 31 C-5.89134817 29.71015552 -5.34641294 28.41979518 -4.80273438 27.12890625 C-1.65862026 19.696912 1.61750321 12.32668036 5 5 C3.68 4.67 2.36 4.34 1 4 C0.67 2.68 0.34 1.36 0 0 Z " fill="#393937" transform="translate(193,5)"/>
<path d="M0 0 C0.66 0.33 1.32 0.66 2 1 C1.1875 3.9375 1.1875 3.9375 0 7 C-0.99 7.33 -1.98 7.66 -3 8 C-3.78111094 9.86114875 -3.78111094 9.86114875 -4.25 12.1875 C-7.67659467 24.60448997 -14.89960928 35.40576623 -22 46 C-22.84865035 43.63297135 -23.20110781 42.47307226 -22.19897461 40.11572266 C-21.77108643 39.4716748 -21.34319824 38.82762695 -20.90234375 38.1640625 C-20.19827393 37.07170288 -20.19827393 37.07170288 -19.47998047 35.95727539 C-18.97096191 35.18762451 -18.46194336 34.41797363 -17.9375 33.625 C-12.49299525 25.09446751 -8.20783068 16.62349203 -5 7 C-5.99 6.67 -6.98 6.34 -8 6 C-6.576875 5.9071875 -6.576875 5.9071875 -5.125 5.8125 C-4.09375 5.544375 -3.0625 5.27625 -2 5 C-0.54708727 2.53744315 -0.54708727 2.53744315 0 0 Z " fill="#393B40" transform="translate(148,141)"/>
<path d="M0 0 C0.33 0.99 0.66 1.98 1 3 C-2.80676087 9.2388581 -8.60170252 16.60279359 -15.9921875 18.515625 C-17.9375 18.8125 -17.9375 18.8125 -21 19 C-21 18.01 -21 17.02 -21 16 C-19.19921875 14.74609375 -19.19921875 14.74609375 -16.6875 13.4375 C-10.26283879 9.80696899 -5.29395645 5.09266533 0 0 Z " fill="#252E39" transform="translate(124,185)"/>
<path d="M0 0 C0.495 1.485 0.495 1.485 1 3 C0.33097656 3.22945313 -0.33804688 3.45890625 -1.02734375 3.6953125 C-4.83494803 5.36645551 -8.12288563 7.55486681 -11.5625 9.875 C-12.22185547 10.30941406 -12.88121094 10.74382812 -13.56054688 11.19140625 C-19.84605409 15.39858997 -23.47567728 19.33597948 -26.75 26.25 C-27.06582031 26.8996875 -27.38164062 27.549375 -27.70703125 28.21875 C-28.47873965 29.80893701 -29.24040275 31.40399229 -30 33 C-30.66 33 -31.32 33 -32 33 C-30.31240469 27.25073462 -27.71892076 22.03484048 -25.0625 16.6875 C-24.61970703 15.76904297 -24.17691406 14.85058594 -23.72070312 13.90429688 C-23.28822266 13.03224609 -22.85574219 12.16019531 -22.41015625 11.26171875 C-22.01965088 10.46725342 -21.62914551 9.67278809 -21.22680664 8.85424805 C-20 7 -20 7 -17 6 C-17.66 7.98 -18.32 9.96 -19 12 C-17.57107422 11.07767578 -17.57107422 11.07767578 -16.11328125 10.13671875 C-14.84638052 9.32027161 -13.57945196 8.50386765 -12.3125 7.6875 C-11.68666016 7.28337891 -11.06082031 6.87925781 -10.41601562 6.46289062 C-6.97755441 4.24859361 -3.52178871 2.08075088 0 0 Z " fill="#1D2025" transform="translate(170,81)"/>
<path d="M0 0 C0.66 0 1.32 0 2 0 C1.38404218 4.60282906 0.16273187 8.60025975 -1.50390625 12.9296875 C-1.7466478 13.56488312 -1.98938934 14.20007874 -2.23948669 14.85452271 C-3.00856593 16.86341403 -3.78538685 18.86920469 -4.5625 20.875 C-5.08840705 22.24459348 -5.61380284 23.61438339 -6.13867188 24.984375 C-7.41987778 28.32520837 -8.70803966 31.66330853 -10 35 C-10.66 34.01 -11.32 33.02 -12 32 C-11.3203125 29.73828125 -11.3203125 29.73828125 -10.125 27.3125 C-9.73570312 26.50425781 -9.34640625 25.69601563 -8.9453125 24.86328125 C-8.63335937 24.24839844 -8.32140625 23.63351563 -8 23 C-8.66 22.67 -9.32 22.34 -10 22 C-9.54262451 21.59676514 -9.08524902 21.19353027 -8.61401367 20.77807617 C-6.78434989 18.76242932 -6.08520023 17.10744971 -5.17578125 14.55078125 C-4.86962891 13.70322266 -4.56347656 12.85566406 -4.24804688 11.98242188 C-3.93931641 11.10134766 -3.63058594 10.22027344 -3.3125 9.3125 C-2.99216797 8.41982422 -2.67183594 7.52714844 -2.34179688 6.60742188 C-1.55360039 4.40753019 -0.77334105 2.20514854 0 0 Z " fill="#38383C" transform="translate(169,84)"/>
<path d="M0 0 C0.70125 0.28875 1.4025 0.5775 2.125 0.875 C5.05452503 2.02133588 8.00921653 3.02625654 11 4 C10.01 5.98 9.02 7.96 8 10 C4.26512223 9.5020163 2.18762365 9.12508244 -1 7 C-0.67 4.69 -0.34 2.38 0 0 Z " fill="#E9E900" transform="translate(168,52)"/>
<path d="M0 0 C0.99 0.33 1.98 0.66 3 1 C3.061875 1.66 3.12375 2.32 3.1875 3 C5.28040507 10.7276495 11.45032175 18.84271841 18.00390625 23.390625 C19.63355838 24.32561733 21.31269892 25.17356682 23 26 C22.01 26.66 21.02 27.32 20 28 C11.38705784 22.04825918 2.30293279 13.814816 0.25390625 3.09765625 C0.17011719 2.07542969 0.08632813 1.05320313 0 0 Z " fill="#383C45" transform="translate(49,176)"/>
<path d="M0 0 C1.1055189 0.93590504 2.20935453 1.87379858 3.3125 2.8125 C3.92738281 3.33457031 4.54226562 3.85664063 5.17578125 4.39453125 C6.85424679 5.87172469 8.43882034 7.40039131 10 9 C8.3125 10.5625 8.3125 10.5625 6 12 C3.375 11.875 3.375 11.875 1 11 C-1.43769218 7.34346173 -1.23944439 5.30999899 -1 1 C-0.67 0.67 -0.34 0.34 0 0 Z " fill="#F7F600" transform="translate(129,132)"/>
<path d="M0 0 C0.33 0.66 0.66 1.32 1 2 C-0.72655109 7.17965328 -3.32679042 11.07924402 -8 14 C-10.3125 14.75 -10.3125 14.75 -12 15 C-11.505 13.6078125 -11.505 13.6078125 -11 12.1875 C-9.85032996 9.07970709 -9.85032996 9.07970709 -10 6 C-8.906875 5.566875 -7.81375 5.13375 -6.6875 4.6875 C-3.90591207 3.50504359 -1.93638061 2.39199957 0 0 Z " fill="#AEAE00" transform="translate(160,107)"/>
<path d="M0 0 C0.33 0 0.66 0 1 0 C0.59773649 7.26999877 -1.24832119 12.43950425 -4.5625 18.875 C-5.40218046 20.5365225 -6.23705 22.20048762 -7.06640625 23.8671875 C-7.43709229 24.59019043 -7.80777832 25.31319336 -8.18969727 26.05810547 C-9.19254659 28.11074332 -9.19254659 28.11074332 -9 31 C-10.32 31.33 -11.64 31.66 -13 32 C-11.4708026 26.96870287 -9.35558528 22.39890991 -7.0625 17.6875 C-4.27661319 11.88127674 -1.80329687 6.19883299 0 0 Z " fill="#3F3C3D" transform="translate(164,56)"/>
<path d="M0 0 C0 0.33 0 0.66 0 1 C-1.98 1.33 -3.96 1.66 -6 2 C-6 2.66 -6 3.32 -6 4 C-7.85043427 5.19820784 -9.75790262 6.30894982 -11.6875 7.375 C-15.77555018 9.64114747 -19.42188886 11.986155 -23 15 C-21.59282184 11.63152172 -20.02241915 9.98056632 -17.0625 7.875 C-16.37285156 7.37742188 -15.68320312 6.87984375 -14.97265625 6.3671875 C-13.3273687 5.2268892 -11.66560827 4.11040551 -10 3 C-12.97 3 -15.94 3 -19 3 C-19 2.34 -19 1.68 -19 1 C-12.61773055 0.17648136 -6.43255401 -0.12086218 0 0 Z " fill="#353D49" transform="translate(68,129)"/>
<path d="M0 0 C0.99 0.33 1.98 0.66 3 1 C2.53574151 6.68716647 1.22534691 10.25684278 -2 15 C-2.99 15.33 -3.98 15.66 -5 16 C-3.90301833 10.30860098 -2.45946923 5.25432063 0 0 Z " fill="#40403A" transform="translate(190,6)"/>
<path d="M0 0 C0.66 0.33 1.32 0.66 2 1 C1.1875 3.9375 1.1875 3.9375 0 7 C-0.99 7.33 -1.98 7.66 -3 8 C-3.91849826 10.23236116 -3.91849826 10.23236116 -4.5 12.875 C-5.38621162 16.49369745 -6.11282891 18.57798425 -9 21 C-8.00956295 16.16371695 -7.04301154 11.52381127 -5 7 C-5.99 6.67 -6.98 6.34 -8 6 C-6.576875 5.9071875 -6.576875 5.9071875 -5.125 5.8125 C-4.09375 5.544375 -3.0625 5.27625 -2 5 C-0.54708727 2.53744315 -0.54708727 2.53744315 0 0 Z " fill="#33302D" transform="translate(148,141)"/>
<path d="M0 0 C0.5775 0.78375 1.155 1.5675 1.75 2.375 C3.82897637 4.80047244 5.09040333 5.85694417 8 7 C8 7.99 8 8.98 8 10 C1.89262558 8.23536928 -4.07433507 6.30442525 -10 4 C-10 3.67 -10 3.34 -10 3 C-7.98177083 3.26041667 -5.96354167 3.52083333 -3.9453125 3.78125 C-1.99501656 4.0372485 -1.99501656 4.0372485 0 4 C0 2.68 0 1.36 0 0 Z " fill="#33373D" transform="translate(63,175)"/>
<path d="M0 0 C-1.56020867 0.65134925 -3.12328579 1.29582964 -4.6875 1.9375 C-5.55761719 2.29714844 -6.42773438 2.65679687 -7.32421875 3.02734375 C-12.23805066 4.81353958 -16.59441509 5.11520793 -21.8125 5.0625 C-22.97394531 5.05347656 -24.13539062 5.04445312 -25.33203125 5.03515625 C-26.21246094 5.02355469 -27.09289062 5.01195312 -28 5 C-24.34714192 2.77490878 -20.83238932 2.47028703 -16.625 2 C-12.7796846 1.5684616 -9.37588654 1.12856927 -5.7109375 -0.125 C-3 -1 -3 -1 0 0 Z " fill="#005FC1" transform="translate(103,205)"/>
<path d="M0 0 C0.66 0.33 1.32 0.66 2 1 C-2.79544808 6.24502133 -8.99311192 11.19822878 -16 13 C-16.99 12.34 -17.98 11.68 -19 11 C-17.87980469 10.45730469 -16.75960937 9.91460937 -15.60546875 9.35546875 C-14.13265508 8.63313338 -12.66000746 7.91045938 -11.1875 7.1875 C-10.44951172 6.83107422 -9.71152344 6.47464844 -8.95117188 6.10742188 C-8.23896484 5.75615234 -7.52675781 5.40488281 -6.79296875 5.04296875 C-6.1383667 4.72352295 -5.48376465 4.40407715 -4.80932617 4.07495117 C-2.88382936 2.93098106 -1.51164489 1.64255865 0 0 Z " fill="#3F434A" transform="translate(92,192)"/>
<path d="M0 0 C0 0.99 0 1.98 0 3 C-5.49329847 5.68277367 -10.92508786 6.96130019 -16.9140625 8.15625 C-20.04571846 9.01250024 -22.31401703 10.20268798 -25 12 C-24 9 -24 9 -21.84765625 7.40625 C-17.730506 5.37308938 -13.5406247 4.7142485 -9.05859375 3.84375 C-5.70679186 2.91911499 -3.30550147 0 0 0 Z " fill="#1B1B16" transform="translate(158,117)"/>
<path d="M0 0 C0.66 0 1.32 0 2 0 C-0.15928935 7.39393019 -2.5304518 14.70417741 -5 22 C-5.33 21.01 -5.66 20.02 -6 19 C-6.66 18.67 -7.32 18.34 -8 18 C-7.34 18 -6.68 18 -6 18 C-5.81824219 17.28714844 -5.63648438 16.57429688 -5.44921875 15.83984375 C-4.00217222 10.32622542 -2.41108634 5.16661358 0 0 Z " fill="#444246" transform="translate(156,120)"/>
<path d="M0 0 C0.78375 0.04125 1.5675 0.0825 2.375 0.125 C-0.625 2.125 -0.625 2.125 -2.625 3.125 C-2.27713292 5.10036745 -2.27713292 5.10036745 -1.625 7.125 C1.43193322 8.65346661 4.00484547 8.35742445 7.375 8.125 C9.77583438 6.76614884 9.77583438 6.76614884 11.375 5.125 C12.035 5.455 12.695 5.785 13.375 6.125 C12.0625 8.125 12.0625 8.125 9.375 10.125 C4.17636562 10.79428526 -0.19548752 11.07800832 -4.625 8.125 C-4.9375 5.125 -4.9375 5.125 -4.625 2.125 C-2.625 0.125 -2.625 0.125 0 0 Z " fill="#000912" transform="translate(74.625,165.875)"/>
<path d="M0 0 C0.33 0 0.66 0 1 0 C0.44147333 5.4367976 -0.93957617 9.9183367 -3.0625 14.9375 C-3.34416016 15.62134766 -3.62582031 16.30519531 -3.91601562 17.00976562 C-4.6035405 18.67613946 -5.30076175 20.33850727 -6 22 C-6.66 21.01 -7.32 20.02 -8 19 C-7.49267578 16.9152832 -7.49267578 16.9152832 -6.4453125 14.55078125 C-6.07792969 13.70322266 -5.71054688 12.85566406 -5.33203125 11.98242188 C-4.73455078 10.66081055 -4.73455078 10.66081055 -4.125 9.3125 C-3.73441406 8.41982422 -3.34382812 7.52714844 -2.94140625 6.60742188 C-1.97310613 4.39922527 -0.99232799 2.1974784 0 0 Z " fill="#323236" transform="translate(189,31)"/>
<path d="M0 0 C6.60568521 2.34395282 13.3988828 5.59868851 18 11 C11.3401865 9.24254921 6.11100549 6.68074228 1 2 C0.67 1.34 0.34 0.68 0 0 Z " fill="#005DBD" transform="translate(37,195)"/>
<path d="M0 0 C1.32 0.66 2.64 1.32 4 2 C3.43224464 3.29858939 2.84508337 4.58870441 2.25 5.875 C1.92515625 6.59429688 1.6003125 7.31359375 1.265625 8.0546875 C-0.21929686 10.3370674 -1.50415408 11.00375898 -4 12 C-3.52494322 10.18641846 -3.04483958 8.37415821 -2.5625 6.5625 C-2.29566406 5.55316406 -2.02882812 4.54382813 -1.75390625 3.50390625 C-1 1 -1 1 0 0 Z " fill="#BFC000" transform="translate(195,8)"/>
<path d="M0 0 C3.37462715 0.54723683 5.08235 1.0549 8 3 C7.01 5.97 6.02 8.94 5 12 C4.34 11.01 3.68 10.02 3 9 C3.66 7.68 4.32 6.36 5 5 C3.68 4.67 2.36 4.34 1 4 C0.67 2.68 0.34 1.36 0 0 Z " fill="#555548" transform="translate(193,5)"/>
<path d="M0 0 C1.17046875 0.29648438 2.3409375 0.59296875 3.546875 0.8984375 C4.43890625 1.13820312 5.3309375 1.37796875 6.25 1.625 C5.59 2.285 4.93 2.945 4.25 3.625 C-1.0095548 3.26842001 -5.73125763 2.19335699 -10.75 0.625 C-6.93048124 -2.00328271 -4.32721184 -1.12507508 0 0 Z " fill="#404247" transform="translate(63.75,207.375)"/>
<path d="M0 0 C1 3 1 3 -0.1875 6.0625 C-1.99216457 8.9873012 -2.82880497 9.90648447 -6 11 C-5.62671065 5.64951939 -4.0042343 3.49087093 0 0 Z " fill="#B5B600" transform="translate(172,72)"/>
<path d="M0 0 C0.515625 0.2475 1.03125 0.495 1.5625 0.75 C-1.92837093 4.7542343 -4.08701939 6.37671065 -9.4375 6.75 C-9.4375 5.76 -9.4375 4.77 -9.4375 3.75 C-3.0375 -0.31153846 -3.0375 -0.31153846 0 0 Z " fill="#002F5F" transform="translate(112.4375,197.25)"/>
<path d="M0 0 C5.06998019 0.65419099 9.41990777 2.8546409 14 5 C14 5.66 14 6.32 14 7 C10.2397015 6.41892368 7.46964968 5.34800504 4.1875 3.4375 C3.39730469 2.98246094 2.60710938 2.52742187 1.79296875 2.05859375 C1.20128906 1.70925781 0.60960937 1.35992187 0 1 C0 0.67 0 0.34 0 0 Z " fill="#424044" transform="translate(39,200)"/>
<path d="M0 0 C0.33 0.99 0.66 1.98 1 3 C0.00390625 4.82421875 0.00390625 4.82421875 -1.4375 6.6875 C-1.91058594 7.31011719 -2.38367188 7.93273437 -2.87109375 8.57421875 C-3.24363281 9.04472656 -3.61617188 9.51523438 -4 10 C-4.99 8.68 -5.98 7.36 -7 6 C-4.69 4.02 -2.38 2.04 0 0 Z " fill="#1F242A" transform="translate(124,185)"/>
<path d="M0 0 C0.70125 0.639375 1.4025 1.27875 2.125 1.9375 C5.25424531 4.18239338 7.19524818 4.74634988 11 5 C11.66 4.67 12.32 4.34 13 4 C13 5.32 13 6.64 13 8 C11.39431334 7.71682074 9.79047953 7.42312209 8.1875 7.125 C7.29417969 6.96257813 6.40085938 6.80015625 5.48046875 6.6328125 C3 6 3 6 0 4 C0 2.68 0 1.36 0 0 Z " fill="#0A0E0E" transform="translate(165,56)"/>
<path d="M0 0 C1.305239 3.91571701 0.32239848 5.03892997 -1.4375 8.6875 C-1.91058594 9.68136719 -2.38367188 10.67523438 -2.87109375 11.69921875 C-3.42990234 12.83810547 -3.42990234 12.83810547 -4 14 C-4.66 13.67 -5.32 13.34 -6 13 C-4.58707905 8.1725201 -2.57025846 4.2837641 0 0 Z " fill="#3F3F3E" transform="translate(175,33)"/>
<path d="M0 0 C0.66 0 1.32 0 2 0 C1.48474397 5.28137429 -0.25477117 8.57221156 -3 13 C-4.39943663 10.20112673 -3.54753576 8.87861172 -2.625 5.9375 C-2.34914062 5.03902344 -2.07328125 4.14054688 -1.7890625 3.21484375 C-1 1 -1 1 0 0 Z " fill="#E2E200" transform="translate(191,8)"/>
<path d="M0 0 C2 3 2 3 1.5390625 5.69921875 C1.23742187 6.68535156 0.93578125 7.67148438 0.625 8.6875 C0.32851562 9.68136719 0.03203125 10.67523438 -0.2734375 11.69921875 C-0.51320312 12.45847656 -0.75296875 13.21773437 -1 14 C-2.62433191 11.49923002 -3.07333427 10.41017471 -2.5390625 7.421875 C-2.23742187 6.54015625 -1.93578125 5.6584375 -1.625 4.75 C-1.32851562 3.85796875 -1.03203125 2.9659375 -0.7265625 2.046875 C-0.48679688 1.37140625 -0.24703125 0.6959375 0 0 Z M-5 11 C-3 12 -3 12 -3 12 Z " fill="#444332" transform="translate(173,70)"/>
<path d="M0 0 C0.66 0 1.32 0 2 0 C1.55123384 1.64846769 1.09069512 3.29373455 0.625 4.9375 C0.36976563 5.85402344 0.11453125 6.77054687 -0.1484375 7.71484375 C-1 10 -1 10 -3 11 C-2.53199289 6.94393835 -2.12046792 3.53411321 0 0 Z " fill="#3E3C3D" transform="translate(156,120)"/>
<path d="M0 0 C2 3.875 2 3.875 2 5 C-0.875 5.125 -0.875 5.125 -4 5 C-4.66 4.34 -5.32 3.68 -6 3 C-4.02 2.01 -2.04 1.02 0 0 Z " fill="#0081E8" transform="translate(83,201)"/>
<path d="M0 0 C0.6875 1.625 0.6875 1.625 1 4 C-0.4375 7.25 -0.4375 7.25 -2 10 C-2.66 9.67 -3.32 9.34 -4 9 C-2.94124926 5.59687262 -1.99097846 2.98646769 0 0 Z " fill="#414751" transform="translate(29,145)"/>
<path d="M0 0 C0 0.66 0 1.32 0 2 C-2.97 3.32 -5.94 4.64 -9 6 C-9 5.01 -9 4.02 -9 3 C-3.375 0 -3.375 0 0 0 Z " fill="#403E41" transform="translate(49,131)"/>
<path d="M0 0 C2.12508244 3.18762365 2.5020163 5.26512223 3 9 C1.68 9.33 0.36 9.66 -1 10 C-0.67 6.7 -0.34 3.4 0 0 Z " fill="#40403D" transform="translate(126,133)"/>
<path d="M0 0 C2.31 1.98 4.62 3.96 7 6 C6.01 6.33 5.02 6.66 4 7 C2 5.1875 2 5.1875 0 3 C0 2.01 0 1.02 0 0 Z " fill="#232B35" transform="translate(34,193)"/>
<path d="M0 0 C0.33 0.99 0.66 1.98 1 3 C-0.32 4.32 -1.64 5.64 -3 7 C-3.99 6.67 -4.98 6.34 -6 6 C-4.02 4.02 -2.04 2.04 0 0 Z " fill="#2D333F" transform="translate(94,173)"/>
<path d="M0 0 C0.66 0.33 1.32 0.66 2 1 C1.34 2.98 0.68 4.96 0 7 C-1.32 7 -2.64 7 -4 7 C-3.525625 6.401875 -3.05125 5.80375 -2.5625 5.1875 C-0.83534256 2.99617076 -0.83534256 2.99617076 0 0 Z " fill="#42433D" transform="translate(148,141)"/>
<path d="M0 0 C0.68707555 2.49064888 1 4.37886292 1 7 C-0.32 7.33 -1.64 7.66 -3 8 C-1.125 2.25 -1.125 2.25 0 0 Z " fill="#3F3D37" transform="translate(154,80)"/>
<path d="M0 0 C0.66 0.33 1.32 0.66 2 1 C1.01 3.97 0.02 6.94 -1 10 C-1.66 9.01 -2.32 8.02 -3 7 C-1.625 3.3125 -1.625 3.3125 0 0 Z " fill="#43433C" transform="translate(184,43)"/>
<path d="M0 0 C1.32 0.66 2.64 1.32 4 2 C1.03 2.66 -1.94 3.32 -5 4 C-2 1 -2 1 0 0 Z " fill="#0081E1" transform="translate(93,202)"/>
<path d="M0 0 C0.8353125 0.37125 0.8353125 0.37125 1.6875 0.75 C-1.125 2.8125 -1.125 2.8125 -4.3125 4.75 C-5.3025 4.42 -6.2925 4.09 -7.3125 3.75 C-2.88173077 -0.31153846 -2.88173077 -0.31153846 0 0 Z " fill="#42464D" transform="translate(88.3125,180.25)"/>
<path d="M0 0 C0.33 0 0.66 0 1 0 C0.25 6.75 0.25 6.75 -2 9 C-3 6 -3 6 -1.5625 2.8125 C-1.046875 1.884375 -0.53125 0.95625 0 0 Z " fill="#45474C" transform="translate(124,144)"/>
<path d="M0 0 C1 4 1 4 1 4 Z " fill="#B6B6B6" transform="translate(8,207)"/>
</svg>
