<svg xmlns="http://www.w3.org/2000/svg" version="1.1" xmlns:xlink="http://www.w3.org/1999/xlink" width="512" height="512" x="0" y="0" viewBox="0 0 512 512" style="enable-background:new 0 0 512 512" xml:space="preserve" class=""><g><path d="M452.749 270.471c-4.604-5.969-9.6-11.94-14.939-17.888a305.547 305.547 0 0 0 10.458-12.792c34.016-44.106 43.674-84.117 27.194-112.66-16.479-28.544-55.954-40.185-111.164-32.779a306.094 306.094 0 0 0-17.797 2.947 306.957 306.957 0 0 0-6.531-17.418C318.78 28.369 288.959 0 256 0s-62.78 28.369-83.969 79.881a306.957 306.957 0 0 0-6.531 17.418 307.09 307.09 0 0 0-17.797-2.947c-55.204-7.405-94.684 4.235-111.164 32.779s-6.822 68.554 27.194 112.66a303.967 303.967 0 0 0 10.458 12.792c-5.34 5.948-10.335 11.918-14.939 17.888-34.016 44.106-43.674 84.117-27.194 112.66 13.241 22.934 41.321 34.955 80.484 34.955 9.579 0 19.829-.72 30.679-2.176 6.988-.938 14.15-2.174 21.446-3.679 2.295 6.884 4.748 13.529 7.364 19.889C193.22 483.631 223.041 512 256 512s62.78-28.369 83.969-79.881c2.616-6.36 5.069-13.005 7.364-19.889 7.296 1.505 14.458 2.742 21.446 3.679 10.853 1.456 21.097 2.176 30.679 2.176 39.159 0 67.245-12.022 80.484-34.955 16.481-28.543 6.823-68.553-27.193-112.659zm-57.603-148.345c27.422 0 46.804 6.961 54.335 20.004 9.854 17.068.753 45.986-24.969 79.339a273.373 273.373 0 0 1-7.72 9.537c-15.039-14.308-31.968-28.308-50.386-41.65-2.544-22.217-6.369-43.447-11.371-63.186 14.684-2.71 28.167-4.044 40.111-4.044zm-99.321 205.866c-13.485 7.785-26.794 14.769-39.816 20.979a572.13 572.13 0 0 1-39.834-20.979c-14.885-8.594-29.13-17.69-42.569-27.138A572.65 572.65 0 0 1 171.868 256c0-17.398.763-34.099 2.167-50.002a570.846 570.846 0 0 1 37.658-23.728c15.04-8.683 29.857-16.357 44.306-23.084 14.45 6.727 29.267 14.401 44.307 23.084a570.584 570.584 0 0 1 37.658 23.728c1.404 15.903 2.167 32.604 2.167 50.002 0 15.531-.61 30.504-1.738 44.854-13.438 9.448-27.683 18.544-42.568 27.138zm37.992 12.012c-2.01 12.77-4.448 24.866-7.248 36.202-11.127-3.233-22.72-7.145-34.677-11.754a611.165 611.165 0 0 0 18.933-10.479 607.935 607.935 0 0 0 22.992-13.969zm-113.711 24.447c-11.959 4.61-23.549 8.518-34.677 11.751-2.799-11.334-5.237-23.429-7.247-36.198a606.614 606.614 0 0 0 22.992 13.968 606.963 606.963 0 0 0 18.932 10.479zm-77.872-87.507c-9.5-7.87-18.401-15.888-26.614-23.981 8.323-7.937 17.291-15.787 26.831-23.484a606.98 606.98 0 0 0-.583 26.521c0 7.029.127 14.013.366 20.944zm36.778-110.036c2.017-11.953 4.413-23.283 7.128-33.926 10.659 2.979 21.767 6.595 33.228 10.856a607.532 607.532 0 0 0-22.674 12.452 607.012 607.012 0 0 0-17.682 10.618zm113.619-23.071c11.461-4.261 22.569-7.878 33.229-10.856 2.715 10.644 5.111 21.974 7.128 33.927a608.296 608.296 0 0 0-17.681-10.618 606.983 606.983 0 0 0-22.676-12.453zm76.918 85.642c9.54 7.697 18.508 15.547 26.831 23.484-8.213 8.093-17.114 16.111-26.614 23.981a607.75 607.75 0 0 0 .366-20.944c0-8.919-.2-17.766-.583-26.521zM256 30c21.699 0 44.749 27.603 61.225 74.297-19.851 5.579-40.429 12.976-61.225 22.018-20.796-9.042-41.374-16.438-61.225-22.018C211.251 57.603 234.301 30 256 30zM62.519 142.131c7.532-13.045 26.905-20.004 54.335-20.004 11.943 0 25.427 1.334 40.112 4.045-5.003 19.739-8.827 40.969-11.371 63.185-18.418 13.342-35.347 27.342-50.386 41.65a273.373 273.373 0 0 1-7.72-9.537c-25.723-33.353-34.824-62.271-24.97-79.339zm49.854 246.004c-27.422-.002-46.804-6.961-54.335-20.004-9.854-17.068-.753-45.986 24.969-79.339A281.373 281.373 0 0 1 94.8 274.531c14.869 14.618 31.746 28.957 50.198 42.649 2.429 23.266 6.243 45.521 11.342 66.177-16.189 3.211-30.984 4.779-43.967 4.778zM256 482c-22.12 0-45.641-28.69-62.173-77.041 20.186-5.868 41.088-13.595 62.173-22.987 21.085 9.392 41.987 17.119 62.173 22.987C301.641 453.31 278.12 482 256 482zm197.962-113.869c-11.096 19.22-47.908 25.221-98.303 15.226 5.1-20.656 8.913-42.911 11.342-66.177 18.453-13.692 35.33-28.031 50.198-42.649a281.815 281.815 0 0 1 11.793 14.261c25.724 33.353 34.825 62.271 24.97 79.339z" fill="#61dbfb" opacity="1" data-original="#000000" class=""></path><circle cx="256" cy="256" r="46.35" fill="#61dbfb" opacity="1" data-original="#000000" class=""></circle></g></svg>
