<svg xmlns="http://www.w3.org/2000/svg" version="1.1" xmlns:xlink="http://www.w3.org/1999/xlink" width="64" height="64" x="0" y="0" viewBox="0 0 512 512" style="enable-background:new 0 0 64 64" xml:space="preserve" class=""><g><linearGradient id="a" x1="116.521" x2="345.261" y1="370.484" y2="141.755" gradientTransform="matrix(1 0 0 -1 0 513.62)" gradientUnits="userSpaceOnUse"><stop stop-opacity="1" stop-color="#800020" offset="0"></stop><stop stop-opacity="0" stop-color="#4B0000" offset="1"></stop></linearGradient><path fill="url(#a)" d="M354.2 274.9c-7.9-10.7-19.3-18-34.2-21.9 13.1-4.9 23.1-12.6 29.9-23.1s10.2-23 10.2-37.7c0-25.5-9.5-45-28.6-58.4s-46.9-20.1-83.5-20.1H145.8v284.4h115.4c34.6-.3 60.8-7.4 78.4-21.4s26.5-34.9 26.5-62.8c.1-15.3-3.9-28.3-11.9-39zM214.4 166.5H248c15.4 0 26.5 2.7 33.4 7.9 6.9 5.3 10.4 13.9 10.4 26 0 10.4-3.2 18.4-9.6 23.7-6.4 5.4-17.1 8.1-32 8.2h-35.7v-65.8zM287.8 337c-6.6 5.7-16.2 8.5-28.5 8.5h-44.9v-68.2h48.1c23.6.1 35.4 12 35.4 35.7-.1 10.3-3.4 18.3-10.1 24z" opacity="1" data-original="url(#a)" class=""></path></g></svg>
