<svg xmlns="http://www.w3.org/2000/svg" version="1.1" xmlns:xlink="http://www.w3.org/1999/xlink" width="64" height="64" x="0" y="0" viewBox="0 0 512 512" style="enable-background:new 0 0 512 512" xml:space="preserve" class=""><g><linearGradient id="a" x1="159.512" x2="359.525" y1="357.009" y2="157.006" gradientTransform="matrix(1 0 0 -1 0 513.62)" gradientUnits="userSpaceOnUse"><stop stop-opacity="1" stop-color="#00bcd4" offset="0"></stop><stop stop-opacity="0" stop-color="#0097a7" offset="1"></stop></linearGradient><path fill="url(#a)" d="M306.6 302h68.2c-.9 19.8-6.2 37.3-16 52.4-9.8 15.2-23.5 26.9-41.1 35.2s-37.8 12.5-60.4 12.5c-37.4 0-66.8-12.2-88.3-36.5s-32.2-58.7-32.2-103.1v-14.1c0-27.9 4.8-52.2 14.5-73.1s23.7-37 41.9-48.4 39.3-17.1 63.3-17.1c34.5 0 62.2 9.1 83.2 27.2 21 18.2 32.9 43.2 35.7 75.1H307c-.5-17.3-4.9-29.8-13.1-37.3-8.2-7.6-20.7-11.3-37.5-11.3s-29.6 6.4-37.5 19.1-12.1 33.1-12.5 61.1v20.1c0 30.3 3.8 52 11.4 65s20.7 19.5 39.4 19.5c15.8 0 27.8-3.7 36.1-11.1 8.3-7.3 12.8-19.1 13.3-35.2z" opacity="1" data-original="url(#a)" class=""></path></g></svg>
