<svg xmlns="http://www.w3.org/2000/svg" version="1.1" xmlns:xlink="http://www.w3.org/1999/xlink" width="64" height="64" x="0" y="0" viewBox="0 0 512 512" style="enable-background:new 0 0 512 512" xml:space="preserve" class=""><g><linearGradient id="a" x1="110.304" x2="326.777" y1="365.832" y2="149.369" gradientTransform="matrix(1 0 0 -1 0 513.62)" gradientUnits="userSpaceOnUse"><stop stop-opacity="1" stop-color="#fdd835" offset="0"></stop><stop stop-opacity="0" stop-color="#fbc02d" offset="1"></stop></linearGradient><path fill="url(#a)" d="M350.6 179.1c-11.3-20.8-26.9-36.8-47-48.2s-42.6-17.1-67.8-17.1h-91.6v284.4h93.6c24.6-.1 46.9-6 66.9-17.7 20-11.6 35.5-27.8 46.5-48.4s16.5-44 16.5-70V249c-.1-25.8-5.8-49.1-17.1-69.9zM297.8 262c0 27.6-5.3 48.4-15.8 62.4-10.6 14-25.6 21-45.3 21h-23.8V166.7H236c20.2 0 35.5 7 46.1 20.9s15.8 34.6 15.8 62.1z" opacity="1" data-original="url(#a)" class=""></path></g></svg>
